<svg width="500" height="500" viewBox="0 0 500 500" fill="none" xmlns="http://www.w3.org/2000/svg">
<path fill-rule="evenodd" clip-rule="evenodd" d="M248.964 497.919C111.685 497.919 0 386.239 0 248.964C0 111.685 111.685 0 248.964 0C386.243 0 497.928 111.685 497.928 248.964C497.928 386.239 386.243 497.919 248.964 497.919Z" fill="#E0393D"/>
<path fill-rule="evenodd" clip-rule="evenodd" d="M248.964 486.43C118.018 486.43 11.4865 379.903 11.4865 248.962C11.4865 118.016 118.018 11.4888 248.964 11.4888C379.91 11.4888 486.437 118.016 486.437 248.962C486.437 379.903 379.91 486.43 248.964 486.43Z" fill="#FEFEFE"/>
<path fill-rule="evenodd" clip-rule="evenodd" d="M248.964 474.941C124.356 474.941 22.9775 373.568 22.9775 248.964C22.9775 124.351 124.356 22.973 248.964 22.973C373.572 22.973 474.951 124.351 474.951 248.964C474.951 373.568 373.572 474.941 248.964 474.941Z" fill="#E0393D"/>
<path fill-rule="evenodd" clip-rule="evenodd" d="M168.296 57.9852L172.602 67.6969L160.381 61.4942L153.606 64.4987L167.755 96.3996L174.53 93.3951L165.543 73.1338L178.012 79.8906L182.444 89.8861L189.219 86.8816L175.07 54.9807L168.296 57.9852Z" fill="#FEFEFE"/>
<path fill-rule="evenodd" clip-rule="evenodd" d="M316.185 52.6473L310.978 69.0212L302.73 66.3996L307.933 50.0257L300.87 47.778L295.663 64.1518L293.235 63.3816L294.352 68.2825L290.298 81.0347L297.361 83.2825L300.721 72.7149L308.973 75.341L305.613 85.9041L312.672 88.1473L323.248 54.8906L316.185 52.6473Z" fill="#FEFEFE"/>
<path fill-rule="evenodd" clip-rule="evenodd" d="M432.004 149.855C430.671 147.774 429.342 145.693 428.013 143.607C423.864 145.923 417.4 148.814 411.882 150.278L408.873 145.571L423.346 136.314L419.355 130.071L404.882 139.328L403.504 137.175L401.229 141.666L389.954 148.873L393.95 155.116L403.288 149.143L406.77 154.589C404.103 157.738 400.184 161.13 398.612 162.409C399.941 164.49 401.274 166.571 402.603 168.652C404.846 166.823 411.887 160.697 413.22 157.13C419.18 156.035 427.171 152.553 432.004 149.855Z" fill="#FEFEFE"/>
<path fill-rule="evenodd" clip-rule="evenodd" d="M441.225 170.439C435.22 170.43 431.333 172.088 426.297 174.056L424.256 192.25C422.806 192.687 421.324 193.065 419.81 193.358L416.824 185.709L419.387 184.709L416.689 177.804L407.955 181.214C407.955 181.214 415.437 200.381 415.761 201.209C422.085 201.092 426.211 199.34 431.554 197.254L433.279 179.182C434.54 178.804 435.828 178.48 437.144 178.223L440.157 185.939L437.599 186.939L440.292 193.845L449.031 190.435C449.031 190.435 441.72 171.714 441.225 170.439Z" fill="#FEFEFE"/>
<path fill-rule="evenodd" clip-rule="evenodd" d="M65.9139 150.493L71.5851 153.93L75.7788 147.002L99.9635 161.659L103.806 155.322L79.6211 140.668L83.8148 133.741L78.1482 130.304L65.9139 150.493Z" fill="#FEFEFE"/>
<path fill-rule="evenodd" clip-rule="evenodd" d="M194.002 48.5253L195.48 54.9892L203.372 53.1874L209.669 80.755L216.894 79.1063L210.597 51.5343L218.489 49.7325L217.011 43.2685L194.002 48.5253Z" fill="#FEFEFE"/>
<path fill-rule="evenodd" clip-rule="evenodd" d="M95.127 109.64L90.145 115.122L115.969 138.595L128.037 125.311L123.132 120.851L116.046 128.649L95.127 109.64Z" fill="#FEFEFE"/>
<path fill-rule="evenodd" clip-rule="evenodd" d="M59.6248 181.626L61.377 176.784C65.0662 177.009 68.6293 177.667 71.9581 178.761L69.0212 186.878C65.7599 185.59 62.6023 183.82 59.6248 181.626ZM91.0797 177.788L75.1428 172.036C69.5527 170.077 63.2959 169.338 56.814 169.914C56.7554 170.086 51.9491 183.356 51.7239 183.982C56.1518 188.392 61.2014 191.725 66.5077 193.82L65.6248 196.257L70.5933 195.329L83.0842 199.865L85.6113 192.896L75.2509 189.144L78.1968 181.005L88.5572 184.752L91.0797 177.788Z" fill="#FEFEFE"/>
<path fill-rule="evenodd" clip-rule="evenodd" d="M347.427 73.9027L351.878 76.4928C351 80.0829 349.716 83.4702 348.04 86.5468L340.581 82.209C342.432 79.2315 344.738 76.4432 347.427 73.9027ZM345.585 105.533L354.09 90.8847C357.018 85.736 358.86 79.709 359.45 73.2315C359.297 73.1369 347.094 66.0423 346.522 65.709C341.391 69.2766 337.207 73.6504 334.202 78.4973L331.959 77.191L331.986 82.245L325.288 93.727L331.698 97.4567L337.238 87.9342L344.72 92.2856L339.18 101.808L345.585 105.533Z" fill="#FEFEFE"/>
<path fill-rule="evenodd" clip-rule="evenodd" d="M126.236 89.7784L130.326 86.6522C133.313 88.8369 135.952 91.3144 138.159 94.0396L131.304 99.2784C129.254 96.4315 127.556 93.2333 126.236 89.7784ZM154.772 103.558L144.475 90.0982C140.835 85.4315 135.97 81.427 130.205 78.409C130.06 78.5171 118.844 87.0847 118.313 87.4901C119.655 93.5937 122.101 99.1252 125.434 103.76L123.376 105.332L128.051 107.238L136.114 117.805L142.002 113.31L135.317 104.553L142.196 99.2964L148.88 108.053L154.772 103.558Z" fill="#FEFEFE"/>
<path fill-rule="evenodd" clip-rule="evenodd" d="M249.916 58.6288L241.286 58.7279C241.349 55.2234 241.898 51.6423 242.907 48.0838L248.056 48.0252C249.141 51.5612 249.772 55.1288 249.916 58.6288ZM241.475 76.372L241.349 65.354L250.006 65.2549L250.132 76.2729L257.542 76.1874L257.38 62.8991L259.894 58.5162L257.299 58.5432C257.074 52.845 255.587 46.9802 252.885 41.3405C252.218 41.3495 238.105 41.5117 237.925 41.5117C235.245 47.4396 233.88 53.5928 233.885 59.5162L234.065 76.4576L241.475 76.372Z" fill="#FEFEFE"/>
<path fill-rule="evenodd" clip-rule="evenodd" d="M401.461 108.204L390.2 119.74C387.465 122.627 384.186 125.136 380.497 127.199L378.276 125.037C380.087 121.262 382.33 117.866 384.943 114.974L396.416 103.217L391.1 98.0324C391.1 98.0324 379.772 109.645 379.767 109.654C376.907 112.393 373.519 114.762 369.731 116.699L367.515 114.532C369.483 110.794 371.907 107.456 374.727 104.65L385.979 93.1045L380.677 87.9288L368.929 99.9739C364.794 104.244 361.533 109.677 359.384 115.861C359.51 115.987 367.934 124.204 368.411 124.672C369.429 124.325 370.42 123.938 371.393 123.541C371.019 124.523 370.659 125.523 370.339 126.55C370.817 127.019 379.24 135.231 379.366 135.357C385.497 133.059 390.848 129.659 395.019 125.424L406.767 113.379L401.461 108.204Z" fill="#FEFEFE"/>
<path fill-rule="evenodd" clip-rule="evenodd" d="M103.232 342.417C97.4433 344.025 94.146 346.669 89.8306 349.912L92.7586 367.989C91.4838 368.8 90.155 369.561 88.7811 370.254L83.8397 363.687L86.0378 362.038L81.5874 356.11L74.0874 361.75C74.0874 361.75 86.4568 378.191 86.9883 378.903C93.0514 377.092 96.5514 374.291 101.137 370.845L97.9342 352.971C99.0469 352.273 100.2 351.615 101.398 351.011L106.376 357.633L104.182 359.286L108.637 365.209L116.132 359.574C116.132 359.574 104.056 343.511 103.232 342.417Z" fill="#FEFEFE"/>
<path fill-rule="evenodd" clip-rule="evenodd" d="M182.707 408.852L180.545 415.122L188.202 417.757L178.986 444.496L185.995 446.91L195.207 420.172L202.86 422.811L205.022 416.546L182.707 408.852Z" fill="#FEFEFE"/>
<path fill-rule="evenodd" clip-rule="evenodd" d="M51.5932 286.26L58.9356 284.71L60.3184 291.269C57.9941 292.35 55.6247 293.282 53.2374 294.053L51.5932 286.26ZM72.7644 281.791L74.4581 289.809C71.859 290.179 69.413 290.323 66.868 290.179L65.422 283.341L72.7644 281.791ZM82.5121 295.868C82.1923 294.359 77.7193 273.165 77.7193 273.165L63.8905 276.089L63.341 273.481L59.4626 277.021L43.5752 280.377C43.5752 280.377 48.0347 301.499 48.35 302.981C53.931 301.868 59.5121 299.854 64.832 297.053C70.859 298.021 75.4265 297.368 82.5121 295.868Z" fill="#FEFEFE"/>
<path fill-rule="evenodd" clip-rule="evenodd" d="M170.124 410.29L173.421 404.537L153.295 392.997L146.264 405.254L143.867 403.88L143.93 409.326L135.935 423.267L156.061 434.808L159.358 429.06L145.66 421.2L149.394 414.695L157.863 419.551L161.16 413.799L152.691 408.943L156.426 402.434L170.124 410.29Z" fill="#FEFEFE"/>
<path fill-rule="evenodd" clip-rule="evenodd" d="M387.669 390.514L389.52 392.545L383.345 398.162L368.786 382.158L374.39 377.063C375.11 377.707 375.849 378.387 376.597 379.09L382.079 374.104C379.273 371.464 376.583 369.149 374.651 367.86C373.957 368.486 358.845 382.243 358.845 382.243L382.327 408.054L399.462 392.464L393.151 385.527L387.669 390.514Z" fill="#FEFEFE"/>
<path fill-rule="evenodd" clip-rule="evenodd" d="M296.534 414.773L289.381 416.719L298.552 450.39L315.868 445.678L314.124 439.277L303.958 442.048L296.534 414.773Z" fill="#FEFEFE"/>
<path fill-rule="evenodd" clip-rule="evenodd" d="M84.3685 319.762L86.5216 324.442C83.7334 326.874 80.7379 328.901 77.5937 330.46L73.9901 322.622C77.2153 321.248 80.7063 320.293 84.3685 319.762ZM64.6613 344.577L80.0487 337.487C85.4045 334.96 90.382 331.091 94.5892 326.131C94.5126 325.964 88.6207 313.145 88.3415 312.537C82.0937 312.505 76.1568 313.676 70.909 315.915L69.8235 313.555L66.9361 317.703L54.855 323.244L57.9496 329.978L67.9631 325.374L71.5757 333.239L61.5667 337.843L64.6613 344.577Z" fill="#FEFEFE"/>
<path fill-rule="evenodd" clip-rule="evenodd" d="M218.672 447.341L219.668 439.904L226.312 440.796C226.551 443.35 226.641 445.895 226.569 448.4L218.672 447.341ZM221.546 425.895L229.672 426.985C229.15 429.557 228.47 431.909 227.479 434.26L220.551 433.332L221.546 425.895ZM238.078 421.422C236.546 421.219 215.082 418.341 215.082 418.341L213.209 432.346L210.564 431.994L212.605 436.832L210.447 452.927C210.447 452.927 231.844 455.796 233.344 455.994C234.163 450.364 234.136 444.431 233.276 438.481C236.204 433.125 237.118 428.602 238.078 421.422Z" fill="#FEFEFE"/>
<path fill-rule="evenodd" clip-rule="evenodd" d="M444.557 294.774L437.233 293.157L438.679 286.612C441.242 286.585 443.782 286.711 446.278 286.995L444.557 294.774ZM423.431 290.103L425.197 282.099C427.719 282.842 430.003 283.716 432.264 284.896L430.755 291.725L423.431 290.103ZM420.363 273.256C420.03 274.765 415.359 295.909 415.359 295.909L429.156 298.959L428.58 301.563L433.575 299.937L449.431 303.441C449.431 303.441 454.089 282.364 454.417 280.887C448.872 279.59 442.958 279.121 436.958 279.477C431.868 276.108 427.435 274.819 420.363 273.256Z" fill="#FEFEFE"/>
<path fill-rule="evenodd" clip-rule="evenodd" d="M261.116 427.731L266.242 427.231C267.629 430.659 268.562 434.154 269.003 437.632L260.418 438.474C260.179 434.974 260.418 431.366 261.116 427.731ZM278.111 454.474L276.449 437.614C275.814 431.726 273.787 425.758 270.481 420.154C270.3 420.172 256.251 421.546 255.589 421.614C253.512 427.505 252.674 433.496 253.071 439.19L250.485 439.442L253.463 443.528L254.746 456.758L262.12 456.037L261.048 445.073L269.665 444.231L270.737 455.195L278.111 454.474Z" fill="#FEFEFE"/>
<path fill-rule="evenodd" clip-rule="evenodd" d="M388.068 351.439L383.636 357.376L411.595 378.259L422.334 363.881L417.019 359.912L410.717 368.349L388.068 351.439Z" fill="#FEFEFE"/>
<path fill-rule="evenodd" clip-rule="evenodd" d="M325.235 403.644L318.578 406.896L333.888 438.252L350.014 430.378L347.105 424.423L337.636 429.045L325.235 403.644Z" fill="#FEFEFE"/>
<path fill-rule="evenodd" clip-rule="evenodd" d="M407.595 317.522L422.285 324.162C425.933 325.748 429.406 327.968 432.609 330.73L430.361 335.698C426.177 335.126 422.208 333.986 418.609 332.297L403.915 325.667L400.866 332.419L416.199 339.342C421.627 341.77 427.848 342.982 434.393 342.887C434.469 342.721 440.352 329.698 440.663 329.004C436.406 324.032 431.388 320.162 425.978 317.694L410.645 310.766L407.595 317.522Z" fill="#FEFEFE"/>
<path fill-rule="evenodd" clip-rule="evenodd" d="M143.017 385.628C141.179 383.974 139.346 382.321 137.508 380.668C134.125 384.001 128.661 388.506 123.733 391.384L119.58 387.65L131.071 374.88L125.562 369.92L114.071 382.691L112.175 380.988L111.17 385.911L102.22 395.862L107.729 400.817L115.143 392.578L119.95 396.902C118.215 400.646 115.341 404.956 114.166 406.609C115.999 408.263 117.837 409.916 119.675 411.569C121.35 409.209 126.508 401.429 126.841 397.632C132.296 394.997 139.076 389.515 143.017 385.628Z" fill="#FEFEFE"/>
<path fill-rule="evenodd" clip-rule="evenodd" d="M403.325 248.962C403.325 334.218 334.222 403.336 248.965 403.336C163.695 403.336 94.5864 334.218 94.5864 248.962C94.5864 163.705 163.695 94.5878 248.965 94.5878C334.222 94.5878 403.325 163.705 403.325 248.962Z" fill="#FEFEFE"/>
<path fill-rule="evenodd" clip-rule="evenodd" d="M249.041 361.966C217.631 361.966 189.226 349.056 168.861 328.254C226.992 298.268 263.181 306.002 263.181 311.844C263.181 317.79 254.249 331.691 254.249 331.691C301.645 324.988 336.163 296.448 336.163 257.984C336.163 219.488 300.159 200.88 290.974 195.177C281.154 189.065 285.762 180.772 253.501 168.614C233.87 161.218 206.316 153.916 195.528 151.155C211.442 142.497 229.654 137.587 249.041 137.587C310.992 137.587 361.226 187.831 361.226 249.781C361.226 311.75 310.992 361.966 249.041 361.966ZM249.041 105.826C201.776 105.826 159.848 128.583 133.591 163.754C137.429 164.858 144.681 166.93 153.595 169.502L153.559 169.529C167.668 173.682 214.478 187.412 223.222 190.204C248.776 198.403 255.492 201.619 262.69 209.317C269.884 217.015 280.798 225.943 291.478 233.403C302.158 240.844 307.366 249.024 307.366 261.948C307.366 274.849 297.424 285.759 291.231 289.493C291.231 289.493 293.465 283.29 290.483 280.565C287.501 277.817 278.082 272.619 253.987 274.353C229.924 276.096 197.645 287.763 175.807 299.43C175.807 299.43 186.226 283.042 201.87 275.596C201.87 275.596 188.96 275.596 116.911 307.015C139.037 358.042 189.852 393.736 249.041 393.736C328.537 393.736 392.992 329.286 392.992 249.781C392.992 170.277 328.537 105.826 249.041 105.826Z" fill="#E0393D"/>
<path fill-rule="evenodd" clip-rule="evenodd" d="M247.796 212.313C247.796 212.313 239.598 213.047 231.157 208.831C222.72 204.61 209.819 195.178 198.643 205.597C198.643 205.597 208.076 204.376 207.332 206.845C206.585 209.318 205.598 223.718 218.504 229.182C231.4 234.646 246.301 230.664 247.796 212.313Z" fill="#E0393D"/>
</svg>
