<svg width="500" height="500" viewBox="0 0 500 500" fill="none" xmlns="http://www.w3.org/2000/svg">
<path fill-rule="evenodd" clip-rule="evenodd" d="M473.031 235.862C473.031 176.142 449.782 119.991 407.566 77.7591C371.105 41.2895 324.266 18.9833 273.713 13.5738C272.541 12.409 271.224 11.333 269.736 10.3775C251.84 -1.13496 236.903 7.41801 226.549 12.4513C225.805 12.8128 224.926 13.244 223.954 13.7429C204.464 15.971 185.732 20.7273 168.083 27.6589C165.997 24.5324 163.588 21.5877 160.87 18.8692C150.07 8.06487 135.71 2.11415 120.438 2.11415C88.9049 2.11415 63.2527 27.7752 63.2527 59.3193C63.2527 72.5398 67.7137 85.0691 75.9087 95.2075C44.7178 133.649 26.0011 182.606 26.0011 235.862C26.0011 295.585 49.2506 351.733 91.4683 393.965C112.087 414.593 136.032 430.68 162.087 441.755C160.629 453.574 162.552 461.59 164.706 464.877C161.422 467.64 160.038 469.369 159.522 472.481C154.338 479.565 166.95 488.551 172.132 492.527C182.776 500.687 188.369 499.267 196.664 498.92C206.898 498.493 216.528 486.475 222.056 478.702C233.114 477.146 235.188 478.876 235.532 480.254C238.987 479.738 243.824 478.876 250.39 476.109C265.32 469.82 261.1 462.11 259.544 460.728C259.143 460.372 258.811 459.871 258.503 459.263C293.935 457.872 327.9 448.262 358.208 431.338C359.277 432.538 360.389 433.906 361.471 435.498C364.752 440.337 366.479 456.06 367.17 464.184C367.863 472.306 369.243 477.838 373.218 490.625C377.189 503.414 378.746 494.081 378.917 490.625C379.091 487.169 379.782 474.726 379.264 465.742C378.746 456.753 378.575 443.791 380.301 438.265C382.028 432.731 378.917 431.35 378.055 430.312C377.189 429.274 378.055 428.932 375.809 421.846C375.684 421.449 375.583 421.034 375.494 420.614C386.865 412.82 397.607 403.928 407.564 393.967C449.782 351.735 473.031 295.585 473.031 235.862Z" fill="#FEFEFE"/>
<path fill-rule="evenodd" clip-rule="evenodd" d="M473.031 235.862C473.031 176.142 449.782 119.991 407.566 77.7591C371.105 41.2896 324.266 18.9833 273.713 13.5738C272.541 12.409 271.224 11.333 269.736 10.3775C251.84 -1.13496 236.903 7.41801 226.549 12.4513C225.805 12.8128 224.926 13.244 223.954 13.7429C204.464 15.971 185.732 20.7273 168.083 27.6589C165.997 24.5324 163.588 21.5877 160.87 18.8692C150.07 8.06487 135.71 2.11415 120.438 2.11415C88.9049 2.11415 63.2527 27.7752 63.2527 59.3193C63.2527 72.5398 67.7137 85.0691 75.9087 95.2075C44.7178 133.649 26.0011 182.606 26.0011 235.862C26.0011 295.585 49.2506 351.733 91.4683 393.965C112.087 414.593 136.032 430.68 162.087 441.755C160.629 453.574 162.552 461.59 164.706 464.877C161.422 467.64 160.038 469.369 159.522 472.481C154.338 479.565 166.95 488.551 172.132 492.527C182.776 500.687 188.369 499.267 196.664 498.92C206.898 498.493 216.528 486.475 222.056 478.702C233.114 477.146 235.188 478.876 235.532 480.254C238.987 479.738 243.824 478.876 250.39 476.109C265.32 469.82 261.1 462.11 259.544 460.728C259.143 460.372 258.811 459.871 258.503 459.263C293.935 457.872 327.9 448.262 358.208 431.338C359.277 432.538 360.389 433.906 361.471 435.498C364.752 440.337 366.479 456.06 367.17 464.184C367.863 472.306 369.243 477.838 373.218 490.625C377.189 503.414 378.746 494.081 378.917 490.625C379.091 487.169 379.782 474.726 379.264 465.742C378.746 456.753 378.575 443.791 380.301 438.265C382.028 432.731 378.917 431.35 378.055 430.312C377.189 429.274 378.055 428.932 375.809 421.846C375.684 421.449 375.583 421.034 375.494 420.614C386.865 412.82 397.607 403.928 407.564 393.967C449.782 351.735 473.031 295.585 473.031 235.862Z" fill="#051821"/>
<path fill-rule="evenodd" clip-rule="evenodd" d="M196.663 444.485C204.956 444.136 216.527 441.547 221.798 439.299C222.491 439.473 223.613 440.162 225.342 440.855C226.031 435.323 222.491 423.832 220.502 418.562C219.182 415.059 217.912 412.685 216.356 409.058C211.692 408.193 205.904 405.686 201.76 403.957C201.76 407.244 202.363 415.799 203.056 421.498C201.329 421.671 198.91 421.845 195.972 421.845C196.315 428.066 197.008 439.299 196.663 444.485Z" fill="#008348"/>
<path fill-rule="evenodd" clip-rule="evenodd" d="M196.663 444.485C204.956 444.136 216.527 441.547 221.798 439.299C222.491 439.473 223.613 440.162 225.342 440.855C226.031 435.323 222.491 423.832 220.502 418.562C219.182 415.059 217.912 412.685 216.356 409.058C211.692 408.193 205.904 405.686 201.76 403.957C201.76 407.244 202.363 415.799 203.056 421.498C201.329 421.671 198.91 421.845 195.972 421.845C196.315 428.066 197.008 439.299 196.663 444.485Z" stroke="#008348" stroke-width="1.05697"/>
<path fill-rule="evenodd" clip-rule="evenodd" d="M353.006 426.166C351.45 424.61 354.903 419.773 356.461 410.785C358.016 401.798 358.187 386.764 351.624 378.296C348.428 374.173 346.877 371.573 346.341 369.726C325.878 384.61 302.43 394.495 277.513 398.731C277.213 399.259 276.924 399.718 276.647 400.071C273.019 404.737 265.937 411.476 260.754 414.241C255.572 417.006 249.524 419.08 246.242 420.12C245.553 425.646 244.653 437.98 246.071 442.238C246.591 443.792 252.981 447.595 255.225 451.74C255.462 452.175 255.667 452.596 255.868 453.015C291.122 451.996 324.298 442.534 353.439 426.58C353.289 426.438 353.13 426.29 353.006 426.166Z" fill="#008348"/>
<path fill-rule="evenodd" clip-rule="evenodd" d="M353.006 426.166C351.45 424.61 354.903 419.773 356.461 410.785C358.016 401.798 358.187 386.764 351.624 378.296C348.428 374.173 346.877 371.573 346.341 369.726C325.878 384.61 302.43 394.495 277.513 398.731C277.213 399.259 276.924 399.718 276.647 400.071C273.019 404.737 265.937 411.476 260.754 414.241C255.572 417.006 249.524 419.08 246.242 420.12C245.553 425.646 244.653 437.98 246.071 442.238C246.591 443.792 252.981 447.595 255.225 451.74C255.462 452.175 255.667 452.596 255.868 453.015C291.122 451.996 324.298 442.534 353.439 426.58C353.289 426.438 353.13 426.29 353.006 426.166Z" stroke="#008348" stroke-width="1.05697"/>
<path fill-rule="evenodd" clip-rule="evenodd" d="M403.082 82.2449C369.025 48.1746 325.645 26.8303 278.701 20.5603C282.46 28.0035 283.045 36.5607 283.386 41.9998C290.125 39.0636 295.304 37.5077 298.07 33.0156C300.834 28.5214 304.636 29.386 307.051 32.6711C309.473 35.954 309.473 40.1015 303.081 44.0736C296.688 48.0499 292.022 49.9525 290.642 50.6416C289.258 51.3328 290.469 52.542 292.022 55.1358C293.578 57.7254 297.533 64.1306 298.241 77.6027C298.25 77.7295 298.254 77.8648 298.258 77.9959C323.657 85.8132 346.93 99.7567 366.253 119.087C397.444 150.29 414.62 191.774 414.62 235.898C414.62 261.24 408.944 285.709 398.209 307.863C399.642 308.601 401.579 313.617 402.239 320.231C402.587 323.686 402.414 327.489 401.376 329.909C400.341 332.327 392.19 344.565 388.076 348.224C386.521 349.609 382.892 349.435 381.337 347.19C379.782 344.943 379.61 346.152 378.402 347.362C377.189 348.573 373.045 354.621 372.007 356.175C370.97 357.73 367.514 359.286 369.763 365.51C372.007 371.729 374.6 376.397 373.734 379.853C372.871 383.309 372.527 384.345 377.189 388.319C381.855 392.293 381.684 397.132 379.61 400.244C378.313 402.191 376.269 407.389 375.475 412.743C430.653 373.31 466.691 308.719 466.691 235.862C466.691 177.835 444.101 123.278 403.082 82.2449Z" fill="#008348"/>
<path fill-rule="evenodd" clip-rule="evenodd" d="M403.082 82.2449C369.025 48.1746 325.645 26.8303 278.701 20.5603C282.46 28.0035 283.045 36.5607 283.386 41.9998C290.125 39.0636 295.304 37.5077 298.07 33.0156C300.834 28.5214 304.636 29.386 307.051 32.6711C309.473 35.954 309.473 40.1015 303.081 44.0736C296.688 48.0499 292.022 49.9525 290.642 50.6416C289.258 51.3328 290.469 52.542 292.022 55.1358C293.578 57.7254 297.533 64.1306 298.241 77.6027C298.25 77.7295 298.254 77.8648 298.258 77.9959C323.657 85.8132 346.93 99.7567 366.253 119.087C397.444 150.29 414.62 191.774 414.62 235.898C414.62 261.24 408.944 285.709 398.209 307.863C399.642 308.601 401.579 313.617 402.239 320.231C402.587 323.686 402.414 327.489 401.376 329.909C400.341 332.327 392.19 344.565 388.076 348.224C386.521 349.609 382.892 349.435 381.337 347.19C379.782 344.943 379.61 346.152 378.402 347.362C377.189 348.573 373.045 354.621 372.007 356.175C370.97 357.73 367.514 359.286 369.763 365.51C372.007 371.729 374.6 376.397 373.734 379.853C372.871 383.309 372.527 384.345 377.189 388.319C381.855 392.293 381.684 397.132 379.61 400.244C378.313 402.191 376.269 407.389 375.475 412.743C430.653 373.31 466.691 308.719 466.691 235.862C466.691 177.835 444.101 123.278 403.082 82.2449Z" stroke="#008348" stroke-width="1.05697"/>
<path fill-rule="evenodd" clip-rule="evenodd" d="M153.645 396.268C153.032 390.417 152.147 379.83 156.242 372.281C147.903 366.55 140.021 360.018 132.711 352.706C101.52 321.505 84.3443 280.021 84.3443 235.899C84.3443 188.652 104.278 145.978 136.171 115.842C136.473 115.204 136.853 114.584 137.32 113.997C131.921 115.658 126.247 116.523 120.438 116.523C105.221 116.523 90.9121 110.614 80.1242 99.8863C49.1678 138.328 32.3403 185.799 32.3403 235.863C32.3403 293.89 54.9305 348.447 95.95 389.482C115.613 409.152 138.39 424.574 163.161 435.312C164.122 430.685 165.553 425.622 167.638 420.12C169.538 415.105 166.603 403.527 161.768 397.477C159.175 396.788 155.893 396.441 153.645 396.268Z" fill="#008348"/>
<path fill-rule="evenodd" clip-rule="evenodd" d="M153.645 396.268C153.032 390.417 152.147 379.83 156.242 372.281C147.903 366.55 140.021 360.018 132.711 352.706C101.52 321.505 84.3443 280.021 84.3443 235.899C84.3443 188.652 104.278 145.978 136.171 115.842C136.473 115.204 136.853 114.584 137.32 113.997C131.921 115.658 126.247 116.523 120.438 116.523C105.221 116.523 90.9121 110.614 80.1242 99.8863C49.1678 138.328 32.3403 185.799 32.3403 235.863C32.3403 293.89 54.9305 348.447 95.95 389.482C115.613 409.153 138.39 424.574 163.161 435.312C164.122 430.685 165.553 425.622 167.638 420.12C169.538 415.105 166.603 403.527 161.768 397.477C159.175 396.788 155.893 396.441 153.645 396.268Z" stroke="#008348" stroke-width="1.05697"/>
<path fill-rule="evenodd" clip-rule="evenodd" d="M211.232 21.9659C197.519 24.3906 184.151 28.1217 171.271 33.0894C175.415 41.1012 177.621 50.0389 177.621 59.3191C177.621 71.6243 173.758 83.3333 166.614 93.0701C178.566 86.1026 191.461 80.5852 205.065 76.7802C205.947 75.9177 206.834 75.0869 207.72 74.3174C202.709 66.0224 195.972 52.7151 201.845 34.7425C203.502 29.6733 207.141 25.4179 211.232 21.9659Z" fill="#008348"/>
<path fill-rule="evenodd" clip-rule="evenodd" d="M211.232 21.9659C197.519 24.3906 184.151 28.1217 171.271 33.0894C175.415 41.1012 177.621 50.0389 177.621 59.3191C177.621 71.6243 173.758 83.3333 166.614 93.0701C178.566 86.1026 191.461 80.5852 205.065 76.7802C205.947 75.9177 206.834 75.0869 207.72 74.3174C202.709 66.0223 195.972 52.7151 201.845 34.7425C203.502 29.6733 207.141 25.4179 211.232 21.9659Z" stroke="#008348" stroke-width="1.05697"/>
<path fill-rule="evenodd" clip-rule="evenodd" d="M298.07 87.4502C302.908 89.8707 308.313 95.1323 306.187 104.903C305.325 108.881 302.003 112.701 301.697 114.238C301.179 116.83 295.737 121.235 294.009 124.691C292.295 128.118 292.027 131.035 292.53 132.513C292.532 132.53 292.536 132.545 292.542 132.555C295.304 135.147 301.523 138.605 304.979 139.814C307.679 140.757 307.489 141.487 306.363 143.269C308.262 143.442 309.241 144.613 311.027 146.727C312.926 148.974 317.937 147.592 321.047 146.036C324.154 144.48 328.129 143.96 331.239 147.763C334.348 151.566 339.012 158.65 341.26 165.218C343.504 171.783 345.922 177.14 346.615 178.178C347.306 179.214 344.195 198.225 343.331 205.828C342.467 213.43 341.776 216.715 341.605 217.924C341.431 219.133 346.44 213.603 346.615 220.171C346.75 225.412 349.199 242.207 352.027 254.65C352.741 257.816 353.481 260.691 354.214 263.031C356.289 263.376 358.016 267.523 359.222 273.916C360.433 280.311 363.024 284.285 363.197 287.397C363.371 290.506 364.235 291.024 365.27 291.544C366.306 292.062 365.961 293.618 362.853 297.245C363.544 297.765 364.579 298.803 365.27 299.492C366.135 298.628 368.554 295.865 368.554 295.865C368.554 295.865 378.055 299.666 380.126 300.357C382.201 301.046 384.663 295.928 390.838 298.628C392.522 299.368 394.395 301.708 395.722 304.01C405.398 283.304 410.816 260.224 410.816 235.899C410.816 192.79 394.035 152.261 363.563 121.778C344.971 103.178 322.634 89.6889 298.259 81.9899C298.197 84.3618 298.07 86.611 298.07 87.4502Z" fill="#FEFEFE"/>
<path fill-rule="evenodd" clip-rule="evenodd" d="M347.995 359.287C345.58 358.075 344.003 359.83 342.813 350.3C342.467 347.535 340.223 343.906 338.494 342.179C336.765 340.449 336.558 337.215 337.456 334.404C338.838 330.081 339.187 326.106 339.012 322.65C338.838 319.196 339.532 314.875 344.367 312.799C342.64 310.899 341.776 308.48 341.26 306.58C334.175 304.244 332.761 304.045 331.324 300.617C328.911 294.86 327.425 286.453 326.702 281.872C326.343 279.619 326.115 277.526 326.056 275.647C323.784 271.356 318.752 261.815 314.858 254.651C313.417 251.964 312.132 249.629 311.198 247.995C307.743 241.947 311.198 233.996 312.926 229.331C314.655 224.665 316.037 220.518 314.479 215.852C312.926 211.185 312.926 210.149 312.582 208.248C312.235 206.348 310.68 203.925 308.609 210.495C306.534 217.061 302.561 226.739 300.315 236.761C299.038 242.458 298.155 248.656 298.451 254.651C298.677 259.217 299.583 263.667 301.523 267.694C306.014 277.027 311.371 285.669 310.68 290.852C309.989 296.038 308.856 296.211 308.78 297.074C307.918 307.096 303.599 326.28 301.352 331.81C299.106 337.34 290.296 357.386 288.396 365.853C286.938 372.34 282.948 386.229 279.531 394.469C305.384 389.577 329.082 378.504 349.009 362.836C349.597 361.386 349.495 360.037 347.995 359.287Z" fill="#FEFEFE"/>
<path fill-rule="evenodd" clip-rule="evenodd" d="M155.996 132.514C157.909 135 160.405 137.283 163.667 138.951C172.131 143.269 173.859 146.379 173.859 153.812C173.859 161.242 175.241 176.452 177.661 179.041C179.214 177.488 180.943 175.241 181.287 174.549C183.705 179.041 188.578 187.36 196.316 192.522C196.836 192.867 196.602 194.773 197.872 195.114C200.462 195.805 217.222 198.397 217.738 201.855C221.195 198.397 226.721 189.757 227.761 186.819C228.796 183.882 234.842 174.549 239.335 169.366C239.335 167.292 239.335 166.081 239.508 165.561C238.295 166.599 236.395 169.193 233.631 170.402C230.867 171.611 221.195 175.761 214.283 179.215C211.867 180.424 207.548 181.806 205.819 169.193C204.093 156.575 205.819 150.009 207.028 147.072C208.239 144.134 210.483 141.542 214.803 142.754C219.122 143.961 226.032 146.555 227.932 146.555C228.277 145.17 229.485 142.578 224.819 142.06C221.502 141.692 212.848 139.223 207.943 132.514C205.957 129.827 204.585 126.424 204.437 122.187C194.592 123.743 171.957 126.681 166.949 127.888C161.939 129.1 157.693 130.127 156.066 118.731C155.375 113.89 154.166 107.153 157.621 109.573C160.385 107.497 164.213 105.056 170.922 106.117C172.15 106.309 173.682 107.343 174.164 108.297C174.538 109.975 173.817 112.719 172.995 115.275C171.505 119.906 168.591 123.223 178.005 121.063C187.864 118.801 200.378 116.915 203.658 116.226C204.093 112.854 206.855 107.671 210.137 103.866C213.435 100.05 213.938 96.9553 214.112 95.7461C214.283 94.537 213.146 94.2664 211.519 95.7461C209.621 97.4732 203.918 100.932 198.565 99.5449C196.496 99.0143 193.899 95.0549 192.519 92.8078C193.652 90.4338 196.517 86.3349 200.036 82.2022C181.644 88.1022 164.43 97.3105 149.12 109.525C149.023 111.44 149.272 115.9 150.538 120.805C151.385 124.096 152.953 128.559 155.996 132.514Z" fill="#FEFEFE"/>
<path fill-rule="evenodd" clip-rule="evenodd" d="M167.986 368.617C175.068 365.854 180.653 365.985 186.124 373.284C187.679 375.358 188.888 381.408 202.191 376.049C195.107 367.581 190.86 357.544 186.991 344.078C180.873 322.808 167.038 298.629 172.13 287.571C169.195 284.804 165.74 274.088 162.114 275.299C159.673 276.113 156.239 276.164 159.001 268.04C160.246 264.387 162.296 259.961 166.171 254.65C170.907 248.173 178.377 240.375 190.443 231.059C191.481 230.194 191.652 229.505 190.961 228.812C189.752 227.603 188.544 226.22 187.335 225.529C186.124 224.838 184.915 225.182 183.878 226.22C182.844 227.256 181.114 228.469 180.078 229.159C179.043 229.848 170.751 221.728 166.433 215.851C162.114 209.977 157.621 208.076 156.239 207.383C157.966 205.482 161.869 201.358 160.385 201.855C157.792 202.717 153.253 203.295 148.638 198.397C142.934 192.349 145.181 189.239 143.972 188.374C142.763 187.512 136.544 188.892 131.882 181.633C127.214 174.376 125.348 171.222 129.116 166.081C131.016 163.489 131.709 162.28 131.187 158.995C130.669 155.712 131.187 153.638 135.509 149.491C139.828 145.343 142.419 141.542 144.319 141.887C145.827 142.164 141.459 136.67 138.814 132.514C138.127 131.402 137.556 130.402 137.235 129.618C136.55 127.943 135.466 125.066 135.217 121.969C104.863 152.429 88.1473 192.879 88.1473 235.898C88.1473 279.005 104.928 319.533 135.401 350.016C142.548 357.166 150.255 363.552 158.411 369.156C161.953 365.304 166.163 366.795 167.986 368.617Z" fill="#FEFEFE"/>
<path fill-rule="evenodd" clip-rule="evenodd" d="M76.1858 27.7843C90.3506 31.4139 100.959 42.8672 105.621 49.2597C106.81 50.8874 108.04 50.6422 108.558 49.433C109.657 46.8646 111.669 38.5442 111.669 32.1516C111.669 17.6353 113.657 11.8938 117.286 5.15462C100.344 6.08686 85.4733 14.8005 76.1858 27.7843Z" fill="#A63731"/>
<path fill-rule="evenodd" clip-rule="evenodd" d="M76.1858 27.7843C90.3506 31.4139 100.959 42.8672 105.621 49.2597C106.81 50.8874 108.04 50.6422 108.558 49.433C109.657 46.8646 111.669 38.5442 111.669 32.1516C111.669 17.6353 113.657 11.8938 117.286 5.15462C100.344 6.08686 85.4733 14.8005 76.1858 27.7843Z" stroke="#A63731" stroke-width="1.05697"/>
<path fill-rule="evenodd" clip-rule="evenodd" d="M67.6317 72.2502C94.2349 74.6707 102.51 59.8013 104.239 57.5541C105.967 55.3091 103.894 53.9245 103.032 52.7154C98.4317 46.2742 88.1319 34.8759 73.9671 31.2484C68.9968 39.4441 66.0912 49.0202 66.0912 59.3066C66.0912 63.7691 66.6153 68.1006 67.6317 72.2502Z" fill="#A63731"/>
<path fill-rule="evenodd" clip-rule="evenodd" d="M67.6317 72.2502C94.2349 74.6707 102.51 59.8013 104.239 57.5541C105.967 55.3091 103.894 53.9245 103.032 52.7154C98.4317 46.2742 88.1319 34.8759 73.9671 31.2484C68.9968 39.4441 66.0912 49.0202 66.0912 59.3066C66.0912 63.7691 66.6153 68.1006 67.6317 72.2502Z" stroke="#A63731" stroke-width="1.05697"/>
<path fill-rule="evenodd" clip-rule="evenodd" d="M173.188 71.2108C161.96 66.5432 148.637 70.8599 139.136 79.1571C129.635 87.45 124.802 93.8235 121.516 113.523C121.112 113.532 120.711 113.538 120.307 113.538C106.231 113.538 93.4502 108.173 83.8119 99.3726C100.052 95.2251 113.741 87.7967 129.117 73.2803C144.493 58.764 152.092 41.8292 154.167 33.8787C156.24 25.9304 153.3 30.5958 151.747 34.2233C149.34 39.8379 141.382 54.9631 125.662 69.6528C109.94 84.3404 97.8562 91.5891 81.4451 97.1191C75.9676 91.4897 71.7518 84.6681 69.1208 77.0854C74.649 77.4279 92.0618 75.4217 100.785 68.2682C112.247 58.8696 113.568 47.7039 115.123 31.805C116.676 15.9061 119.009 11.1793 122.809 5.12926C151.587 6.43778 174.517 30.1942 174.517 59.3072C174.517 63.3977 174.048 67.3782 173.188 71.2108Z" fill="#A63731"/>
<path fill-rule="evenodd" clip-rule="evenodd" d="M173.188 71.2108C161.96 66.5432 148.637 70.8599 139.136 79.1571C129.635 87.45 124.802 93.8235 121.516 113.523C121.112 113.532 120.711 113.538 120.307 113.538C106.231 113.538 93.4502 108.173 83.8119 99.3726C100.052 95.2251 113.741 87.7967 129.117 73.2803C144.493 58.764 152.092 41.8292 154.167 33.8787C156.24 25.9304 153.3 30.5958 151.747 34.2233C149.34 39.8379 141.382 54.9631 125.662 69.6528C109.94 84.3404 97.8562 91.5891 81.4451 97.1191C75.9676 91.4897 71.7518 84.6681 69.1208 77.0854C74.649 77.4279 92.0618 75.4217 100.785 68.2682C112.247 58.8696 113.568 47.7039 115.123 31.805C116.676 15.9061 119.009 11.1793 122.809 5.12926C151.587 6.43778 174.517 30.1942 174.517 59.3072C174.517 63.3977 174.048 67.3782 173.188 71.2108Z" stroke="#A63731" stroke-width="1.05697"/>
<path fill-rule="evenodd" clip-rule="evenodd" d="M171.689 76.6474C169.098 73.0199 159.857 71.278 145.183 80.4504C143.801 81.315 142.847 81.9195 144.492 83.5642C147.602 86.6738 152.272 92.559 155.556 100.509C162.893 94.2205 168.531 86.0058 171.689 76.6474Z" fill="#A63731"/>
<path fill-rule="evenodd" clip-rule="evenodd" d="M171.689 76.6474C169.098 73.0199 159.857 71.278 145.183 80.4504C143.801 81.315 142.847 81.9195 144.492 83.5642C147.602 86.6738 152.272 92.559 155.556 100.509C162.893 94.2205 168.531 86.0058 171.689 76.6474Z" stroke="#A63731" stroke-width="1.05697"/>
<path fill-rule="evenodd" clip-rule="evenodd" d="M151.225 103.864C148.117 96.2583 145.528 90.7346 142.591 86.9338C141.008 84.8833 140.691 83.9975 137.753 86.5871C129.588 93.7935 126.437 104.72 124.711 113.362C134.516 112.574 143.588 109.179 151.225 103.864Z" fill="#A63731"/>
<path fill-rule="evenodd" clip-rule="evenodd" d="M151.225 103.864C148.117 96.2583 145.528 90.7346 142.591 86.9338C141.008 84.8833 140.691 83.9975 137.753 86.5871C129.588 93.7935 126.437 104.72 124.711 113.362C134.516 112.574 143.588 109.179 151.225 103.864Z" stroke="#A63731" stroke-width="1.05697"/>
<path fill-rule="evenodd" clip-rule="evenodd" d="M217.825 443.791C218.949 443.273 220.503 442.584 221.196 443.1C221.885 443.618 226.031 446.559 228.622 448.806C231.212 451.051 232.077 451.74 230.006 452.951C227.933 454.16 226.031 455.369 226.377 454.334C226.722 453.298 227.242 451.74 225.857 450.359C224.478 448.977 221.088 446.358 219.638 445.174C218.689 444.398 217.825 443.791 217.825 443.791Z" fill="#BB9653"/>
<path fill-rule="evenodd" clip-rule="evenodd" d="M217.825 443.791C218.949 443.273 220.503 442.584 221.196 443.1C221.885 443.618 226.031 446.559 228.622 448.806C231.212 451.051 232.077 451.74 230.006 452.951C227.933 454.16 226.031 455.369 226.377 454.334C226.722 453.298 227.242 451.74 225.857 450.359C224.478 448.977 221.088 446.358 219.638 445.174C218.689 444.398 217.825 443.791 217.825 443.791Z" stroke="#051821" stroke-width="1.05697"/>
<path fill-rule="evenodd" clip-rule="evenodd" d="M208.063 446.644C207.201 447.422 207.028 448.716 208.063 449.754C209.103 450.79 214.889 455.631 215.84 456.582C216.791 457.531 218.17 457.878 219.726 457.531C221.281 457.184 217.913 459.434 216.615 459.689C215.32 459.949 213.853 459.949 212.469 458.656C211.087 457.358 203.315 450.012 201.759 448.543C200.204 447.076 202.19 447.076 203.572 446.904C204.954 446.733 206.165 446.816 208.063 446.644Z" fill="#BB9653"/>
<path fill-rule="evenodd" clip-rule="evenodd" d="M208.063 446.644C207.201 447.422 207.028 448.716 208.063 449.754C209.103 450.79 214.889 455.631 215.84 456.582C216.791 457.531 218.17 457.878 219.726 457.531C221.281 457.184 217.913 459.434 216.615 459.689C215.32 459.949 213.853 459.949 212.469 458.656C211.087 457.358 203.315 450.012 201.759 448.543C200.204 447.076 202.19 447.076 203.572 446.904C204.954 446.733 206.165 446.816 208.063 446.644Z" stroke="#051821" stroke-width="1.05697"/>
<path fill-rule="evenodd" clip-rule="evenodd" d="M198.39 402.404C198.916 403.987 199.083 405.426 196.663 405.082C194.244 404.737 184.056 403.786 181.114 403.786C180.423 403.786 180.683 402.057 179.648 402.75C178.61 403.441 179.043 404.995 179.043 406.724C179.043 408.452 178.9 409.492 178.954 410.701C179.043 412.512 180.165 415.019 184.829 415.277C189.493 415.535 193.899 415.02 195.281 414.07C196.663 413.117 195.194 411.563 193.899 411.563C192.604 411.563 184.829 412.168 183.187 411.563C181.547 410.959 180.484 409.069 181.634 408.28C183.016 407.329 185.693 408.54 188.369 408.54C191.048 408.54 193.899 407.847 194.592 408.28C195.281 408.712 196.23 408.54 196.23 411.823C196.23 412.512 197.872 412.772 198.647 412.772C199.427 412.772 199.774 414.07 199.687 415.797C199.601 417.525 199.774 417.869 196.663 417.869C193.553 417.869 180.165 417.698 178.177 417.698C177.401 417.698 177.313 417.093 177.228 415.535C177.141 413.982 176.624 403.181 176.452 402.319C176.279 401.454 178.525 401.366 180.337 401.712C182.15 402.057 184.398 402.404 187.333 402.579C190.271 402.75 194.763 403.181 194.763 403.181C194.763 403.181 197.01 403.441 197.268 402.75C197.527 402.057 198.216 401.886 198.39 402.404Z" fill="#BB9653"/>
<path fill-rule="evenodd" clip-rule="evenodd" d="M198.39 402.404C198.916 403.987 199.083 405.426 196.663 405.082C194.244 404.737 184.056 403.786 181.114 403.786C180.423 403.786 180.683 402.057 179.648 402.75C178.61 403.441 179.043 404.995 179.043 406.724C179.043 408.452 178.9 409.492 178.954 410.701C179.043 412.512 180.165 415.019 184.829 415.277C189.493 415.535 193.899 415.02 195.281 414.07C196.663 413.117 195.194 411.563 193.899 411.563C192.604 411.563 184.829 412.168 183.187 411.563C181.547 410.959 180.484 409.069 181.634 408.28C183.016 407.329 185.693 408.54 188.369 408.54C191.048 408.54 193.899 407.847 194.592 408.28C195.281 408.712 196.23 408.54 196.23 411.823C196.23 412.512 197.872 412.772 198.647 412.772C199.427 412.772 199.774 414.07 199.687 415.797C199.601 417.525 199.774 417.869 196.663 417.869C193.553 417.869 180.165 417.698 178.177 417.698C177.401 417.698 177.313 417.093 177.228 415.535C177.141 413.982 176.624 403.181 176.452 402.319C176.279 401.454 178.525 401.366 180.337 401.712C182.15 402.057 184.398 402.404 187.333 402.579C190.271 402.75 194.763 403.181 194.763 403.181C194.763 403.181 197.01 403.441 197.268 402.75C197.527 402.057 198.216 401.886 198.39 402.404Z" stroke="#051821" stroke-width="1.05697"/>
<path fill-rule="evenodd" clip-rule="evenodd" d="M136.372 164.524C134.126 163.835 132.399 166.425 131.359 168.501C130.324 170.574 129.115 172.822 132.399 177.487C135.681 182.155 137.722 184.93 143.455 184.573C146.219 184.4 148.637 182.326 149.501 181.117C150.366 179.905 150.537 181.981 149.155 184.055C147.775 186.129 146.739 190.965 149.328 194.251C151.921 197.533 157.276 200.298 164.357 196.151C171.441 192.003 174.38 186.991 175.587 184.744C176.795 182.497 176.795 181.461 175.587 180.081C174.38 178.696 170.403 172.12 169.539 159.168C169.023 151.393 170.405 146.378 165.566 143.616C160.731 140.853 149.664 134.306 148.292 121.495C147.775 116.654 148.119 109.224 143.28 113.2C138.445 117.174 138.445 119.939 137.927 122.876C137.407 125.814 139.827 129.79 141.9 132.555C143.973 135.32 146.391 141.368 148.292 142.924C150.192 144.48 151.401 145.689 152.958 145.863C154.51 146.036 160.731 146.036 162.284 146.554C163.839 147.074 164.706 148.974 160.902 148.974C157.1 148.974 151.23 150.01 148.637 150.355C146.046 150.699 143.629 150.875 142.42 156.058C141.209 161.241 139.483 167.292 139.309 169.192C139.136 171.095 138.1 172.132 138.1 173.166C138.1 174.204 140.171 179.214 144.837 174.204C149.501 169.192 151.401 164.18 152.265 161.762C153.13 159.343 154.167 159.688 153.301 163.489C152.439 167.292 152.179 176.796 153.992 180.081C155.942 183.607 159.883 187.243 164.877 184.744C165.912 184.226 167.639 183.364 169.023 183.535C170.405 183.708 168.763 186.129 167.552 187.165C166.343 188.203 162.371 192.6 155.374 186.302C153.645 184.744 151.249 181.286 150.71 176.967C150.537 175.587 148.637 175.067 147.775 176.278C146.91 177.487 142.247 181.808 138.963 178.696C135.681 175.587 134.322 173.864 136.199 167.292C136.545 166.082 137.213 164.787 136.372 164.524Z" fill="#FAB283"/>
<path fill-rule="evenodd" clip-rule="evenodd" d="M136.372 164.524C134.126 163.835 132.399 166.425 131.359 168.501C130.324 170.574 129.115 172.822 132.399 177.487C135.681 182.155 137.722 184.93 143.455 184.573C146.219 184.4 148.637 182.326 149.501 181.117C150.366 179.905 150.537 181.981 149.155 184.055C147.775 186.129 146.739 190.965 149.328 194.251C151.921 197.533 157.276 200.298 164.357 196.151C171.441 192.003 174.38 186.991 175.587 184.744C176.795 182.497 176.795 181.461 175.587 180.081C174.38 178.696 170.403 172.12 169.539 159.168C169.023 151.393 170.405 146.378 165.566 143.616C160.731 140.853 149.664 134.306 148.292 121.495C147.775 116.654 148.119 109.224 143.28 113.2C138.445 117.174 138.445 119.939 137.927 122.876C137.407 125.814 139.827 129.79 141.9 132.555C143.973 135.32 146.391 141.368 148.292 142.924C150.192 144.48 151.401 145.689 152.958 145.863C154.51 146.036 160.731 146.036 162.284 146.554C163.839 147.074 164.706 148.974 160.902 148.974C157.1 148.974 151.23 150.01 148.637 150.355C146.046 150.699 143.629 150.875 142.42 156.058C141.209 161.241 139.483 167.292 139.309 169.192C139.136 171.095 138.1 172.132 138.1 173.166C138.1 174.204 140.171 179.214 144.837 174.204C149.501 169.192 151.401 164.18 152.265 161.762C153.13 159.343 154.167 159.688 153.301 163.489C152.439 167.292 152.179 176.796 153.992 180.081C155.942 183.607 159.883 187.243 164.877 184.744C165.912 184.226 167.639 183.364 169.023 183.535C170.405 183.708 168.763 186.129 167.552 187.165C166.343 188.203 162.371 192.6 155.374 186.302C153.645 184.744 151.249 181.286 150.71 176.967C150.537 175.587 148.637 175.067 147.775 176.278C146.91 177.487 142.247 181.808 138.963 178.696C135.681 175.587 134.322 173.864 136.199 167.292C136.545 166.082 137.213 164.787 136.372 164.524Z" stroke="#FAB283" stroke-width="1.05697" stroke-linecap="round"/>
<path fill-rule="evenodd" clip-rule="evenodd" d="M139.828 154.848C139.084 157.081 138.445 160.032 138.101 161.07C137.752 162.108 136.199 164.353 134.815 161.416C133.437 158.476 133.505 156.161 135.681 153.984C136.372 153.295 137.408 151.91 138.101 152.601C138.79 153.295 139.999 154.33 139.828 154.848Z" fill="#FAB283"/>
<path fill-rule="evenodd" clip-rule="evenodd" d="M139.828 154.848C139.084 157.081 138.445 160.032 138.101 161.07C137.752 162.108 136.199 164.353 134.815 161.416C133.437 158.476 133.505 156.161 135.681 153.984C136.372 153.295 137.408 151.91 138.101 152.601C138.79 153.295 139.999 154.33 139.828 154.848Z" stroke="#FAB283" stroke-width="1.05697" stroke-linecap="round"/>
<path fill-rule="evenodd" clip-rule="evenodd" d="M147.601 146.9C146.175 147.612 143.14 147.606 142.071 150.009C141.382 151.565 138.616 149.838 140 147.937C141.382 146.035 142.42 146.206 143.28 145.69C144.146 145.17 144.493 143.617 146.219 144.479C147.948 145.344 148.292 146.553 147.601 146.9Z" fill="#FAB283"/>
<path fill-rule="evenodd" clip-rule="evenodd" d="M147.601 146.9C146.175 147.612 143.14 147.606 142.071 150.009C141.382 151.565 138.616 149.838 140 147.937C141.382 146.035 142.42 146.206 143.28 145.69C144.146 145.17 144.493 143.617 146.219 144.479C147.948 145.344 148.292 146.553 147.601 146.9Z" stroke="#FAB283" stroke-width="1.05697" stroke-linecap="round"/>
<path fill-rule="evenodd" clip-rule="evenodd" d="M261.445 61.3556C256.61 61.8756 252.12 64.8119 247.625 67.9236C243.134 71.0332 226.894 84.6871 223.095 87.45C227.068 89.5238 228.105 93.6734 226.721 100.586C226.415 102.119 226.721 102.66 227.761 101.622C228.796 100.586 233.631 95.4026 233.46 91.253C233.289 87.1054 231.385 84.6871 231.04 84.1671C230.696 83.6492 232.422 81.5754 234.324 85.8963C236.224 90.2171 235.704 96.2651 230.005 103.004C224.306 109.744 219.813 109.572 217.393 110.781C214.976 111.991 212.556 113.891 214.802 117.521C217.049 121.152 221.366 119.766 223.095 118.559C224.821 117.347 227.241 115.965 232.769 116.485C238.295 117.003 240.136 113.485 236.395 109.744C235.186 108.534 232.078 105.767 235.878 105.767C238.124 105.767 240.886 110.781 242.443 112.164C243.999 113.547 247.452 114.064 252.12 114.411C256.781 114.756 264.038 116.483 264.038 120.979C264.038 123.742 262.55 124.547 260.583 122.362C259.805 121.495 258.698 122.863 257.819 123.742C254.879 126.682 247.365 134.631 242.01 136.011C236.655 137.396 234.667 135.84 227.587 132.037C220.502 128.234 213.938 124.433 212.038 123.224C210.137 122.013 206.164 119.248 208.063 124.78C209.965 130.308 214.629 136.011 223.957 139.123C233.289 142.233 234.667 143.268 236.742 144.306C238.815 145.344 237.604 146.38 234.842 146.036C232.437 145.733 229.834 143.617 231.905 148.281C233.978 152.948 237.088 157.958 246.589 156.749C256.09 155.54 256.365 153.527 262.31 143.617C263.347 141.888 264.383 143.097 263.692 147.591C268.357 145.344 270.946 144.653 273.71 143.962C276.476 143.268 283.661 140.831 288.395 132.037C290.815 127.545 292.121 126.002 291.677 121.324C291.514 119.584 294.096 116.138 296.689 113.718C299.278 111.299 306.361 102.14 302.735 95.5738C299.105 89.0059 293.059 92.2909 290.124 97.1297C287.186 101.968 283.904 107.325 283.731 115.62C281.658 114.931 279.541 115.692 278.55 117.347C278.03 118.212 270.428 117.176 267.838 117.867C265.247 118.559 264.383 117.003 267.147 113.373C269.911 109.744 279.644 96.5949 279.065 86.7587C278.894 83.8225 279.287 83.2813 279.758 81.0575C280.363 78.2058 280.627 78.1593 277.079 76.2187C274.771 74.9567 274.634 71.3566 274.23 68.6149C273.799 65.6765 273.237 65.6659 269.911 66.3678C267.449 66.8899 263.347 64.4673 261.445 61.3556Z" fill="#FAB283"/>
<path fill-rule="evenodd" clip-rule="evenodd" d="M261.445 61.3556C256.61 61.8756 252.12 64.8119 247.625 67.9236C243.134 71.0332 226.894 84.6871 223.095 87.45C227.068 89.5238 228.105 93.6734 226.721 100.586C226.415 102.119 226.721 102.66 227.761 101.622C228.796 100.586 233.631 95.4026 233.46 91.253C233.289 87.1054 231.385 84.6871 231.04 84.1671C230.696 83.6492 232.422 81.5754 234.324 85.8963C236.224 90.2171 235.704 96.2651 230.005 103.004C224.306 109.744 219.813 109.572 217.393 110.781C214.976 111.991 212.556 113.891 214.802 117.521C217.049 121.152 221.366 119.766 223.095 118.559C224.821 117.347 227.241 115.965 232.769 116.485C238.295 117.003 240.136 113.485 236.395 109.744C235.186 108.534 232.078 105.767 235.878 105.767C238.124 105.767 240.886 110.781 242.443 112.164C243.999 113.547 247.452 114.064 252.12 114.411C256.781 114.756 264.038 116.483 264.038 120.979C264.038 123.742 262.55 124.547 260.583 122.362C259.805 121.495 258.698 122.863 257.819 123.742C254.879 126.682 247.365 134.631 242.01 136.011C236.655 137.396 234.667 135.84 227.587 132.037C220.502 128.234 213.938 124.433 212.038 123.224C210.137 122.013 206.164 119.248 208.063 124.78C209.965 130.308 214.629 136.011 223.957 139.123C233.289 142.233 234.667 143.268 236.742 144.306C238.815 145.344 237.604 146.38 234.842 146.036C232.437 145.733 229.834 143.617 231.905 148.281C233.978 152.948 237.088 157.958 246.589 156.749C256.09 155.54 256.365 153.527 262.31 143.617C263.347 141.888 264.383 143.097 263.692 147.591C268.357 145.344 270.946 144.653 273.71 143.962C276.476 143.268 283.661 140.831 288.395 132.037C290.815 127.545 292.121 126.002 291.677 121.324C291.514 119.584 294.096 116.138 296.689 113.718C299.278 111.299 306.361 102.14 302.735 95.5738C299.105 89.0059 293.059 92.2909 290.124 97.1297C287.186 101.968 283.904 107.325 283.731 115.62C281.658 114.931 279.541 115.692 278.55 117.347C278.03 118.212 270.428 117.176 267.838 117.867C265.247 118.559 264.383 117.003 267.147 113.373C269.911 109.744 279.644 96.5949 279.065 86.7587C278.894 83.8225 279.287 83.2813 279.758 81.0575C280.363 78.2058 280.627 78.1593 277.079 76.2187C274.771 74.9567 274.634 71.3566 274.23 68.6149C273.799 65.6765 273.237 65.6659 269.911 66.3678C267.449 66.8899 263.347 64.4673 261.445 61.3556Z" stroke="#FAB283" stroke-width="1.05697"/>
<path fill-rule="evenodd" clip-rule="evenodd" d="M241.235 115.447C240.284 117.607 237.674 119.679 231.645 118.989C228.621 118.643 225.667 118.605 225.168 120.979C224.819 122.619 223.45 122.53 221.54 122.448C219.553 122.361 217.393 121.839 217.307 122.535C217.222 123.224 225.772 128.32 228.621 129.618C231.472 130.914 235.63 134.003 238.986 133.677C243.481 133.246 247.39 131.022 254.02 123.999C256.75 121.108 258.941 119.594 256.348 118.385C254.59 117.563 252.809 117.347 250.476 117.347C248.143 117.347 243.132 117.002 241.235 115.447Z" fill="#FAB283"/>
<path fill-rule="evenodd" clip-rule="evenodd" d="M241.235 115.447C240.284 117.607 237.674 119.679 231.645 118.989C228.621 118.643 225.667 118.605 225.168 120.979C224.819 122.619 223.45 122.53 221.54 122.448C219.553 122.361 217.393 121.839 217.307 122.535C217.222 123.224 225.772 128.32 228.621 129.618C231.472 130.914 235.63 134.003 238.986 133.677C243.481 133.246 247.39 131.022 254.02 123.999C256.75 121.108 258.941 119.594 256.348 118.385C254.59 117.563 252.809 117.347 250.476 117.347C248.143 117.347 243.132 117.002 241.235 115.447Z" stroke="#FAB283" stroke-width="1.05697"/>
<path fill-rule="evenodd" clip-rule="evenodd" d="M209.014 115.534C206.681 115.445 206.424 113.718 207.979 111.127C209.534 108.533 211.003 106.117 213.074 104.561C213.42 105.683 214.111 107.066 215.147 107.67C213.767 109.14 211.941 110.979 212.288 114.61L209.014 115.534Z" fill="#FAB283"/>
<path fill-rule="evenodd" clip-rule="evenodd" d="M209.014 115.534C206.681 115.445 206.424 113.718 207.979 111.127C209.534 108.533 211.003 106.117 213.074 104.561C213.42 105.683 214.111 107.066 215.147 107.67C213.767 109.14 211.941 110.979 212.288 114.61L209.014 115.534Z" stroke="#FAB283" stroke-width="1.05697"/>
<path fill-rule="evenodd" clip-rule="evenodd" d="M247.799 90.0442C248.23 87.6238 247.886 85.6367 244.342 88.4884C241.06 86.07 238.125 83.1317 237.087 82.4383C236.052 81.7492 235.532 80.7112 236.743 79.5021C237.952 78.2908 240.107 80.4195 239.591 76.8237C239.42 75.6145 242.269 76.3925 242.962 76.0458C243.653 75.6991 242.643 74.0227 245.899 74.8366C246.933 75.0945 246.502 73.1095 248.575 73.4541C250.65 73.7987 251.683 74.5787 252.118 72.9341C252.547 71.2937 253.027 70.2684 255.658 71.8982C257.473 73.0207 258.164 72.3295 258.338 71.4649C258.509 70.6024 260.149 71.1203 261.619 71.9849C263.088 72.8495 266.74 74.6633 271.034 79.6754C272.071 80.8846 272.587 82.1783 271.898 82.3537C271.209 82.5271 270.429 82.3537 270.258 83.7363C270.085 85.1188 269.392 86.3279 268.614 84.7721C267.837 83.2183 267.663 85.0321 267.061 83.3917C266.457 81.7492 265.679 83.9963 265.246 82.8717C264.686 81.4152 264.155 83.1169 263.606 81.8358C263.346 81.2291 261.706 82.6116 261.186 81.6625C260.669 80.7112 259.544 82.7004 258.68 81.5758C257.818 80.4512 257.818 82.7871 256.436 82.2671C255.054 81.7492 255.658 83.5629 254.276 82.9583C252.894 82.3537 253.325 84.6854 252.032 84.3408C250.734 83.9963 250.823 84.5987 250.561 86.07C250.303 87.5371 249.699 93.2405 249.786 94.623C249.872 96.0055 252.723 95.6588 257.04 95.0543C261.36 94.4497 269.069 92.0567 272.934 88.8329C274.487 87.5371 275.871 87.6238 276.131 88.0571C276.391 88.4884 275.7 89.8709 274.576 90.8222C273.453 91.7713 270.516 94.7942 263.866 96.0922C257.213 97.388 251.683 98.4239 250.561 98.166C249.439 97.906 250.994 99.8085 252.981 99.373C254.027 99.1489 256.262 103.265 259.891 103.265C262.83 103.265 267.232 99.9797 268.443 99.0306C269.652 98.0793 274.056 96.0922 271.12 99.0306C268.183 101.969 265.072 105.165 261.966 105.252C258.853 105.339 254.105 104.301 250.823 102.056C247.539 99.8085 246.328 98.5972 246.933 95.143C247.539 91.6846 247.628 90.9934 247.799 90.0442Z" fill="#051821"/>
<path fill-rule="evenodd" clip-rule="evenodd" d="M247.799 90.0442C248.23 87.6238 247.886 85.6367 244.342 88.4884C241.06 86.07 238.125 83.1317 237.087 82.4383C236.052 81.7492 235.532 80.7112 236.743 79.5021C237.952 78.2908 240.107 80.4195 239.591 76.8237C239.42 75.6145 242.269 76.3925 242.962 76.0458C243.653 75.6991 242.643 74.0227 245.899 74.8366C246.933 75.0945 246.502 73.1095 248.575 73.4541C250.65 73.7987 251.683 74.5787 252.118 72.9341C252.547 71.2937 253.027 70.2684 255.658 71.8982C257.473 73.0207 258.164 72.3295 258.338 71.4649C258.509 70.6024 260.149 71.1203 261.619 71.9849C263.088 72.8495 266.74 74.6633 271.034 79.6754C272.071 80.8846 272.587 82.1783 271.898 82.3537C271.209 82.5271 270.429 82.3537 270.258 83.7363C270.085 85.1188 269.392 86.3279 268.614 84.7721C267.837 83.2183 267.663 85.0321 267.061 83.3917C266.457 81.7492 265.679 83.9963 265.246 82.8717C264.686 81.4152 264.155 83.1169 263.606 81.8358C263.346 81.2291 261.706 82.6116 261.186 81.6625C260.669 80.7112 259.544 82.7004 258.68 81.5758C257.818 80.4512 257.818 82.7871 256.436 82.2671C255.054 81.7492 255.658 83.5629 254.276 82.9583C252.894 82.3537 253.325 84.6854 252.032 84.3408C250.734 83.9963 250.823 84.5987 250.561 86.07C250.303 87.5371 249.699 93.2405 249.786 94.623C249.872 96.0055 252.723 95.6588 257.04 95.0543C261.36 94.4497 269.069 92.0567 272.934 88.8329C274.487 87.5371 275.871 87.6238 276.131 88.0571C276.391 88.4884 275.7 89.8709 274.576 90.8222C273.453 91.7713 270.516 94.7942 263.866 96.0922C257.213 97.388 251.683 98.4239 250.561 98.166C249.439 97.906 250.994 99.8085 252.981 99.373C254.027 99.1489 256.262 103.265 259.891 103.265C262.83 103.265 267.232 99.9797 268.443 99.0306C269.652 98.0793 274.056 96.0922 271.12 99.0306C268.183 101.969 265.072 105.165 261.966 105.252C258.853 105.339 254.105 104.301 250.823 102.056C247.539 99.8085 246.328 98.5972 246.933 95.143C247.539 91.6846 247.628 90.9934 247.799 90.0442Z" stroke="#FAB283" stroke-width="1.05697"/>
<path fill-rule="evenodd" clip-rule="evenodd" d="M298.07 100.931C296.067 102.349 294.96 102.831 294.789 105.252C294.615 107.67 294.134 111.794 293.231 112.162C292.056 112.644 292.217 109.926 291.851 110.782C291.334 111.989 289.865 111.473 289.434 110.348C289.248 109.864 284.941 109.915 288.396 104.903C291.524 100.364 293.924 97.9924 296.169 96.9545C298.417 95.9186 302.214 97.9924 298.07 100.931Z" fill="#051821"/>
<path fill-rule="evenodd" clip-rule="evenodd" d="M298.07 100.931C296.067 102.349 294.96 102.831 294.789 105.252C294.615 107.67 294.134 111.794 293.231 112.162C292.056 112.644 292.217 109.926 291.851 110.782C291.334 111.989 289.865 111.473 289.434 110.348C289.248 109.864 284.941 109.915 288.396 104.903C291.524 100.364 293.924 97.9924 296.169 96.9545C298.417 95.9186 302.214 97.9924 298.07 100.931Z" stroke="#FAB283" stroke-width="1.05697"/>
<path fill-rule="evenodd" clip-rule="evenodd" d="M251.598 159.687C250.561 162.452 249.179 165.909 248.488 167.638C247.799 169.367 244.614 168.697 244.862 167.462C245.377 164.873 241.685 166.587 242.097 164.524C242.444 162.797 241.751 160.032 243.653 160.032C245.553 160.032 249.179 159.687 251.598 159.687Z" fill="#BB9653"/>
<path fill-rule="evenodd" clip-rule="evenodd" d="M251.598 159.687C250.561 162.452 249.179 165.909 248.488 167.638C247.799 169.367 244.614 168.697 244.862 167.462C245.377 164.873 241.685 166.587 242.097 164.524C242.444 162.797 241.751 160.032 243.653 160.032C245.553 160.032 249.179 159.687 251.598 159.687Z" stroke="#051821" stroke-width="1.05697"/>
<path fill-rule="evenodd" clip-rule="evenodd" d="M273.366 21.263C272.569 21.4469 271.735 21.671 270.879 21.9141C270.875 21.9162 270.87 21.9162 270.868 21.9162C270.868 21.9162 270.866 21.9162 270.866 21.9183C264.655 23.6898 257.084 26.9347 250.404 30.2282L250.338 30.262C249.13 30.8581 247.929 31.467 246.792 32.0567C245.518 32.7205 244.278 33.4012 243.132 34.0333C240.831 35.3101 238.796 36.5045 237.26 37.5086C237.106 37.61 236.934 37.7242 236.774 37.8299C236.763 37.8362 236.755 37.8426 236.746 37.8489C231.82 41.0896 224.773 46.0933 218.619 51.6402L218.558 51.6931C215.263 54.6695 212.246 57.7875 209.959 60.8739H209.957C209.951 60.8823 209.947 60.8908 209.94 60.8971C209.94 60.8992 209.938 60.8992 209.938 60.8992V60.9013C209.095 62.0408 208.336 63.1759 207.719 64.2942C208.1 65.459 208.472 66.535 208.846 67.5454V67.5476C210.369 71.6697 211.916 74.5954 214.074 76.9355V76.9376C214.078 76.9419 214.082 76.9482 214.086 76.9524H214.088C215.008 77.946 216.035 78.8402 217.222 79.6752C219.336 77.4429 221.313 75.4029 223.213 73.511L223.22 73.5046C224.741 71.9889 226.212 70.5684 227.657 69.2281C232.22 64.9918 236.531 61.5271 241.408 58.2463C244.071 56.4557 246.511 54.8365 249.041 53.3483C250.66 52.3949 252.312 51.4965 254.081 50.6403C259.704 47.9218 266.498 45.6472 277.016 43.4868C277.464 43.3938 277.912 43.3029 278.376 43.2098C279.239 33.5323 276.821 26.6218 273.366 21.263Z" fill="#BB9653"/>
<path fill-rule="evenodd" clip-rule="evenodd" d="M273.366 21.263C272.569 21.4469 271.735 21.671 270.879 21.9141C270.875 21.9162 270.87 21.9162 270.868 21.9162C270.868 21.9162 270.866 21.9162 270.866 21.9183C264.655 23.6898 257.084 26.9347 250.404 30.2282L250.338 30.262C249.13 30.8581 247.929 31.467 246.792 32.0567C245.518 32.7205 244.278 33.4012 243.132 34.0333C240.831 35.3101 238.796 36.5045 237.26 37.5086C237.106 37.61 236.934 37.7242 236.774 37.8299C236.763 37.8362 236.755 37.8426 236.746 37.8489C231.82 41.0896 224.773 46.0933 218.619 51.6402L218.558 51.6931C215.263 54.6695 212.246 57.7875 209.959 60.8739H209.957C209.951 60.8823 209.947 60.8908 209.94 60.8971C209.94 60.8992 209.938 60.8992 209.938 60.8992V60.9013C209.095 62.0408 208.336 63.1759 207.719 64.2942C208.1 65.459 208.472 66.535 208.846 67.5454V67.5476C210.369 71.6697 211.916 74.5954 214.074 76.9355V76.9376C214.078 76.9419 214.082 76.9482 214.086 76.9524H214.088C215.008 77.946 216.035 78.8402 217.222 79.6752C219.336 77.4429 221.313 75.4029 223.213 73.511L223.22 73.5046C224.741 71.9889 226.212 70.5684 227.657 69.2281C232.22 64.9918 236.531 61.5271 241.408 58.2463C244.071 56.4557 246.511 54.8365 249.041 53.3483C250.66 52.3949 252.312 51.4965 254.081 50.6403C259.704 47.9218 266.498 45.6472 277.016 43.4868C277.464 43.3938 277.912 43.3029 278.376 43.2098C279.239 33.5323 276.821 26.6218 273.366 21.263Z" stroke="#051821" stroke-width="1.05697"/>
<path fill-rule="evenodd" clip-rule="evenodd" d="M267.643 173.549C267.708 173.595 267.772 173.635 267.837 173.684C277.353 180.516 279.758 176.796 281.142 173.513C282.522 170.23 285.59 160.497 286.495 155.367C287.014 152.428 287.703 149.319 287.359 146.554C281.706 146.192 274.94 147.355 268.511 149.832C267.634 150.171 266.734 150.551 265.872 150.938L265.861 150.944C263.989 151.788 262.157 152.741 260.411 153.811C251.538 159.244 251.253 163.835 253.326 165.562C255.181 167.107 258.974 167.835 265.439 172.048C266.13 172.498 266.85 172.986 267.605 173.523" fill="#BB9653"/>
<path d="M267.643 173.549C267.708 173.595 267.772 173.635 267.837 173.684C277.353 180.516 279.758 176.796 281.142 173.513C282.522 170.23 285.59 160.497 286.495 155.367C287.014 152.428 287.703 149.319 287.359 146.554C281.706 146.192 274.94 147.355 268.511 149.832C267.634 150.171 266.734 150.551 265.872 150.938L265.861 150.944C263.989 151.788 262.157 152.741 260.411 153.811C251.538 159.244 251.253 163.835 253.326 165.562C255.181 167.107 258.974 167.835 265.439 172.048C266.13 172.498 266.85 172.986 267.605 173.523" stroke="#051821" stroke-width="1.05697"/>
<path fill-rule="evenodd" clip-rule="evenodd" d="M212.556 176.967C213.65 176.547 216.474 175.139 219.495 173.668C222.674 172.12 226.074 170.503 227.931 169.882C228.007 169.856 228.088 169.824 228.166 169.797H228.164C231.744 168.565 235.907 166.235 237.259 165.389L239.507 165.561C239.679 162.624 239.507 160.724 238.47 160.204C234.795 158.369 231.213 154.329 228.796 149.664C228.796 149.664 228.967 148.975 227.931 148.975C226.896 148.975 223.094 148.626 216.7 146.379C210.309 144.134 209.447 145.518 208.583 148.281C207.719 151.046 207.028 156.059 206.856 164.351C206.683 172.649 210.309 177.834 212.556 176.967Z" fill="#BB9653"/>
<path fill-rule="evenodd" clip-rule="evenodd" d="M212.556 176.967C213.65 176.547 216.474 175.139 219.495 173.668C222.674 172.12 226.074 170.503 227.931 169.882C228.007 169.856 228.088 169.824 228.166 169.797H228.164C231.744 168.565 235.907 166.235 237.259 165.389L239.507 165.561C239.679 162.624 239.507 160.724 238.47 160.204C234.795 158.369 231.213 154.329 228.796 149.664C228.796 149.664 228.967 148.975 227.931 148.975C226.896 148.975 223.094 148.626 216.7 146.379C210.309 144.134 209.447 145.518 208.583 148.281C207.719 151.046 207.028 156.059 206.856 164.351C206.683 172.649 210.309 177.834 212.556 176.967Z" stroke="#051821" stroke-width="1.05697"/>
<path fill-rule="evenodd" clip-rule="evenodd" d="M200.291 293.271C200.982 285.149 204.784 276.249 207.548 271.155C210.202 266.253 218.258 250.586 220.158 246.439C222.057 242.291 225.515 237.454 226.377 233.651C227.241 229.849 230.523 221.036 231.905 216.89C231.56 213.43 229.333 206.437 225.686 198.224C224.306 195.114 223.822 197.501 219.986 203.581C218.044 206.654 213.148 212.345 207.02 218.784C200.059 226.101 191.505 234.385 183.878 240.909C182.925 241.727 182.029 242.509 181.173 243.272C173.473 250.121 169.572 254.863 166.951 259.044C166.951 259.044 166.951 259.046 166.949 259.048C166.943 259.057 166.936 259.067 166.93 259.078C165.48 261.399 164.413 263.553 163.321 265.796C160.039 272.533 162.285 272.706 164.705 272.706C167.122 272.706 172.306 282.904 172.995 284.802C173.238 285.466 174.981 288.018 177.291 291.29C177.312 291.32 177.336 291.351 177.357 291.383L177.359 291.385C181.653 297.467 187.861 305.999 190.097 309.69C193.554 315.393 193.554 322.306 194.936 321.268C196.316 320.232 199.6 317.12 200.636 316.256C201.671 315.393 202.709 314.355 202.191 312.453C201.671 310.554 199.687 300.365 200.291 293.271Z" fill="#BB9653"/>
<path fill-rule="evenodd" clip-rule="evenodd" d="M200.291 293.271C200.982 285.149 204.784 276.249 207.548 271.155C210.202 266.253 218.258 250.586 220.158 246.439C222.057 242.291 225.515 237.454 226.377 233.651C227.241 229.849 230.523 221.036 231.905 216.89C231.56 213.43 229.333 206.437 225.686 198.224C224.306 195.114 223.822 197.501 219.986 203.581C218.044 206.654 213.148 212.345 207.02 218.784C200.059 226.101 191.505 234.385 183.878 240.909C182.925 241.727 182.029 242.509 181.173 243.272C173.473 250.121 169.572 254.863 166.951 259.044C166.951 259.044 166.951 259.046 166.949 259.048C166.943 259.057 166.936 259.067 166.93 259.078C165.48 261.399 164.413 263.553 163.321 265.796C160.039 272.533 162.285 272.706 164.705 272.706C167.122 272.706 172.306 282.904 172.995 284.802C173.238 285.466 174.981 288.018 177.291 291.29C177.312 291.32 177.336 291.351 177.357 291.383L177.359 291.385C181.653 297.467 187.861 305.999 190.097 309.69C193.554 315.393 193.554 322.306 194.936 321.268C196.316 320.232 199.6 317.12 200.636 316.256C201.671 315.393 202.709 314.355 202.191 312.453C201.671 310.554 199.687 300.365 200.291 293.271Z" stroke="#051821" stroke-width="1.05697"/>
<path fill-rule="evenodd" clip-rule="evenodd" d="M301.008 274.952C296.515 267.524 295.651 264.584 294.96 256.982C294.525 252.185 294.913 245.947 295.607 239.954C296.014 236.447 296.524 233.023 297.033 230.023C290.258 231.04 284.489 222.755 282.475 215.587C282.433 215.445 282.386 215.302 282.35 215.16C277.742 197.563 286.494 175.932 288.912 169.882C291.334 163.836 300.661 146.812 303.857 141.716C302.13 140.851 297.551 138.517 295.047 137.221C292.542 135.925 291.158 135.319 290.469 136.27C289.776 137.221 288.912 137.739 287.703 139.468C285.279 142.933 287.359 142.405 288.05 142.405C288.741 142.405 291.678 146.208 292.196 147.072C292.714 147.937 292.196 148.626 290.985 151.391C289.404 155.008 288.396 163.316 287.014 168.33C282.828 183.504 276.302 181.982 273.365 180.081C270.428 178.179 269.566 181.115 266.628 185.265C265.929 186.252 264.145 188.154 261.825 190.492C254.384 197.98 241.187 210.154 238.296 212.915C237.267 213.898 236.38 215.056 235.553 216.437C235.551 216.439 235.551 216.439 235.549 216.439C235.547 216.447 235.543 216.456 235.539 216.462C235.534 216.468 235.532 216.471 235.528 216.477C235.528 216.477 235.53 216.477 235.53 216.475C233.318 220.193 231.555 225.584 228.795 233.997C224.994 245.577 216.385 261.351 212.815 267.091C203.509 282.051 201.846 296.21 203.23 305.025C204.603 313.79 205.819 313.145 207.72 313.145C209.62 313.145 214.282 319.022 217.395 322.649C220.501 326.279 221.714 324.725 223.267 323.514C228.259 319.628 238.296 313.145 252.461 306.406C258.501 303.533 266.55 300.474 274.398 297.96C277.027 297.117 279.631 296.337 282.131 295.648C289.681 293.559 296.274 292.282 299.624 292.581C304.552 293.02 308.263 294.483 308.089 289.989C307.918 285.497 305.499 282.383 301.008 274.952Z" fill="#BB9653"/>
<path fill-rule="evenodd" clip-rule="evenodd" d="M301.008 274.952C296.515 267.524 295.651 264.584 294.96 256.982C294.525 252.185 294.913 245.947 295.607 239.954C296.014 236.447 296.524 233.023 297.033 230.023C290.258 231.04 284.489 222.755 282.475 215.587C282.433 215.445 282.386 215.302 282.35 215.16C277.742 197.563 286.494 175.932 288.912 169.882C291.334 163.836 300.661 146.812 303.857 141.716C302.13 140.851 297.551 138.517 295.047 137.221C292.542 135.925 291.158 135.319 290.469 136.27C289.776 137.221 288.912 137.739 287.703 139.468C285.279 142.933 287.359 142.405 288.05 142.405C288.741 142.405 291.678 146.208 292.196 147.072C292.714 147.937 292.196 148.626 290.985 151.391C289.404 155.008 288.396 163.316 287.014 168.33C282.828 183.504 276.302 181.982 273.365 180.081C270.428 178.179 269.566 181.115 266.628 185.265C265.929 186.252 264.145 188.154 261.825 190.492C254.384 197.98 241.187 210.154 238.296 212.915C237.267 213.898 236.38 215.056 235.553 216.437C235.551 216.439 235.551 216.439 235.549 216.439C235.547 216.447 235.543 216.456 235.539 216.462C235.534 216.468 235.532 216.471 235.528 216.477C235.528 216.477 235.53 216.477 235.53 216.475C233.318 220.193 231.555 225.584 228.795 233.997C224.994 245.577 216.385 261.351 212.815 267.091C203.509 282.051 201.846 296.21 203.23 305.025C204.603 313.79 205.819 313.145 207.72 313.145C209.62 313.145 214.282 319.022 217.395 322.649C220.501 326.279 221.714 324.725 223.267 323.514C228.259 319.628 238.296 313.145 252.461 306.406C258.501 303.533 266.55 300.474 274.398 297.96C277.027 297.117 279.631 296.337 282.131 295.648C289.681 293.559 296.274 292.282 299.624 292.581C304.552 293.02 308.263 294.483 308.089 289.989C307.918 285.497 305.499 282.383 301.008 274.952Z" stroke="#051821" stroke-width="1.05697"/>
<path fill-rule="evenodd" clip-rule="evenodd" d="M382.632 306.32C381.831 304.294 383.238 300.876 387.556 303.295C391.875 305.713 395.157 307.789 392.046 317.293C388.938 326.797 386.691 332.327 385.485 336.304C384.274 340.278 379.61 345.288 381.165 338.549C382.72 331.809 383.549 323.667 382.892 319.538C381.683 311.936 384.122 312.384 383.323 308.913C383.076 307.842 382.923 307.053 382.632 306.32Z" fill="#FAB283"/>
<path fill-rule="evenodd" clip-rule="evenodd" d="M382.632 306.32C381.831 304.294 383.238 300.876 387.556 303.295C391.875 305.713 395.157 307.789 392.046 317.293C388.938 326.797 386.691 332.327 385.485 336.304C384.274 340.278 379.61 345.288 381.165 338.549C382.72 331.809 383.549 323.667 382.892 319.538C381.683 311.936 384.122 312.384 383.323 308.913C383.076 307.842 382.923 307.053 382.632 306.32Z" stroke="#FAB283" stroke-width="1.05697" stroke-linecap="round"/>
<path fill-rule="evenodd" clip-rule="evenodd" d="M398.96 314.529C400.204 318.266 401.55 326.798 399.475 330.254C397.402 333.708 391.012 343.215 388.594 345.633C386.175 348.053 384.275 347.018 385.828 344.424C387.383 341.832 389.456 338.376 389.456 337.169C389.456 335.955 389.285 334.573 391.356 330.601C393.429 326.625 397.058 313.317 397.402 312.282C397.749 311.244 398.611 313.491 398.96 314.529Z" fill="#FAB283"/>
<path fill-rule="evenodd" clip-rule="evenodd" d="M398.96 314.529C400.204 318.266 401.55 326.798 399.475 330.254C397.402 333.708 391.012 343.215 388.594 345.633C386.175 348.053 384.275 347.018 385.828 344.424C387.383 341.832 389.456 338.376 389.456 337.169C389.456 335.955 389.285 334.573 391.356 330.601C393.429 326.625 397.058 313.317 397.402 312.282C397.749 311.244 398.611 313.491 398.96 314.529Z" stroke="#FAB283" stroke-width="1.05697" stroke-linecap="round"/>
<path fill-rule="evenodd" clip-rule="evenodd" d="M354.388 346.498C353.351 343.388 352.831 338.894 351.104 336.304C352.486 332.502 357.04 322.279 364.754 319.194C365.614 318.846 366.136 317.985 365.791 317.294C365.443 316.6 366.827 316.085 367.516 318.503C368.209 320.921 369.417 327.834 369.417 327.834C369.762 329.388 369.071 330.599 368.726 332.673C368.38 334.747 367.516 339.412 368.035 341.83C368.555 344.251 369.417 345.98 374.255 344.944C376.674 344.424 376.501 343.733 377.19 341.659C377.883 339.585 379.783 333.709 380.474 330.426C381.165 327.145 380.558 319.108 379.869 317.034C379.178 314.96 380.127 307.961 379.609 306.58C379.09 305.196 378.747 303.122 374.428 301.74C370.108 300.357 368.9 300.012 365.962 302.949C363.025 305.887 361.99 307.094 360.607 308.481C359.223 309.861 355.77 308.652 358.706 305.887C361.645 303.122 364.407 300.357 365.271 299.492L364.407 297.245H362.852C358.188 301.913 351.971 304.678 347.823 305.54C346.263 305.866 343.332 306.06 345.403 308.825C345.923 309.517 346.096 311.417 347.305 310.726C348.514 310.035 350.413 306.923 352.142 308.308C353.868 309.688 351.795 312.973 349.722 314.529C347.651 316.085 345.403 317.638 343.85 318.503C342.297 319.366 341.432 320.232 341.603 322.995C341.777 325.76 341.95 330.774 340.395 334.573C338.837 338.376 339.704 339.412 341.086 342.004C342.468 344.6 344.714 346.845 345.403 350.992C346.096 355.14 346.441 356.175 349.205 355.829C351.971 355.484 353.006 354.275 354.042 352.548L354.388 346.498Z" fill="#FAB283"/>
<path fill-rule="evenodd" clip-rule="evenodd" d="M354.388 346.498C353.351 343.388 352.831 338.894 351.104 336.304C352.486 332.502 357.04 322.279 364.754 319.194C365.614 318.846 366.136 317.985 365.791 317.294C365.443 316.6 366.827 316.085 367.516 318.503C368.209 320.921 369.417 327.834 369.417 327.834C369.762 329.388 369.071 330.599 368.726 332.673C368.38 334.747 367.516 339.412 368.035 341.83C368.555 344.251 369.417 345.98 374.255 344.944C376.674 344.424 376.501 343.733 377.19 341.659C377.883 339.585 379.783 333.709 380.474 330.426C381.165 327.145 380.558 319.108 379.869 317.034C379.178 314.96 380.127 307.961 379.609 306.58C379.09 305.196 378.747 303.122 374.428 301.74C370.108 300.357 368.9 300.012 365.962 302.949C363.025 305.887 361.99 307.094 360.607 308.481C359.223 309.861 355.77 308.652 358.706 305.887C361.645 303.122 364.407 300.357 365.271 299.492L364.407 297.245H362.852C358.188 301.913 351.971 304.678 347.823 305.54C346.263 305.866 343.332 306.06 345.403 308.825C345.923 309.517 346.096 311.417 347.305 310.726C348.514 310.035 350.413 306.923 352.142 308.308C353.868 309.688 351.795 312.973 349.722 314.529C347.651 316.085 345.403 317.638 343.85 318.503C342.297 319.366 341.432 320.232 341.603 322.995C341.777 325.76 341.95 330.774 340.395 334.573C338.837 338.376 339.704 339.412 341.086 342.004C342.468 344.6 344.714 346.845 345.403 350.992C346.096 355.14 346.441 356.175 349.205 355.829C351.971 355.484 353.006 354.275 354.042 352.548L354.388 346.498Z" stroke="#FAB283" stroke-width="1.05697" stroke-linecap="round"/>
<path fill-rule="evenodd" clip-rule="evenodd" d="M355.425 354.447C354.214 356.523 352.141 359.805 352.141 362.744C352.141 365.68 349.204 368.792 349.551 370.174C349.895 371.555 353.697 375.186 355.943 378.989C358.187 382.79 361.125 388.492 361.125 397.998C361.125 407.502 358.016 420.463 357.669 422.192C357.325 423.919 356.461 425.304 359.052 427.72C361.644 430.14 365.791 434.632 367.344 444.828C368.899 455.025 369.935 460.382 370.626 460.902C371.319 461.418 371.145 462.283 371.145 464.183C371.145 466.083 372.872 476.974 374.083 479.046C375.291 481.12 375.116 467.295 374.945 463.321C374.774 459.344 375.116 440.336 375.809 437.571C376.5 434.806 377.189 431.696 374.774 428.24C372.356 424.784 368.208 418.733 371.319 408.711C374.427 398.687 379.436 398.86 377.882 394.886C376.327 390.91 373.563 388.147 371.49 385.9C369.417 383.653 371.065 378.3 370.97 376.049C370.799 371.901 367.515 371.212 367.17 366.545C366.828 361.877 366.479 358.074 369.935 353.411C373.39 348.748 368.726 348.919 367.17 345.98C365.615 343.042 364.78 339.114 366.135 333.02C366.828 329.908 366.479 329.044 365.615 328.699C364.753 328.352 361.125 327.661 361.125 327.661L355.77 338.377C356.632 340.45 356.978 343.562 356.978 345.634L355.425 354.447Z" fill="#A63731"/>
<path fill-rule="evenodd" clip-rule="evenodd" d="M355.425 354.447C354.214 356.523 352.141 359.805 352.141 362.744C352.141 365.68 349.204 368.792 349.551 370.174C349.895 371.555 353.697 375.186 355.943 378.989C358.187 382.79 361.125 388.492 361.125 397.998C361.125 407.502 358.016 420.463 357.669 422.192C357.325 423.919 356.461 425.304 359.052 427.72C361.644 430.14 365.791 434.632 367.344 444.828C368.899 455.025 369.935 460.382 370.626 460.902C371.319 461.418 371.145 462.283 371.145 464.183C371.145 466.083 372.872 476.974 374.083 479.046C375.291 481.12 375.116 467.295 374.945 463.321C374.774 459.344 375.116 440.336 375.809 437.571C376.5 434.806 377.189 431.696 374.774 428.24C372.356 424.784 368.208 418.733 371.319 408.711C374.427 398.687 379.436 398.86 377.882 394.886C376.327 390.91 373.563 388.147 371.49 385.9C369.417 383.653 371.065 378.3 370.97 376.049C370.799 371.901 367.515 371.212 367.17 366.545C366.828 361.877 366.479 358.074 369.935 353.411C373.39 348.748 368.726 348.919 367.17 345.98C365.615 343.042 364.78 339.114 366.135 333.02C366.828 329.908 366.479 329.044 365.615 328.699C364.753 328.352 361.125 327.661 361.125 327.661L355.77 338.377C356.632 340.45 356.978 343.562 356.978 345.634L355.425 354.447Z" stroke="#A63731" stroke-width="1.05697"/>
<path fill-rule="evenodd" clip-rule="evenodd" d="M305.499 144.134C301.243 149.81 294.616 164.181 291.505 173.167C288.396 182.153 281.313 203.58 286.323 217.754C291.334 231.924 301.179 222.937 303.423 217.579C305.672 212.222 309.125 203.062 310.162 200.644C311.198 198.223 311.718 196.841 313.617 202.544C315.517 208.25 318.281 221.9 318.281 223.111C318.281 224.32 316.379 227.774 314.308 233.133C312.235 238.49 311.027 242.29 313.1 245.576C315.173 248.861 323.294 262.857 325.885 268.905C327.438 272.535 328.82 273.226 332.966 272.19C337.114 271.154 347.131 267.696 350.068 266.313C353.006 264.933 351.624 262.512 350.759 259.574C349.447 255.109 344.196 230.195 344.196 226.912C344.196 223.629 345.079 219.325 340.738 224.147C339.185 225.874 337.114 224.147 337.632 221.728C338.15 219.308 343.331 185.61 343.676 181.462C340.738 175.065 332.102 154.848 329.684 151.22C327.265 147.591 326.402 147.417 322.772 149.318C319.148 151.22 311.041 154.135 308.089 147.246C307.572 146.035 306.707 143.27 308.78 142.925L307.227 142.405C307.227 142.405 306.014 143.443 305.499 144.134Z" fill="#FEFEFE"/>
<path fill-rule="evenodd" clip-rule="evenodd" d="M350.759 268.387C347.541 270.228 336.594 274.952 332.102 275.646C327.489 276.354 328.649 277.546 329.511 281.003C330.375 284.459 332.966 294.826 334.348 298.457C335.73 302.085 337.632 302.026 341.26 301.914C346.786 301.74 356.116 299.32 362.853 293.098C360.951 290.851 357.621 280.083 356.632 275.472C355.599 270.632 355.599 265.622 350.759 268.387Z" fill="#FEFEFE"/>
<path fill-rule="evenodd" clip-rule="evenodd" d="M251.771 168.673C251.424 169.366 250.217 171.44 247.451 171.44C244.689 171.44 242.443 170.573 240.714 172.991C238.986 175.414 229.485 186.992 227.412 194.078C229.485 198.397 232.251 206.176 234.324 211.704C241.061 206.003 262.567 185.005 266.629 180.944C268.184 179.388 268.357 178.006 266.111 176.452C263.867 174.894 255.572 169.711 254.19 168.846C252.808 167.983 252.119 167.983 251.771 168.673Z" fill="#FEFEFE"/>
<path fill-rule="evenodd" clip-rule="evenodd" d="M197.352 199.088C196.023 204.418 193.382 213.776 189.06 221.035C190.791 223.8 192.171 226.218 194.244 227.083C199.081 223.629 208.238 215.161 210.83 212.049C213.419 208.939 216.701 204.274 216.701 203.236C216.701 202.2 215.494 201.855 213.939 202.2C212.382 202.545 205.985 199.985 199.774 198.742C198.043 198.397 197.528 198.397 197.352 199.088Z" fill="#FEFEFE"/>
<path fill-rule="evenodd" clip-rule="evenodd" d="M193.553 193.904C191.66 193.526 185.09 186.474 182.844 182.671C180.597 178.868 180.251 179.215 179.386 181.98C178.524 184.745 175.242 190.793 172.994 193.733C170.752 196.67 164.877 204.273 163.32 206.003C161.766 207.73 163.32 208.421 164.706 209.803C166.086 211.186 173.169 219.823 174.722 221.728C176.278 223.628 178.006 227.083 182.15 223.284C186.297 219.481 191.309 212.568 193.553 205.483C195.8 198.397 195.973 194.682 197.873 195.114L197.959 193.644L197.439 192.78L196.404 191.917C196.664 192.522 196.664 193.038 196.231 193.733C195.8 194.425 194.418 194.078 193.553 193.904Z" fill="#FEFEFE"/>
<path fill-rule="evenodd" clip-rule="evenodd" d="M299.279 34.9177C294.621 40.4203 285.285 45.2823 269.565 49.2608C253.845 53.235 238.816 64.2929 232.423 69.6518C226.031 75.0085 209.92 88.2036 202.192 91.4253C200.119 92.292 195.713 95.2177 201.327 95.9195C205.473 96.4374 208.411 94.0191 217.394 87.4511C226.377 80.8831 233.349 76.1458 240.198 69.4784C246.59 63.2571 258.164 57.3825 270.603 53.9262C283.041 50.4678 299.376 45.0308 304.116 39.9256C306.362 37.5094 306.536 36.296 304.462 34.2244C302.387 32.1506 301.179 32.6706 299.279 34.9177Z" fill="#FEFEFE"/>
<path fill-rule="evenodd" clip-rule="evenodd" d="M219.986 89.2659C218.629 90.01 218.086 90.8217 216.529 95.8339C214.976 100.844 215.147 103.782 216.442 104.991C217.383 105.869 218.769 105.943 219.466 105.943C219.986 105.943 220.502 106.118 220.417 104.645C220.33 103.178 220.233 96.9099 224.91 94.1047C225.772 93.5868 224.791 89.9614 221.712 90.4751C220.675 90.6484 221.712 88.3167 219.986 89.2659Z" fill="#FEFEFE"/>
<path fill-rule="evenodd" clip-rule="evenodd" d="M166.604 109.052C169.023 109.052 170.577 109.052 170.405 111.817C170.232 114.584 169.023 118.385 168.85 120.979C168.675 123.568 168.675 124.606 170.232 124.606C171.785 124.606 167.986 126.16 165.913 126.507C163.84 126.854 160.651 128.044 159 119.248C158.485 116.485 158.658 112.164 158.312 111.126C160.558 110.09 163.647 109.052 166.604 109.052Z" fill="#FEFEFE"/>
<path fill-rule="evenodd" clip-rule="evenodd" d="M212.525 116.433C213.159 119.921 214.112 119.854 213.418 120.372C212.73 120.889 212.003 119.055 209.186 119.509C206.51 119.94 184.742 123.314 183.187 123.483C178.352 124.001 178.092 123.223 182.583 122.272C187.075 121.323 203.508 118.327 208.41 117.347L212.525 116.433Z" fill="#FEFEFE"/>
<path fill-rule="evenodd" clip-rule="evenodd" d="M186.297 380.716C188.544 382.096 193.899 383.652 203.057 379.851C212.21 376.049 222.404 378.64 223.957 385.21C225.514 391.776 225.574 400.24 222.748 403.874C220.331 406.982 218.086 406.637 215.32 405.775C210.314 404.208 198.738 398.86 195.454 397.306C192.17 395.75 186.644 394.023 182.669 394.023C181.114 390.738 181.287 385.037 182.325 382.961C183.362 380.887 183.362 378.814 184.224 379.334C185.091 379.851 186.297 380.716 186.297 380.716Z" fill="#FEFEFE"/>
<path fill-rule="evenodd" clip-rule="evenodd" d="M222.576 411.302C224.82 411.302 228.89 412.245 230.177 416.316C231.213 419.597 237.952 420.462 240.887 420.291C243.824 420.119 243.306 421.671 243.133 423.402C242.96 425.127 242.444 430.313 242.444 432.389C242.444 434.462 242.96 441.717 243.306 443.1C243.653 444.485 242.444 445.174 240.887 445.867C239.334 446.558 233.632 448.285 230.006 445.696C228.093 444.326 225.858 442.411 228.104 442.237C230.348 442.064 225.342 422.538 223.958 419.081C222.576 415.621 218.601 411.302 222.576 411.302Z" fill="#FEFEFE"/>
<path fill-rule="evenodd" clip-rule="evenodd" d="M163.148 370.518C164.076 370.829 164.53 371.729 165.221 372.941C165.912 374.148 166.149 375.194 165.048 376.397C163.148 378.469 160.902 387.973 161.248 394.712C160.037 394.367 157.449 393.85 156.065 394.194C155.547 390.393 155.893 378.469 157.62 374.666C159.348 370.867 161.077 369.829 163.148 370.518Z" fill="#FEFEFE"/>
<path fill-rule="evenodd" clip-rule="evenodd" d="M163.492 475.937C167.796 480.776 175.93 488.206 181.978 490.796C188.026 493.39 191.997 494.254 197.352 493.736C201.684 493.318 200.809 495.117 197.352 495.637C193.899 496.155 185.953 496.155 180.771 493.39C175.588 490.625 167.363 485.513 162.114 478.009C160.901 476.281 162.114 474.381 163.492 475.937Z" fill="#FEFEFE"/>
<path fill-rule="evenodd" clip-rule="evenodd" d="M253.499 463.839C249.983 465.437 243.48 468.677 237.259 470.233C237.952 473.343 238.125 474.725 238.125 475.59C241.923 475.59 249.247 472.935 255.226 469.197C256.61 468.333 257.125 467.295 256.61 466.084C256.09 464.877 255.399 462.976 253.499 463.839Z" fill="#FEFEFE"/>
<path fill-rule="evenodd" clip-rule="evenodd" d="M212.556 449.667C211.691 448.804 216.615 447.768 217.653 447.768C218.862 448.544 221.061 450.487 221.883 451.307C222.403 451.827 222.148 452.174 221.624 452.52C221.108 452.863 218.086 453.641 216.7 453.73C215.149 452.347 212.987 450.102 212.556 449.667Z" fill="#FEFEFE"/>
<path fill-rule="evenodd" clip-rule="evenodd" d="M221.713 377.777C220.329 376.74 220.502 376.222 221.196 375.186C221.884 374.148 222.575 373.459 223.266 373.11C223.957 372.765 224.995 372.594 226.204 374.321C227.413 376.048 233.978 386.939 235.36 389.876C236.742 392.812 238.471 390.909 237.778 389.184C237.087 387.455 235.705 384.517 235.187 383.652C237.087 377.777 238.987 368.791 238.987 362.917C238.987 357.04 237.605 351.165 236.567 349.091C241.235 349.263 251.425 349.091 255.4 347.88C259.373 346.673 256.091 346.324 254.536 346.498C252.98 346.673 241.808 346.633 233.632 345.633C219.465 343.906 205.556 335.934 201.156 330.428C200.463 329.563 196.315 329.907 199.774 332.673C203.229 335.438 212.045 343.692 224.995 345.98C227.932 346.498 232.594 347.362 233.287 358.076C233.978 368.791 232.941 375.704 232.941 376.74C232.941 377.778 232.25 378.124 231.385 376.913C230.521 375.704 227.586 371.73 226.031 370.865C224.477 370.002 223.442 370.174 222.058 371.212C220.676 372.247 218.601 374.321 217.738 375.357L221.713 377.777Z" fill="#FEFEFE"/>
<path fill-rule="evenodd" clip-rule="evenodd" d="M193.899 411.563C192.604 411.563 184.829 412.168 183.187 411.563C181.547 410.959 180.484 409.069 181.634 408.28C183.016 407.329 185.693 408.54 188.369 408.54C191.048 408.54 193.899 407.847 194.592 408.28C195.281 408.712 196.23 408.54 196.23 411.821L193.899 411.563Z" fill="#FEFEFE"/>
<path fill-rule="evenodd" clip-rule="evenodd" d="M175.068 458.999C172.824 457.618 170.224 451.215 169.711 438.434C169.54 434.115 171.268 426.856 172.652 423.402C174.03 419.944 171.786 421.326 171.268 422.537C170.751 423.745 169.022 428.585 168.504 432.213C167.986 435.843 167.122 441.199 168.504 448.976C169.884 456.754 170.575 459.174 170.922 460.557L175.068 458.999Z" fill="#FEFEFE"/>
<path fill-rule="evenodd" clip-rule="evenodd" d="M254.105 46.3218C256.438 46.5797 259.026 46.4063 259.633 44.7659C260.235 43.1255 259.72 42.0876 258.942 41.7409C258.164 41.3963 257.818 41.483 258.164 39.9271C258.511 38.3734 259.633 38.5446 259.544 36.1263C259.46 33.7058 257.644 33.6191 256.002 34.1392C254.363 34.655 253.758 35.435 252.205 37.5088C250.65 39.5825 251.339 36.1263 251.599 35.5196C251.842 34.9552 252.463 30.9746 250.339 30.2622C249.13 30.8584 247.947 31.4566 246.81 32.0464C246.434 32.8053 246.146 33.6974 245.81 34.5704C244.948 36.8175 243.894 35.1285 243.133 34.0525C243.129 34.044 243.12 34.0419 243.114 34.0335C240.813 35.3103 238.795 36.5047 237.258 37.5088C237.096 37.6166 236.914 37.7392 236.745 37.8491C236.952 39.2147 238.592 40.9355 239.507 41.5696C240.629 42.3476 239.938 43.8146 238.556 43.8146C237.176 43.8146 235.445 42.8676 233.719 44.9414C231.992 47.013 233.114 49.0001 234.754 49.0001C236.396 49.0001 237.778 49.6047 238.385 51.5051C238.987 53.4056 239.507 54.1856 241.751 54.4435C243.997 54.7035 245.293 52.9743 245.899 51.9364C246.501 50.9005 247.281 49.4335 248.23 49.778C249.637 50.2896 249.464 51.7736 249.033 53.3527C250.656 52.3972 252.313 51.4967 254.084 50.6384C253.796 49.1735 252.93 47.8269 252.29 47.1864C251.512 46.4063 251.772 46.0639 254.105 46.3218Z" fill="#008348"/>
<path fill-rule="evenodd" clip-rule="evenodd" d="M254.105 46.3218C256.438 46.5797 259.026 46.4063 259.633 44.7659C260.235 43.1255 259.72 42.0876 258.942 41.7409C258.164 41.3963 257.818 41.483 258.164 39.9271C258.511 38.3734 259.633 38.5446 259.544 36.1263C259.46 33.7058 257.644 33.6191 256.002 34.1392C254.363 34.655 253.758 35.435 252.205 37.5088C250.65 39.5825 251.339 36.1263 251.599 35.5196C251.842 34.9552 252.463 30.9746 250.339 30.2622C249.13 30.8584 247.947 31.4566 246.81 32.0464C246.434 32.8053 246.146 33.6974 245.81 34.5704C244.948 36.8175 243.894 35.1285 243.133 34.0525C243.129 34.044 243.12 34.0419 243.114 34.0335C240.813 35.3103 238.795 36.5047 237.258 37.5088C237.096 37.6166 236.914 37.7392 236.745 37.8491C236.952 39.2147 238.592 40.9355 239.507 41.5696C240.629 42.3476 239.938 43.8146 238.556 43.8146C237.176 43.8146 235.445 42.8676 233.719 44.9414C231.992 47.013 233.114 49.0001 234.754 49.0001C236.396 49.0001 237.778 49.6047 238.385 51.5051C238.987 53.4056 239.507 54.1856 241.751 54.4435C243.997 54.7035 245.293 52.9743 245.899 51.9364C246.501 50.9005 247.281 49.4335 248.23 49.778C249.637 50.2896 249.464 51.7736 249.033 53.3527C250.656 52.3972 252.313 51.4967 254.084 50.6384C253.796 49.1735 252.93 47.8269 252.29 47.1864C251.512 46.4063 251.772 46.0639 254.105 46.3218Z" stroke="#008348" stroke-width="1.05697"/>
<path fill-rule="evenodd" clip-rule="evenodd" d="M273.366 21.263C272.565 21.4469 271.726 21.6731 270.866 21.9183C271.278 23.8948 272.079 26.4295 271.637 26.7952C271.12 27.2243 269.133 27.5731 267.578 28.0022C266.023 28.4356 262.31 31.8919 264.21 34.3947C266.111 36.904 266.716 38.3732 267.06 39.6669C267.405 40.9649 270.515 42.5186 272.675 39.9269C274.833 37.3373 276.477 34.4835 276.994 36.2973C277.428 37.8172 277.316 41.5102 277.016 43.4868C277.464 43.3938 277.912 43.3029 278.376 43.2098C279.239 33.5323 276.821 26.6218 273.366 21.263Z" fill="#008348"/>
<path fill-rule="evenodd" clip-rule="evenodd" d="M273.366 21.263C272.565 21.4469 271.726 21.6731 270.866 21.9183C271.278 23.8948 272.079 26.4295 271.637 26.7952C271.12 27.2243 269.133 27.5731 267.578 28.0022C266.023 28.4356 262.31 31.8919 264.21 34.3947C266.111 36.904 266.716 38.3732 267.06 39.6669C267.405 40.9649 270.515 42.5186 272.675 39.9269C274.833 37.3373 276.477 34.4835 276.994 36.2973C277.428 37.8172 277.316 41.5102 277.016 43.4868C277.464 43.3938 277.912 43.3029 278.376 43.2098C279.239 33.5323 276.821 26.6218 273.366 21.263Z" stroke="#008348" stroke-width="1.05697"/>
<path fill-rule="evenodd" clip-rule="evenodd" d="M225.944 67.6632C224.737 66.7119 224.39 65.2427 225.857 64.8115C227.326 64.3802 229.314 64.0335 232.94 62.4798C236.567 60.924 234.667 58.2456 233.029 57.5543C231.385 56.8631 231.214 55.3094 231.385 53.6647C231.561 52.0264 231.127 49.6038 227.932 50.8151C224.737 52.0264 225.857 55.136 224.908 56.1718C223.957 57.2119 223.442 56.8631 223.613 55.3094C223.784 53.7514 222.402 52.7156 221.624 52.371C221.02 52.1025 219.691 51.7833 218.558 51.6945C215.255 54.6773 212.227 57.8059 209.938 60.9007C210.45 61.9619 211.658 63.152 212.297 63.3423C213.161 63.6044 214.456 64.2069 214.37 65.9361C214.296 67.3989 211.008 67.4983 208.846 67.5469C210.371 71.6796 211.923 74.6074 214.086 76.9518C214.572 76.8102 215.213 76.5903 216.098 76.2183C218.774 75.0936 219.638 71.0328 220.073 69.8236C220.502 68.6144 221.624 68.8745 222.402 70.4303C222.949 71.5211 223.146 72.5231 223.22 73.504C224.748 71.9819 226.225 70.5571 227.674 69.2106C227.239 68.773 226.698 68.2572 225.944 67.6632Z" fill="#008348"/>
<path fill-rule="evenodd" clip-rule="evenodd" d="M225.944 67.6632C224.737 66.7119 224.39 65.2427 225.857 64.8115C227.326 64.3802 229.314 64.0335 232.94 62.4798C236.567 60.924 234.667 58.2456 233.029 57.5543C231.385 56.8631 231.214 55.3094 231.385 53.6647C231.561 52.0264 231.127 49.6038 227.932 50.8151C224.737 52.0264 225.857 55.136 224.908 56.1718C223.957 57.2119 223.442 56.8631 223.613 55.3094C223.784 53.7514 222.402 52.7156 221.624 52.371C221.02 52.1025 219.691 51.7833 218.558 51.6945C215.255 54.6773 212.227 57.8059 209.938 60.9007C210.45 61.9619 211.658 63.152 212.297 63.3423C213.161 63.6044 214.456 64.2069 214.37 65.9361C214.296 67.3989 211.008 67.4983 208.846 67.5469C210.371 71.6796 211.923 74.6074 214.086 76.9518C214.572 76.8102 215.213 76.5903 216.098 76.2183C218.774 75.0936 219.638 71.0328 220.073 69.8236C220.502 68.6144 221.624 68.8745 222.402 70.4303C222.949 71.5211 223.146 72.5231 223.22 73.504C224.748 71.9819 226.225 70.5572 227.674 69.2106C227.239 68.773 226.698 68.2572 225.944 67.6632Z" stroke="#008348" stroke-width="1.05697"/>
<path fill-rule="evenodd" clip-rule="evenodd" d="M271.81 170.92C272.33 170.833 270.946 164.698 272.072 164.44C273.192 164.18 273.71 167.81 276.129 167.377C278.549 166.945 279.153 164.525 278.807 161.847C278.462 159.168 280.018 160.638 281.226 158.737C282.433 156.835 279.844 154.245 276.907 156.059C273.972 157.87 274.487 155.454 276.043 154.501C277.6 153.552 276.476 150.095 273.192 151.22C270.815 152.034 269.617 150.495 268.48 149.844C267.603 150.184 266.734 150.55 265.872 150.939C265.677 151.611 265.83 152.423 266.024 153.294C266.271 154.404 266.802 157.268 264.989 156.059C263.41 155.008 261.271 154.416 260.669 156.403C260.065 158.393 261.271 158.564 261.1 159.773C260.927 160.984 257.818 161.242 259.285 163.747C260.754 166.252 262.913 164.872 264.382 163.92C265.853 162.971 267.233 164.094 266.715 165.39C266.311 166.398 265.494 169.806 265.432 172.044C266.128 172.497 266.848 172.985 267.605 173.522C268.465 172.647 270.098 171.207 271.81 170.92Z" fill="#008348"/>
<path fill-rule="evenodd" clip-rule="evenodd" d="M271.81 170.92C272.33 170.833 270.946 164.698 272.072 164.44C273.192 164.18 273.71 167.81 276.129 167.377C278.549 166.945 279.153 164.525 278.807 161.847C278.462 159.168 280.018 160.638 281.226 158.737C282.433 156.835 279.844 154.245 276.907 156.059C273.972 157.87 274.487 155.454 276.043 154.501C277.6 153.552 276.476 150.095 273.192 151.22C270.815 152.034 269.617 150.495 268.48 149.844C267.603 150.184 266.734 150.55 265.872 150.939C265.677 151.611 265.83 152.423 266.024 153.294C266.271 154.404 266.802 157.268 264.989 156.059C263.41 155.008 261.271 154.416 260.669 156.403C260.065 158.393 261.271 158.564 261.1 159.773C260.927 160.984 257.818 161.242 259.285 163.747C260.754 166.252 262.913 164.872 264.382 163.92C265.853 162.971 267.233 164.094 266.715 165.39C266.311 166.398 265.494 169.806 265.432 172.044C266.128 172.497 266.848 172.985 267.605 173.522C268.465 172.647 270.098 171.207 271.81 170.92Z" stroke="#008348" stroke-width="1.05697"/>
<path fill-rule="evenodd" clip-rule="evenodd" d="M224.736 164.958C226.032 164.613 228.538 167.292 230.782 165.736C233.029 164.18 229.834 162.624 230.265 161.328C230.696 160.032 231.733 157.527 230.176 156.318C228.621 155.107 226.981 156.231 225.343 158.045C223.699 159.859 224.301 156.403 225.168 154.933C226.29 153.035 225.168 151.737 223.268 151.393C221.366 151.046 220.762 153.724 219.466 152.515C217.41 150.596 214.198 151.393 214.976 154.071C215.753 156.749 216.615 157.612 214.976 157.959C213.334 158.303 211.778 153.984 209.879 157.441C207.979 160.897 211.003 161.933 210.743 164.524C210.483 167.118 211.52 169.883 213.074 170.143C214.629 170.403 216.271 168.672 217.133 167.638C218 166.598 220.073 165.822 219.813 167.812C219.633 169.179 219.536 172.033 219.494 173.669C222.672 172.122 226.072 170.503 227.932 169.883C228.008 169.856 228.088 169.824 228.166 169.799C227.293 169.452 226.068 168.879 224.91 168.069C223.181 166.858 223.441 165.302 224.736 164.958Z" fill="#008348"/>
<path fill-rule="evenodd" clip-rule="evenodd" d="M224.736 164.958C226.032 164.613 228.538 167.292 230.782 165.736C233.029 164.18 229.834 162.624 230.265 161.328C230.696 160.032 231.733 157.527 230.176 156.318C228.621 155.107 226.981 156.231 225.343 158.045C223.699 159.859 224.301 156.403 225.168 154.933C226.29 153.035 225.168 151.737 223.268 151.393C221.366 151.046 220.762 153.724 219.466 152.515C217.41 150.596 214.198 151.393 214.976 154.071C215.753 156.749 216.615 157.612 214.976 157.959C213.334 158.303 211.778 153.984 209.879 157.441C207.979 160.897 211.003 161.933 210.743 164.524C210.483 167.118 211.52 169.883 213.074 170.143C214.629 170.403 216.271 168.672 217.133 167.638C218 166.598 220.073 165.822 219.813 167.812C219.633 169.179 219.536 172.033 219.494 173.669C222.672 172.122 226.072 170.503 227.932 169.883C228.008 169.856 228.088 169.824 228.166 169.799C227.293 169.452 226.068 168.879 224.91 168.069C223.181 166.858 223.441 165.302 224.736 164.958Z" stroke="#008348" stroke-width="1.05697"/>
<path fill-rule="evenodd" clip-rule="evenodd" d="M186.471 243.675C190.444 242.466 190.617 245.575 190.097 248.167C189.581 250.761 189.581 256.291 189.753 259.054L196.316 259.4C195.972 257.673 196.316 252.659 196.489 249.725C196.663 246.787 199.6 242.29 200.638 246.787C201.671 251.279 206.164 251.452 209.274 249.55C212.383 247.649 214.629 243.502 217.913 237.625C221.195 231.748 216.873 230.194 214.283 230.539C211.692 230.886 209.103 231.232 214.976 226.394C220.441 221.889 211.246 219.633 207.02 218.785C200.059 226.1 191.504 234.384 183.878 240.91C182.908 241.741 181.997 242.538 181.129 243.311C182.041 243.836 183.836 244.476 186.471 243.675Z" fill="#008348"/>
<path fill-rule="evenodd" clip-rule="evenodd" d="M186.471 243.675C190.444 242.466 190.617 245.575 190.097 248.167C189.581 250.761 189.581 256.291 189.753 259.054L196.316 259.4C195.972 257.673 196.316 252.659 196.489 249.725C196.663 246.787 199.6 242.29 200.638 246.787C201.671 251.279 206.164 251.452 209.274 249.55C212.383 247.649 214.629 243.502 217.913 237.625C221.195 231.748 216.873 230.194 214.283 230.539C211.692 230.886 209.103 231.232 214.976 226.394C220.441 221.889 211.246 219.633 207.02 218.785C200.059 226.1 191.504 234.384 183.878 240.91C182.908 241.741 181.997 242.538 181.129 243.311C182.041 243.836 183.836 244.476 186.471 243.675Z" stroke="#008348" stroke-width="1.05697"/>
<path fill-rule="evenodd" clip-rule="evenodd" d="M179.561 287.223C182.844 286.187 184.915 293.271 189.753 289.124C194.592 284.976 191.135 281.52 190.961 278.066C190.79 274.607 194.763 273.227 193.554 268.904C191.711 262.323 185.606 268.559 181.805 272.189C178.005 275.819 177.834 272.878 181.634 267.006C185.433 261.129 179.214 259.226 175.414 260.782C172.037 262.165 168.935 260.818 166.951 259.044C165.489 261.378 164.417 263.541 163.321 265.796C160.039 272.533 162.285 272.707 164.705 272.707C167.122 272.707 172.306 282.902 172.995 284.803C173.24 285.473 175.015 288.065 177.359 291.386C177.223 289.747 177.538 287.864 179.561 287.223Z" fill="#008348"/>
<path fill-rule="evenodd" clip-rule="evenodd" d="M179.561 287.223C182.844 286.187 184.915 293.271 189.753 289.124C194.592 284.976 191.135 281.52 190.961 278.066C190.79 274.607 194.763 273.227 193.554 268.904C191.711 262.323 185.606 268.559 181.805 272.189C178.005 275.819 177.834 272.878 181.634 267.006C185.433 261.129 179.214 259.226 175.414 260.782C172.037 262.165 168.935 260.818 166.951 259.044C165.489 261.378 164.417 263.541 163.321 265.796C160.039 272.533 162.285 272.707 164.705 272.707C167.122 272.707 172.306 282.902 172.995 284.803C173.24 285.473 175.015 288.065 177.359 291.386C177.223 289.747 177.538 287.864 179.561 287.223Z" stroke="#008348" stroke-width="1.05697"/>
<path fill-rule="evenodd" clip-rule="evenodd" d="M230.176 241.601C229.849 238.316 231.905 234.862 236.396 236.76C240.886 238.663 243.652 237.107 245.552 235.551C247.452 233.995 255.552 232.059 254.362 239.183C253.5 244.366 251.082 244.54 250.389 247.302C249.698 250.067 251.771 248.34 252.982 246.267C254.191 244.193 256.953 235.703 262.656 242.117C264.036 243.675 263.519 246.267 261.792 249.205C260.064 252.141 261.446 253.87 262.483 255.426C263.519 256.982 265.93 264.624 257.299 265.104C254.191 265.277 250.389 264.41 250.389 264.41C250.043 267.696 246.854 272.395 243.652 277.202C243.306 277.72 241.408 277.72 240.544 277.026C239.68 276.335 237.26 275.126 239.16 273.052C241.06 270.978 244.17 266.658 243.652 264.759C243.133 262.857 241.751 261.13 239.68 263.721C237.604 266.313 234.323 271.67 230.696 271.843C227.068 272.016 223.442 268.731 225.168 265.448C226.895 262.165 227.412 260.438 224.995 257.498C222.575 254.56 223.48 250.801 228.621 248.514C230.176 247.822 232.941 248.514 234.842 250.067C236.742 251.623 237.78 250.067 235.187 248.514C232.596 246.96 230.521 245.057 230.176 241.601Z" fill="#008348"/>
<path fill-rule="evenodd" clip-rule="evenodd" d="M230.176 241.601C229.849 238.316 231.905 234.862 236.396 236.76C240.886 238.663 243.652 237.107 245.552 235.551C247.452 233.995 255.552 232.059 254.362 239.183C253.5 244.366 251.082 244.54 250.389 247.302C249.698 250.067 251.771 248.34 252.982 246.267C254.191 244.193 256.953 235.703 262.656 242.117C264.036 243.675 263.519 246.267 261.792 249.205C260.064 252.141 261.446 253.87 262.483 255.426C263.519 256.982 265.93 264.624 257.299 265.104C254.191 265.277 250.389 264.41 250.389 264.41C250.043 267.696 246.854 272.395 243.652 277.202C243.306 277.72 241.408 277.72 240.544 277.026C239.68 276.335 237.26 275.126 239.16 273.052C241.06 270.978 244.17 266.658 243.652 264.759C243.133 262.857 241.751 261.13 239.68 263.721C237.604 266.313 234.323 271.67 230.696 271.843C227.068 272.016 223.442 268.731 225.168 265.448C226.895 262.165 227.412 260.438 224.995 257.498C222.575 254.56 223.48 250.801 228.621 248.514C230.176 247.822 232.941 248.514 234.842 250.067C236.742 251.623 237.78 250.067 235.187 248.514C232.596 246.96 230.521 245.057 230.176 241.601Z" stroke="#008348" stroke-width="1.05697"/>
<path fill-rule="evenodd" clip-rule="evenodd" d="M274.056 219.134C270.946 218.445 266.912 217.921 266.455 224.32C266.284 226.738 268.699 228.641 270.946 229.505C273.192 230.368 272.848 231.924 270.428 231.059C268.013 230.195 266.111 229.677 264.382 234.689C262.656 239.701 265.764 240.39 267.32 240.737C268.875 241.081 270.086 241.428 269.737 243.502C269.39 245.576 268.357 251.624 272.33 252.141C276.303 252.659 279.758 247.823 280.967 245.402C282.175 242.984 283.557 240.563 283.904 243.328C284.251 246.093 283.731 247.476 282.351 250.586C280.967 253.697 280.967 255.082 283.042 254.909C285.113 254.733 288.57 254.909 289.603 252.488C290.643 250.068 292.194 245.402 292.372 242.117C292.477 240.065 294.276 239.836 295.607 239.955C296.015 236.445 296.524 233.021 297.033 230.021C290.258 231.04 284.487 222.751 282.473 215.583C280.166 218.09 276.78 219.739 274.056 219.134Z" fill="#008348"/>
<path fill-rule="evenodd" clip-rule="evenodd" d="M274.056 219.134C270.946 218.445 266.912 217.921 266.455 224.32C266.284 226.738 268.699 228.641 270.946 229.505C273.192 230.368 272.848 231.924 270.428 231.059C268.013 230.195 266.111 229.677 264.382 234.689C262.656 239.701 265.764 240.39 267.32 240.737C268.875 241.081 270.086 241.428 269.737 243.502C269.39 245.576 268.357 251.624 272.33 252.141C276.303 252.659 279.758 247.823 280.967 245.402C282.175 242.984 283.557 240.563 283.904 243.328C284.251 246.093 283.731 247.476 282.351 250.586C280.967 253.697 280.967 255.082 283.042 254.909C285.113 254.733 288.57 254.909 289.603 252.488C290.643 250.068 292.194 245.402 292.372 242.117C292.477 240.065 294.276 239.836 295.607 239.955C296.015 236.445 296.524 233.021 297.033 230.021C290.258 231.04 284.487 222.751 282.473 215.583C280.166 218.09 276.78 219.739 274.056 219.134Z" stroke="#008348" stroke-width="1.05697"/>
<path fill-rule="evenodd" clip-rule="evenodd" d="M241.752 217.925C240.543 219.999 237.088 225.873 238.643 227.776C240.198 229.676 241.925 225.873 243.307 227.258C244.691 228.64 247.8 230.194 247.8 229.158C247.8 228.12 248.142 226.047 248.664 223.284C249.18 220.519 250.39 218.963 251.599 221.21C252.808 223.455 254.536 225.355 258.854 224.32C263.173 223.284 262.658 218.789 261.793 215.504C260.927 212.224 264.037 210.668 265.591 209.803C267.148 208.939 271.121 205.829 268.184 203.064C265.246 200.299 262.658 204.273 260.065 204.791C257.474 205.311 258.509 203.064 263.866 198.916C268.488 195.335 264.614 191.761 261.804 190.516C254.363 198.003 241.187 210.154 238.296 212.915C237.257 213.908 236.361 215.077 235.528 216.477C242.481 213.232 242.897 215.961 241.752 217.925Z" fill="#008348"/>
<path fill-rule="evenodd" clip-rule="evenodd" d="M241.752 217.925C240.543 219.999 237.088 225.873 238.643 227.776C240.198 229.676 241.925 225.873 243.307 227.258C244.691 228.64 247.8 230.194 247.8 229.158C247.8 228.12 248.142 226.047 248.664 223.284C249.18 220.519 250.39 218.963 251.599 221.21C252.808 223.455 254.536 225.355 258.854 224.32C263.173 223.284 262.658 218.789 261.793 215.504C260.927 212.224 264.037 210.668 265.591 209.803C267.148 208.939 271.121 205.829 268.184 203.064C265.246 200.299 262.658 204.273 260.065 204.791C257.474 205.311 258.509 203.064 263.866 198.916C268.488 195.335 264.614 191.761 261.804 190.516C254.363 198.003 241.187 210.154 238.296 212.915C237.257 213.908 236.361 215.077 235.528 216.477C242.481 213.232 242.897 215.961 241.752 217.925Z" stroke="#008348" stroke-width="1.05697"/>
<path fill-rule="evenodd" clip-rule="evenodd" d="M284.595 287.398C286.841 289.471 292.196 292.41 295.995 288.951C299.797 285.497 295.133 281.694 294.615 278.929C294.096 276.164 297.377 274.435 295.651 269.943C292.646 262.123 288.223 271.499 285.632 274.088C283.041 276.682 283.468 272.277 285.803 269.943C287.014 268.732 292.371 265.449 289.258 261.819C286.148 258.189 281.657 260.265 279.411 261.819C277.167 263.375 275.438 265.277 271.983 264.237C268.528 263.204 265.59 262.857 263.52 267.869C261.444 272.879 265.419 271.499 268.701 275.126C271.983 278.756 269.912 278.929 267.319 278.065C264.728 277.202 263.52 273.917 259.72 274.435C255.918 274.953 255.918 281.003 257.125 282.557C258.338 284.113 260.753 284.977 259.027 287.916C257.3 290.852 259.891 294.31 263 295.693C266.11 297.073 270.774 291.545 272.503 289.296C274.229 287.049 275.958 287.571 275.611 289.296C275.315 290.782 274.51 294.695 274.398 297.961C277.027 297.117 279.631 296.337 282.131 295.646C282.126 293.837 281.737 290.917 280.966 288.089C279.929 284.284 282.35 285.324 284.595 287.398Z" fill="#008348"/>
<path fill-rule="evenodd" clip-rule="evenodd" d="M284.595 287.398C286.841 289.471 292.196 292.41 295.995 288.951C299.797 285.497 295.133 281.694 294.615 278.929C294.095 276.164 297.377 274.435 295.651 269.943C292.646 262.123 288.223 271.499 285.632 274.088C283.041 276.682 283.468 272.277 285.803 269.943C287.014 268.732 292.371 265.449 289.258 261.819C286.148 258.189 281.657 260.265 279.411 261.819C277.167 263.375 275.438 265.277 271.983 264.237C268.528 263.204 265.59 262.857 263.52 267.869C261.444 272.879 265.419 271.499 268.701 275.126C271.983 278.756 269.912 278.929 267.319 278.065C264.728 277.202 263.52 273.917 259.72 274.435C255.918 274.953 255.918 281.003 257.125 282.557C258.338 284.113 260.753 284.977 259.027 287.916C257.3 290.852 259.891 294.31 263 295.693C266.11 297.073 270.774 291.545 272.503 289.296C274.229 287.049 275.958 287.571 275.611 289.296C275.315 290.782 274.51 294.695 274.398 297.961C277.027 297.117 279.631 296.337 282.131 295.646C282.126 293.837 281.737 290.917 280.966 288.089C279.929 284.284 282.35 285.324 284.595 287.398Z" stroke="#008348" stroke-width="1.05697"/>
<path fill-rule="evenodd" clip-rule="evenodd" d="M217.394 280.655C221.054 280.856 224.995 279.619 228.104 277.372C231.214 275.125 239.333 276.336 236.051 282.04C232.767 287.741 233.807 288.95 235.705 286.877C237.605 284.803 240.024 281.002 243.653 282.04C247.281 283.076 245.726 285.841 243.481 288.95C241.235 292.062 242.615 294.136 244.344 295.345C246.07 296.554 249.251 303.095 239.68 305.887C235.534 307.094 234.841 305.196 232.076 304.16C229.315 303.122 229.139 305.54 231.041 308.481C232.941 311.417 235.014 314.182 232.768 314.182C230.521 314.182 228.797 314.529 228.45 316.256C228.104 317.985 224.477 315.911 223.613 312.282C222.749 308.652 221.884 301.74 219.987 305.196C218.085 308.652 216.356 314.353 211.519 311.762C206.682 309.17 209.966 305.714 207.546 303.293C205.129 300.875 202.883 297.765 205.3 293.447C207.72 289.124 209.791 292.753 212.039 292.753C214.281 292.753 214.63 290.679 212.557 289.124C210.484 287.57 207.891 280.137 217.394 280.655Z" fill="#008348"/>
<path fill-rule="evenodd" clip-rule="evenodd" d="M217.394 280.655C221.054 280.856 224.995 279.619 228.104 277.372C231.214 275.125 239.333 276.336 236.051 282.04C232.767 287.741 233.807 288.95 235.705 286.877C237.605 284.803 240.024 281.002 243.653 282.04C247.281 283.076 245.726 285.841 243.481 288.95C241.235 292.062 242.615 294.136 244.344 295.345C246.07 296.554 249.251 303.095 239.68 305.887C235.534 307.094 234.841 305.196 232.076 304.16C229.315 303.122 229.139 305.54 231.041 308.481C232.941 311.417 235.014 314.182 232.768 314.182C230.521 314.182 228.797 314.529 228.45 316.256C228.104 317.985 224.477 315.911 223.613 312.282C222.749 308.652 221.884 301.74 219.987 305.196C218.085 308.652 216.356 314.353 211.519 311.762C206.682 309.17 209.966 305.714 207.546 303.293C205.129 300.875 202.883 297.765 205.3 293.447C207.72 289.124 209.791 292.753 212.039 292.753C214.281 292.753 214.63 290.679 212.557 289.124C210.484 287.57 207.891 280.137 217.394 280.655Z" stroke="#008348" stroke-width="1.05697"/>
<path fill-rule="evenodd" clip-rule="evenodd" d="M416.294 116.92L411.178 120.543L422.953 137.188L416.214 141.963L404.784 124.976L399.507 128.715L409.968 144.563L403.228 149.339L386.352 125.325L416.96 103.627L435.565 129.715L428.826 134.493L416.294 116.92Z" fill="#FEFEFE"/>
<path fill-rule="evenodd" clip-rule="evenodd" d="M424.745 168.097L431.641 183.078L421.628 187.71L410.823 163.344L443.935 148.936L448.189 158.32L424.745 168.097Z" fill="#FEFEFE"/>
<path fill-rule="evenodd" clip-rule="evenodd" d="M428.638 212.792L427.592 203.552L449.821 200.939L448.957 187.503L458.912 186.763L461.685 219.078L451.731 219.814L450.865 210.179L428.638 212.792Z" fill="#FEFEFE"/>
<path fill-rule="evenodd" clip-rule="evenodd" d="M428.855 246.088L428.718 235.072L461.39 234.975L461.525 245.989L428.855 246.088Z" fill="#FEFEFE"/>
<path fill-rule="evenodd" clip-rule="evenodd" d="M446.094 290.792C449.181 288.953 450.517 286.605 450.961 283.901C452.081 277.113 448.537 271.412 442.32 270.496C436.462 269.636 431.671 272.293 429.922 278.206C429.017 281.263 429.364 284.284 430.203 286.277L421.57 289.169C420.378 285.064 419.827 280.371 420.509 276.792C421.589 271.154 423.489 268.04 427.563 264.95C432.102 261.504 438.586 260.599 444.059 261.652C449.091 262.616 453.837 265.144 456.641 270.059C459.521 275.115 460.998 279.402 459.807 285.622C459.094 289.315 455.794 294.568 451.443 297.231L446.094 290.792Z" fill="#FEFEFE"/>
<path fill-rule="evenodd" clip-rule="evenodd" d="M428.994 319.417C424.016 324.114 415.371 329.735 411.934 330.05C407.465 330.462 406.085 327.945 405.331 323.985C404.745 320.922 405.312 316.096 406.704 311.974C407.909 308.404 410.836 304.861 413.462 302.658L418.87 305.059C415.95 307.029 414.077 310.08 412.854 313.712C412.011 316.206 411.252 320.007 413.746 320.848C416.529 321.789 422.568 315.703 424.297 314.039C427.289 311.158 433.508 306.146 438.069 307.317C441.078 308.091 446.638 314.354 444.499 324.643C443.616 328.9 442.05 333.458 439.032 336.485L431.657 331.534C433.728 330.059 434.977 326.074 435.856 323.472C436.513 321.518 436.632 318.413 434.806 317.4C433.681 316.775 431.522 317.035 428.994 319.417Z" fill="#FEFEFE"/>
<path fill-rule="evenodd" clip-rule="evenodd" d="M388.625 91.8216C388.219 88.247 387.319 85.8054 385.041 84.2876C379.314 80.4762 372.879 81.5648 369.183 86.6552C366.22 90.733 366.442 97.1022 371.108 101.129C373.522 103.209 376.421 104.142 378.578 104.192L377.663 113.255C373.433 112.652 368.93 111.228 365.952 109.131C361.254 105.824 359.2 102.814 358.061 97.8273C356.789 92.2719 358.63 85.9872 361.84 81.4295C364.79 77.2376 370.016 73.6312 375.628 72.8977C381.159 72.179 386.366 73.2 390.761 77.0178C393.603 79.4847 396.401 85.3065 397.039 90.3694L388.625 91.8216Z" fill="#FEFEFE"/>
<path fill-rule="evenodd" clip-rule="evenodd" d="M55.0412 276.074C55.2082 266.431 59.9861 261.634 62.672 261.065C67.0654 260.133 69.3371 260.837 72.3547 263.511C75.4865 266.299 76.8432 269.295 77.7434 273.548C78.5253 277.235 78.8782 281.545 77.7392 284.78L70.7783 285.509C72.2892 282.323 71.2326 279.406 70.438 275.654C69.8907 273.079 68.1938 270.572 65.6115 271.119C62.9362 271.686 63.0756 276.205 62.8389 278.67C62.0697 286.593 59.4789 291.745 54.5446 292.286C49.9294 292.793 44.2448 289.728 42.2584 280.342C41.3561 276.087 41.766 270.286 42.8205 266.143L50.1069 266.177C49.0735 268.5 48.3001 274.396 48.8706 277.083C49.2975 279.097 50.8444 281.587 52.9301 281.48C54.5721 281.399 55.0095 277.897 55.0412 276.074Z" fill="#FEFEFE"/>
<path fill-rule="evenodd" clip-rule="evenodd" d="M73.9466 230.656L74.0713 238.761L48.2732 239.082L48.3768 250.774L40.1184 250.863L39.7887 220.069L48.0471 219.978L48.1485 230.977L73.9466 230.656Z" fill="#FEFEFE"/>
<path fill-rule="evenodd" clip-rule="evenodd" d="M92.4361 139.163L70.2601 125.232L75.1712 117.588L107.67 136.335L101.379 146.052L75.0085 146.492L74.9514 146.589L94.8642 158.077L89.9552 166.758L57.9718 148.185L62.1898 140.021L92.4361 139.163Z" fill="#FEFEFE"/>
<path fill-rule="evenodd" clip-rule="evenodd" d="M62.6068 197.741C68.3505 197.741 73.0059 193.084 73.0059 187.339C73.0059 181.591 68.3505 176.934 62.6068 176.934C56.8631 176.934 52.2056 181.591 52.2056 187.339C52.2056 193.084 56.8631 197.741 62.6068 197.741ZM42.637 187.339C42.637 176.306 51.5779 167.362 62.6068 167.362C73.6356 167.362 82.5724 176.306 82.5724 187.339C82.5724 198.369 73.6356 207.313 62.6068 207.313C51.5779 207.313 42.637 198.369 42.637 187.339Z" fill="#FEFEFE"/>
<path fill-rule="evenodd" clip-rule="evenodd" d="M75.4768 329.166C81.2205 329.166 85.8759 324.507 85.8759 318.762C85.8759 313.016 81.2205 308.357 75.4768 308.357C69.7331 308.357 65.0756 313.016 65.0756 318.762C65.0756 324.507 69.7331 329.166 75.4768 329.166ZM55.507 318.762C55.507 307.729 64.4479 298.785 75.4768 298.785C86.5056 298.785 95.4424 307.729 95.4424 318.762C95.4424 329.794 86.5056 338.738 75.4768 338.738C64.4479 338.738 55.507 329.794 55.507 318.762Z" fill="#FEFEFE"/>
<path fill-rule="evenodd" clip-rule="evenodd" d="M105.639 371.696C104.661 370.516 96.7724 360.896 93.5751 363.91C90.213 367.079 98.0805 373.256 100.714 376.422L105.639 371.696ZM118.456 360.874L117.596 359.839C115.601 357.439 108.53 348.453 105.724 351.095C102.649 353.994 110.09 361.866 112.294 364.513L112.983 365.339L118.456 360.874ZM97.8459 355.129C94.9572 350.751 96.4364 344.293 99.5027 341.579C105.701 336.091 116.112 348.705 119.876 353.44L130.613 365.931L104.097 387.867L94.1182 378.014C86.965 370.865 78.2459 361.841 85.4329 355.594C88.3449 353.066 94.6994 353.594 97.8459 355.129Z" fill="#FEFEFE"/>
</svg>
