<svg width="500" height="500" viewBox="0 0 500 500" fill="none" xmlns="http://www.w3.org/2000/svg">
<mask id="mask0_10_1871" style="mask-type:alpha" maskUnits="userSpaceOnUse" x="6" y="1" width="488" height="499">
<path d="M6.00027 499.872H493.685V1.98505H249.842H6.00027V499.872Z" fill="white"/>
</mask>
<g mask="url(#mask0_10_1871)">
<path fill-rule="evenodd" clip-rule="evenodd" d="M392.558 379.267C320.412 470.938 254.254 490.306 251.467 491.083L250.509 491.346L249.55 491.071C242.371 489.038 177.319 468.534 107.142 379.267C20.3048 268.895 13.4353 126.481 14.5158 70.2799C14.4646 65.391 14.4646 62.5086 14.4646 62.4957V60.3868L16.3779 59.4359C20.3475 57.4274 115.07 10.3611 246.733 10.3611H252.939C384.702 10.3611 479.341 57.4274 483.302 59.4359L485.214 60.3868V62.4957C485.214 62.5086 485.214 65.391 485.156 70.5962C486.279 126.613 479.444 268.859 392.558 379.267ZM493.584 69.485C493.633 64.3034 493.633 61.3803 493.633 61.3803V55.0128L487.881 52.1197C483.841 50.0641 387.166 1.98505 252.954 1.98505H246.718C112.596 1.98505 15.8398 50.0641 11.7975 52.1197L6.05123 55.0128V61.3803C6.05123 61.3803 6.05123 64.2906 6.09394 69.1667C5.00704 126.344 12.0153 271.513 100.755 384.297C172.713 475.827 240.158 497.073 247.602 499.175L250.498 500L253.376 499.19C256.272 498.376 324.98 478.303 398.913 384.297C487.738 271.466 494.714 126.481 493.584 69.485Z" fill="black"/>
</g>
<path fill-rule="evenodd" clip-rule="evenodd" d="M423.234 221.882C417.153 221.882 409.718 220.63 401.125 218.175C370.657 209.472 354.552 194.462 354.552 174.763V153.818C354.552 153.066 354.885 152.368 355.462 151.893C356.03 151.421 356.788 151.235 357.516 151.376C363.421 152.528 366.355 153.15 372.487 154.523C373.621 154.782 374.426 155.791 374.426 156.955V168.795C374.426 179.731 374.426 185.216 380.16 191.682C384.866 196.998 392.79 201.284 403.696 204.434C408.686 205.872 412.897 206.6 416.215 206.6C420.518 206.6 423.341 205.449 425.094 202.977C426.822 200.538 427.659 196.645 427.659 191.077C427.659 175.585 422.611 167.502 397.663 143.036L393.418 138.882C372.406 118.344 359.722 105.953 359.722 85.2436C359.722 60.3056 374.373 51.485 403.089 59.7308C444.152 71.5171 444.153 95.0748 444.146 109.147V120.306C444.146 121.118 443.753 121.887 443.091 122.35C442.416 122.821 441.564 122.925 440.802 122.643C435.002 120.494 432.233 119.509 426.672 117.618C425.671 117.276 424.994 116.325 424.994 115.261L424.988 101.925C424.988 92.6261 424.988 80.1004 402.022 73.4979C397.791 72.2778 394.127 71.6539 391.142 71.6539C385.423 71.6539 379.572 73.4637 379.572 86.8291C379.572 100.35 383.211 105.658 414.977 138.513C436.083 160.355 447.106 172.759 447.106 194.415C447.106 202.635 447.106 221.876 423.234 221.882ZM348.637 347.951C348.383 348.128 348.112 348.316 347.832 348.515C347.843 340.421 346.897 332.175 345.014 323.977C352.163 317.154 356.177 309.541 357.053 301.318C357.147 301.682 357.264 302.021 357.352 302.387C359.622 311.35 360.702 320.335 360.728 329.169C360.382 330.906 357.969 341.444 348.637 347.951ZM348.812 378.915C348.783 378.797 348.759 378.677 348.706 378.575C348.366 377.752 347.162 376.342 343.653 377.564C345.671 370.81 346.961 363.818 347.497 356.774C348.161 356.314 348.783 355.868 349.387 355.41C349.763 355.128 350.139 354.857 350.525 354.575C355.268 351.263 358.144 346.81 359.916 342.547C358.353 355.34 354.552 367.626 348.812 378.915ZM330.882 404.474C335.084 398.271 338.734 391.329 341.52 383.977C341.764 383.801 342.022 383.637 342.297 383.449C342.594 383.261 342.902 383.06 343.171 382.861C344.732 381.838 345.513 381.686 345.849 381.686C346.081 381.686 346.182 381.709 346.269 382.145L346.464 383.026H346.615C342.268 390.767 336.985 397.966 330.882 404.474ZM311.256 421.036C300.982 427.825 289.396 433.017 276.737 436.165C254.666 441.637 232.482 440.1 212.544 433.017C217.78 434.004 223.253 434.519 228.875 434.556L229.708 434.568C234.002 434.568 238.303 434.226 242.894 433.545C247.841 432.759 252.943 431.536 258.484 429.81C277.557 423.972 295.336 413.776 310.199 404.568C312.351 403.229 314.429 401.983 316.453 400.761C320.786 398.154 324.871 395.686 329.043 392.786C330.628 391.682 332.084 390.637 333.515 389.628C333.732 389.472 333.952 389.31 334.168 389.156C329.062 402.37 321.102 413.329 311.256 421.036ZM191.399 422.658L188.252 420.799L188.359 420.987C166.033 406.261 148.942 383.553 141.916 355.714C140.682 350.795 139.826 345.885 139.275 340.985C143.511 347.87 153.665 360.378 175.1 369.421C186.567 374.263 198.544 377.763 210.859 379.947L210.84 370.306C202.369 368.496 193.029 365.816 181.395 361.977C151.718 352.19 140.945 338.791 138.816 335.759C137.357 313.043 143.027 290.981 154.291 272.246C159.051 271.214 176.975 269.028 208.536 284.652C209.215 284.979 209.973 285.402 210.677 285.767L210.667 277.72C205.92 275.359 201.497 273.267 197.536 271.611C186.008 266.75 176.146 264.295 168.235 264.295C164.028 264.295 160.921 264.977 158.562 265.739C172.54 245.808 193.157 230.393 218.245 223.132C221.019 222.891 223.801 222.739 226.524 222.739C291.375 222.739 328.808 288.269 335.94 318.222C336.109 318.808 336.233 319.408 336.359 320.006C336.391 320.171 336.417 320.335 336.449 320.487C328.01 324.729 315.985 325.058 301.352 321.429C296.944 320.325 291.962 318.575 286.592 316.365C285.928 318.432 285.059 320.37 284.049 322.167C285.828 323.908 287.271 325.739 288.452 327.618C290.376 328.265 292.227 328.816 293.993 329.239C306.976 332.34 314.963 333.609 321.578 333.609C328.153 333.609 333.48 332.269 338.193 329.417C339.556 337.19 340.26 345.036 340.294 352.756C329.472 358.006 312.338 363.974 293.656 368.026L293.669 375.801C314.486 371.092 329.502 366.288 340.119 360.977C339.615 368.049 338.516 374.744 336.837 380.91C336.598 381.064 336.374 381.203 336.199 381.323C334.273 382.485 332.359 383.517 330.329 384.598L325.076 387.536C320.598 390.096 315.968 392.739 311.317 395.231C298.136 402.299 287.265 408.066 277.13 413.389C275.657 414.115 274.213 414.88 272.763 415.632C271.053 416.524 269.343 417.417 267.585 418.276C255.642 424.278 245.142 427.483 232.467 428.977C228.694 429.423 225.207 429.645 221.811 429.645C214.636 429.645 207.775 428.624 200.808 426.545C197.103 425.476 193.938 424.171 191.399 422.658ZM120.37 209.308C106.204 172.788 91.2952 134.607 75.9825 95.609C76.2729 102.194 76.3882 107.391 76.3882 116.688C76.5761 152.015 76.7747 187.353 76.984 222.692C76.9904 223.756 76.3178 224.707 75.3099 225.06C69.713 227.004 67.0609 227.966 61.793 229.957C61.509 230.064 61.2121 230.115 60.9132 230.115C60.4135 230.115 59.9202 229.97 59.5017 229.675C58.8333 229.212 58.4297 228.442 58.4297 227.632V78.2436C58.4297 77.2094 59.0704 76.2821 60.0398 75.9188C68.5599 72.6987 72.7602 71.2137 81.4277 68.3419C82.679 67.9188 84.035 68.5598 84.5197 69.7863C100.102 109.137 115.393 147.998 130.071 185.538C129.781 179.6 129.585 172.976 129.585 165.765L128.376 57.094C128.367 55.9252 129.164 54.9039 130.306 54.6453C136.127 53.2949 139.008 52.6731 144.946 51.4744C145.675 51.3205 146.435 51.515 147.013 51.9915C147.586 52.4615 147.919 53.1667 147.919 53.9167V203.299C147.919 204.481 147.084 205.502 145.933 205.737C136.824 207.568 132.382 208.568 123.283 210.823C122.068 211.128 120.823 210.47 120.37 209.308ZM164.38 50.0342C164.38 48.812 165.267 47.7735 166.469 47.5727C191.969 43.4872 217.98 41.1966 243.782 40.7735C244.427 40.75 245.089 41.0192 245.567 41.4829C246.043 41.9487 246.31 42.594 246.31 43.2564V52.5662C246.31 53.9295 245.221 55.0342 243.863 55.0556C219.699 55.4551 207.588 56.3141 184.368 59.3312V111.861C202.789 109.483 213.229 108.641 232.612 107.927C233.289 107.897 233.944 108.15 234.431 108.62C234.92 109.088 235.192 109.741 235.192 110.417V119.519C235.192 120.859 234.135 121.951 232.798 122.004C212.988 122.737 202.992 123.549 184.062 126.021V185.118C206.868 182.15 219.614 181.256 243.47 180.846C244.096 180.835 244.777 181.094 245.253 181.562C245.732 182.032 245.996 182.667 245.996 183.338V192.641C245.996 194.002 244.914 195.107 243.558 195.135C218.091 195.564 192.416 197.838 167.257 201.872C167.127 201.895 166.996 201.906 166.866 201.906C166.277 201.906 165.707 201.697 165.252 201.308C164.694 200.838 164.38 200.145 164.38 199.417V50.0342ZM344.768 272.246C347.715 278.12 354.734 294.998 346.897 310.058C345.883 312.1 344.527 314.017 342.844 315.778C326.368 261.357 283.31 221.571 238.864 219.162C281.796 215.038 322.968 236.241 344.768 272.246ZM256.468 43.0107C256.468 42.3462 256.735 41.7073 257.216 41.2436C257.683 40.7735 258.311 40.5021 258.988 40.5214C289.772 40.8675 320.745 43.8633 351.052 49.4252C352.233 49.641 353.09 50.6688 353.09 51.8739V61.3932C353.09 62.1325 352.761 62.8333 352.203 63.3013C351.629 63.7778 350.901 63.9829 350.151 63.8419C335.712 61.188 328.18 60.0598 314.482 58.5214V195.81C314.482 196.515 314.183 197.197 313.656 197.667C313.197 198.077 312.603 198.301 311.992 198.301C311.905 198.301 311.811 198.301 311.723 198.291C305.672 197.626 302.727 197.338 296.709 196.85C295.42 196.744 294.427 195.665 294.427 194.368V56.5897C280.78 55.5021 273.363 55.1859 258.933 55.0214C257.57 54.9979 256.468 53.8932 256.468 52.5321V43.0107ZM474.522 68.3526C474.522 68.3526 474.421 68.312 474.244 68.218V67.9081L472.243 66.9893C467.477 64.8056 456.79 60.1303 441.312 54.5748C403.19 40.6432 335.202 21.1752 252.836 21.1752H246.827C164.28 21.1752 96.1319 40.7607 58.0603 54.6859C42.7412 60.1902 32.1711 64.8184 27.4348 66.9893L25.434 67.9188L25.4404 68.218C25.2525 68.312 25.1585 68.3526 25.1585 68.3526C25.1585 68.3526 25.1585 71.1368 25.2098 76.0577C24.5414 111.062 24.9343 259.703 114.244 373.218C182.019 459.434 245.104 478.85 250.496 480.389C255.655 478.955 317.489 459.609 385.443 373.218C474.804 259.703 475.156 111.062 474.46 76.0577C474.522 71.1368 474.522 68.3526 474.522 68.3526Z" fill="black"/>
<path fill-rule="evenodd" clip-rule="evenodd" d="M237.558 267.147H246.942C251.094 267.301 255.721 267.419 258.7 269.252C260.064 270.096 260.893 271.096 261.395 272.447C261.815 273.844 262.204 276.265 262.445 280.397L262.494 298.618C262.445 298.934 262.445 299.391 262.445 300.002C262.304 304.701 262.204 312.677 252.887 315.472C250.286 316.201 249.048 316.436 243.393 316.622L237.777 316.635C236.819 316.684 236.56 316.201 236.56 315.472C236.56 315.026 236.496 268.442 236.496 268.442C236.496 267.677 236.772 267.241 237.558 267.147ZM266.699 343.158C267.668 346.083 267.826 349.348 267.826 352.38L267.88 374.028C267.88 383.895 267.269 388.534 263.509 391.447C261.252 393.068 258.506 394.006 251.478 394.244C251.478 394.244 239.383 394.278 238.471 394.278C237.372 394.278 236.955 393.622 236.955 392.585C236.955 383.682 236.819 334.607 236.819 334.197C236.819 333.737 236.955 333.115 237.871 333.115C238.779 333.115 243.944 333.068 243.944 333.068C250.336 333.374 257.045 333.844 261.395 336.628C263.917 338.13 265.612 340.293 266.699 343.158ZM254.538 410.712C257.944 410.712 268.397 410.675 277.102 403.25C284.807 396.263 285.605 388.017 285.828 378.75L285.774 352.626C285.774 344.451 285.774 334.453 277.254 327.372C275.488 325.891 273.357 324.611 270.814 323.59C274.771 320.934 277.476 317.282 278.969 312.677C280.31 308.59 280.259 303.504 280.218 301.517L280.145 278.261C279.936 271.825 279.225 264.494 274.019 258.551C269.411 253.453 262.445 250.818 253.594 250.855L222.07 250.938C221.145 250.938 220.25 251.303 219.533 251.996C218.824 252.677 218.495 253.558 218.495 254.485L218.766 407.186C218.766 408.41 219.405 409.607 220.479 410.229C221.049 410.594 221.747 410.806 222.473 410.806L254.538 410.712Z" fill="black"/>
<path fill-rule="evenodd" clip-rule="evenodd" d="M385.443 373.218C317.489 459.609 255.655 478.955 250.496 480.389C245.104 478.85 182.019 459.434 114.244 373.218C24.9343 259.703 24.5414 111.062 25.2098 76.0577C25.1585 71.1368 25.1585 68.3526 25.1585 68.3526C25.1585 68.3526 25.2525 68.312 25.4404 68.218L25.434 67.9188L27.4349 66.9893C32.1711 64.8184 42.7412 60.1902 58.0603 54.6859C96.1319 40.7607 164.28 21.1752 246.827 21.1752H252.836C335.202 21.1752 403.19 40.6432 441.312 54.5748C456.79 60.1303 467.477 64.8056 472.243 66.9893L474.244 67.9081V68.218C474.421 68.312 474.522 68.3526 474.522 68.3526C474.522 68.3526 474.522 71.1368 474.46 76.0577C475.156 111.062 474.804 259.703 385.443 373.218ZM485.214 62.4957V60.3868L483.302 59.4359C479.341 57.4274 384.702 10.3611 252.939 10.3611H246.733C115.07 10.3611 20.3476 57.4274 16.3779 59.4359L14.4646 60.3868V62.4957C14.4646 62.5086 14.4646 65.391 14.5159 70.2799C13.4354 126.481 20.3048 268.895 107.142 379.267C177.319 468.534 242.371 489.038 249.55 491.071L250.509 491.346L251.467 491.083C254.254 490.306 320.412 470.938 392.558 379.267C479.444 268.859 486.279 126.613 485.156 70.5962C485.214 65.391 485.214 62.5086 485.214 62.4957Z" fill="white"/>
<path fill-rule="evenodd" clip-rule="evenodd" d="M258.933 55.0214C273.363 55.1859 280.78 55.5021 294.427 56.5898V194.368C294.427 195.665 295.42 196.744 296.709 196.85C302.727 197.338 305.672 197.626 311.723 198.291C311.811 198.301 311.905 198.301 311.992 198.301C312.603 198.301 313.197 198.077 313.656 197.667C314.183 197.197 314.482 196.515 314.482 195.81V58.5214C328.181 60.0598 335.712 61.188 350.151 63.8419C350.901 63.9829 351.629 63.7778 352.203 63.3013C352.761 62.8333 353.09 62.1325 353.09 61.3932V51.8739C353.09 50.6688 352.233 49.641 351.052 49.4252C320.745 43.8633 289.772 40.8675 258.988 40.5214C258.311 40.5021 257.683 40.7735 257.216 41.2436C256.735 41.7073 256.468 42.3462 256.468 43.0107V52.5321C256.468 53.8932 257.57 54.9979 258.933 55.0214Z" fill="white"/>
<path fill-rule="evenodd" clip-rule="evenodd" d="M379.573 86.8291C379.573 73.4637 385.423 71.6538 391.142 71.6538C394.127 71.6538 397.791 72.2778 402.022 73.4979C424.988 80.1004 424.988 92.6261 424.988 101.925L424.994 115.261C424.994 116.325 425.671 117.276 426.672 117.618C432.233 119.509 435.002 120.494 440.802 122.643C441.564 122.925 442.416 122.821 443.091 122.35C443.753 121.887 444.146 121.118 444.146 120.306V109.147C444.153 95.0748 444.153 71.5171 403.089 59.7308C374.373 51.485 359.722 60.3056 359.722 85.2436C359.722 105.953 372.406 118.344 393.418 138.882L397.663 143.036C422.611 167.502 427.659 175.585 427.659 191.077C427.659 196.645 426.822 200.538 425.094 202.977C423.341 205.449 420.518 206.6 416.215 206.6C412.897 206.6 408.686 205.872 403.696 204.434C392.79 201.284 384.866 196.998 380.16 191.682C374.426 185.216 374.426 179.731 374.426 168.795V156.955C374.426 155.791 373.621 154.782 372.487 154.523C366.355 153.15 363.421 152.528 357.516 151.376C356.788 151.235 356.03 151.421 355.462 151.893C354.885 152.368 354.552 153.066 354.552 153.818V174.763C354.552 194.462 370.657 209.472 401.125 218.175C409.718 220.63 417.153 221.882 423.234 221.882C447.106 221.876 447.106 202.635 447.106 194.415C447.106 172.759 436.083 160.355 414.977 138.513C383.211 105.658 379.573 100.35 379.573 86.8291Z" fill="white"/>
<path fill-rule="evenodd" clip-rule="evenodd" d="M147.919 203.299V53.9167C147.919 53.1667 147.586 52.4615 147.013 51.9915C146.435 51.515 145.675 51.3205 144.946 51.4744C139.008 52.6731 136.127 53.2949 130.306 54.6453C129.164 54.9038 128.367 55.9252 128.376 57.094L129.585 165.765C129.585 172.976 129.781 179.6 130.071 185.538C115.393 147.998 100.102 109.137 84.5197 69.7863C84.035 68.5598 82.679 67.9188 81.4277 68.3419C72.7602 71.2137 68.5599 72.6987 60.0398 75.9188C59.0704 76.282 58.4297 77.2094 58.4297 78.2436V227.632C58.4297 228.442 58.8333 229.212 59.5017 229.675C59.9202 229.97 60.4135 230.115 60.9132 230.115C61.2121 230.115 61.509 230.064 61.793 229.957C67.0609 227.966 69.713 227.004 75.3099 225.06C76.3178 224.707 76.9904 223.756 76.984 222.692C76.7747 187.353 76.5761 152.015 76.3882 116.688C76.3882 107.391 76.2729 102.194 75.9825 95.609C91.2952 134.607 106.204 172.788 120.37 209.308C120.823 210.47 122.068 211.128 123.283 210.823C132.382 208.568 136.824 207.568 145.933 205.737C147.084 205.502 147.919 204.481 147.919 203.299Z" fill="white"/>
<path fill-rule="evenodd" clip-rule="evenodd" d="M166.866 201.906C166.996 201.906 167.127 201.895 167.257 201.872C192.416 197.838 218.091 195.564 243.558 195.135C244.914 195.107 245.996 194.002 245.996 192.641V183.338C245.996 182.667 245.732 182.032 245.253 181.562C244.777 181.094 244.096 180.835 243.47 180.846C219.614 181.256 206.868 182.15 184.062 185.118V126.021C202.992 123.549 212.988 122.737 232.798 122.004C234.134 121.951 235.192 120.859 235.192 119.519V110.417C235.192 109.741 234.92 109.088 234.431 108.62C233.944 108.15 233.289 107.897 232.612 107.927C213.229 108.641 202.789 109.483 184.368 111.861V59.3312C207.588 56.3141 219.699 55.4551 243.863 55.0556C245.221 55.0342 246.31 53.9295 246.31 52.5662V43.2564C246.31 42.594 246.043 41.9487 245.567 41.4829C245.089 41.0192 244.427 40.75 243.782 40.7735C217.98 41.1966 191.969 43.4872 166.469 47.5727C165.267 47.7735 164.38 48.812 164.38 50.0342V199.417C164.38 200.145 164.694 200.838 165.252 201.308C165.707 201.697 166.277 201.906 166.866 201.906Z" fill="white"/>
<path fill-rule="evenodd" clip-rule="evenodd" d="M350.525 354.575C350.139 354.857 349.763 355.128 349.387 355.41C348.783 355.868 348.161 356.314 347.497 356.773C346.961 363.818 345.671 370.81 343.653 377.564C347.162 376.342 348.366 377.752 348.706 378.575C348.759 378.677 348.783 378.797 348.812 378.915C354.552 367.626 358.353 355.34 359.916 342.547C358.144 346.81 355.268 351.263 350.525 354.575Z" fill="white"/>
<path fill-rule="evenodd" clip-rule="evenodd" d="M333.515 389.628C332.084 390.637 330.628 391.682 329.043 392.786C324.871 395.686 320.786 398.154 316.453 400.761C314.429 401.983 312.351 403.229 310.199 404.568C295.336 413.776 277.557 423.972 258.484 429.81C252.943 431.536 247.841 432.759 242.894 433.545C238.303 434.226 234.002 434.568 229.708 434.568L228.875 434.556C223.253 434.519 217.78 434.004 212.544 433.017C232.482 440.1 254.666 441.637 276.737 436.165C289.396 433.017 300.982 427.825 311.256 421.036C321.102 413.329 329.062 402.37 334.168 389.156C333.952 389.31 333.732 389.472 333.515 389.628Z" fill="white"/>
<path fill-rule="evenodd" clip-rule="evenodd" d="M346.269 382.145C346.182 381.709 346.081 381.686 345.849 381.686C345.513 381.686 344.732 381.838 343.171 382.861C342.902 383.06 342.594 383.261 342.297 383.449C342.022 383.637 341.764 383.801 341.52 383.977C338.734 391.329 335.084 398.271 330.882 404.474C336.985 397.966 342.268 390.767 346.615 383.026H346.464L346.269 382.145Z" fill="white"/>
<path fill-rule="evenodd" clip-rule="evenodd" d="M357.053 301.318C356.177 309.541 352.163 317.154 345.014 323.977C346.897 332.175 347.843 340.421 347.832 348.515C348.112 348.316 348.383 348.128 348.637 347.951C357.969 341.444 360.382 330.906 360.728 329.169C360.702 320.335 359.622 311.35 357.352 302.387C357.264 302.021 357.147 301.682 357.053 301.318Z" fill="white"/>
<path fill-rule="evenodd" clip-rule="evenodd" d="M342.844 315.778C344.527 314.017 345.883 312.1 346.897 310.058C354.734 294.998 347.715 278.12 344.768 272.246C322.968 236.241 281.796 215.038 238.864 219.162C283.31 221.571 326.368 261.357 342.844 315.778Z" fill="white"/>
<path fill-rule="evenodd" clip-rule="evenodd" d="M218.766 407.186L218.495 254.485C218.495 253.558 218.824 252.677 219.533 251.996C220.25 251.303 221.145 250.938 222.07 250.938L253.594 250.855C262.445 250.818 269.411 253.453 274.019 258.551C279.225 264.494 279.936 271.825 280.145 278.261L280.218 301.517C280.259 303.504 280.31 308.59 278.969 312.677C277.476 317.282 274.771 320.934 270.814 323.59C273.357 324.611 275.488 325.891 277.254 327.372C285.774 334.453 285.774 344.451 285.774 352.626L285.828 378.75C285.605 388.017 284.807 396.263 277.102 403.25C268.397 410.675 257.944 410.712 254.538 410.712L222.473 410.806C221.747 410.806 221.049 410.594 220.479 410.229C219.405 409.607 218.766 408.41 218.766 407.186ZM232.467 428.977C245.142 427.483 255.642 424.278 267.585 418.276C269.343 417.417 271.053 416.523 272.763 415.632C274.213 414.88 275.657 414.115 277.13 413.389C287.265 408.066 298.136 402.299 311.318 395.231C315.968 392.739 320.598 390.096 325.076 387.536L330.329 384.598C332.359 383.517 334.273 382.485 336.199 381.323C336.374 381.203 336.598 381.064 336.837 380.91C338.516 374.744 339.615 368.049 340.119 360.977C329.502 366.288 314.486 371.092 293.669 375.801L293.656 368.026C312.338 363.974 329.472 358.006 340.294 352.756C340.26 345.036 339.556 337.19 338.193 329.417C333.481 332.269 328.153 333.609 321.578 333.609C314.963 333.609 306.976 332.34 293.993 329.239C292.227 328.816 290.376 328.265 288.452 327.618C287.271 325.739 285.828 323.908 284.049 322.167C285.059 320.37 285.928 318.432 286.592 316.365C291.962 318.575 296.944 320.325 301.352 321.429C315.985 325.058 328.01 324.729 336.449 320.487C336.417 320.335 336.391 320.171 336.359 320.006C336.233 319.408 336.109 318.808 335.94 318.222C328.808 288.269 291.375 222.739 226.524 222.739C223.801 222.739 221.019 222.891 218.245 223.132C193.157 230.393 172.54 245.808 158.562 265.739C160.921 264.976 164.028 264.295 168.235 264.295C176.146 264.295 186.008 266.75 197.536 271.611C201.498 273.267 205.92 275.359 210.667 277.72L210.677 285.767C209.973 285.402 209.215 284.979 208.536 284.652C176.975 269.028 159.051 271.214 154.291 272.246C143.027 290.981 137.357 313.043 138.816 335.759C140.945 338.791 151.718 352.19 181.395 361.977C193.029 365.816 202.369 368.496 210.84 370.306L210.859 379.947C198.544 377.763 186.567 374.263 175.1 369.421C153.665 360.378 143.512 347.87 139.275 340.985C139.826 345.885 140.682 350.795 141.916 355.714C148.942 383.553 166.033 406.261 188.359 420.987L188.252 420.799L191.399 422.658C193.938 424.171 197.103 425.476 200.808 426.545C207.775 428.624 214.636 429.645 221.811 429.645C225.207 429.645 228.694 429.423 232.467 428.977Z" fill="white"/>
<path fill-rule="evenodd" clip-rule="evenodd" d="M237.777 316.635L243.393 316.622C249.048 316.436 250.286 316.201 252.887 315.472C262.204 312.677 262.304 304.701 262.445 300.002C262.445 299.391 262.445 298.934 262.494 298.618L262.445 280.397C262.204 276.265 261.815 273.844 261.395 272.447C260.893 271.096 260.064 270.096 258.7 269.252C255.721 267.419 251.094 267.301 246.942 267.147H237.557C236.772 267.241 236.496 267.677 236.496 268.442C236.496 268.442 236.56 315.026 236.56 315.472C236.56 316.201 236.819 316.684 237.777 316.635Z" fill="white"/>
<path fill-rule="evenodd" clip-rule="evenodd" d="M243.944 333.068C243.944 333.068 238.779 333.115 237.871 333.115C236.955 333.115 236.819 333.737 236.819 334.197C236.819 334.607 236.955 383.682 236.955 392.585C236.955 393.622 237.372 394.278 238.471 394.278C239.383 394.278 251.478 394.244 251.478 394.244C258.505 394.006 261.252 393.068 263.509 391.447C267.269 388.534 267.88 383.895 267.88 374.028L267.826 352.38C267.826 349.348 267.668 346.083 266.699 343.158C265.612 340.293 263.917 338.13 261.395 336.628C257.045 333.844 250.336 333.374 243.944 333.068Z" fill="white"/>
</svg>
