<svg width="500" height="500" viewBox="0 0 500 500" fill="none" xmlns="http://www.w3.org/2000/svg">
<g clip-path="url(#clip0_10_2227)">
<path fill-rule="evenodd" clip-rule="evenodd" d="M453.904 192.994C452.188 162.838 438.688 135.79 430.622 119.629L429.663 117.704L426.155 110.681L426.874 118.5C427.864 129.311 430.252 166.219 419.256 187.133C405.618 215.507 365.51 212.757 352.329 211.852L351.327 211.781C329.667 210.342 259.219 207.836 237.636 207.931C209.089 208.051 177.589 210.372 152.28 212.238C139.884 213.151 129.173 213.941 121.965 214.215C121.374 214.235 120.527 214.316 119.351 214.426C83.8622 217.732 61.4432 207.268 52.7156 183.32C47.3626 168.636 47.4941 139.594 47.5575 125.639L47.5694 121.467L47.5892 115.605C47.5892 115.612 44.8026 120.767 44.8026 120.767C38.1351 133.1 25.7296 156.054 21.5611 194.137C19.2221 239.027 42.5405 255.125 60.2832 263.334C78.8206 271.915 97.7557 273.148 103.98 273.551L104.429 273.581L104.259 273.557C105.536 273.794 106.996 273.857 108.54 273.927C110.459 274.013 112.524 274.12 114.65 274.524C111.294 275.173 106.878 275.926 103.003 276.592C98.8713 277.299 94.9707 277.972 92.9447 278.402C88.7453 279.292 70.8814 283.462 61.2585 286.746C53.0809 289.538 44.286 293.689 44.1965 293.729L42.5967 294.492L43.6315 295.929C43.7543 296.098 46.7129 300.186 49.7792 303.207C56.0735 309.401 73.5643 320.434 94.6973 317.806C111.59 315.711 120.641 311.783 124.13 309.94C125.221 313.565 127.839 321.987 130.475 328.54C138.089 347.459 155.407 383.502 161.924 396.039C167.193 406.179 172.432 415.188 175.903 421.144L177.147 423.296C176.006 427.174 173.297 429.596 171.28 431.372C170.735 431.848 170.269 432.258 169.875 432.658L169.485 433.057L169.458 433.617C169.295 437.115 168.478 468.445 189.791 491.398L190.021 491.645L190.343 491.768C200.956 495.835 214.814 500 237.135 500C259.905 500 279.06 494.602 285.781 491.204L286.051 491.071L286.244 490.845C301.115 473.255 307.874 446.8 308.038 437.189L308.047 436.575L307.618 436.135C307.248 435.756 306.862 435.383 306.455 434.994C304.143 432.771 301.278 430.019 299.646 423.516C301.451 420.402 304.999 412.989 307.888 406.956C309.5 403.581 310.899 400.662 311.668 399.16C317.961 386.91 336.325 347.499 343.624 328.876C348.235 317.109 350.827 311.219 351.942 308.781C355.164 310.524 363.858 314.375 380.281 316.074C401.578 318.276 421.878 304.01 427.531 296.248C428.484 294.942 430.092 293.06 430.109 293.043L431.382 291.551L429.6 290.745C429.485 290.691 428.757 290.378 425.586 289.296L413.803 285.344L402.047 281.403C398.845 280.311 384.471 277.192 373.975 274.92L366.036 273.185L368.625 272.715C392.946 268.41 457.539 256.971 453.904 192.994Z" fill="#0F1216"/>
<path fill-rule="evenodd" clip-rule="evenodd" d="M27.0646 180.034C30.6198 161.697 36.4752 144.55 44.4651 128.088L44.5601 127.895H44.9381V128.239V127.895H45.2994L45.2835 128.254C45.0641 133.178 44.9143 138.244 44.9143 143.349C44.9143 155.494 45.7542 167.851 48.4663 178.953L48.7302 180.034L47.9022 179.293C44.37 176.137 40.8568 172.518 37.1986 169.369C33.9825 172.972 30.9003 176.89 27.6541 180.335L26.8372 181.201L27.0646 180.034Z" fill="#BB1C3F"/>
<path fill-rule="evenodd" clip-rule="evenodd" d="M447.649 172.513L447.315 172.595L447.643 172.496C442.951 157.006 438.759 141.326 431.078 127.114L430.431 127.299C430.736 132.218 430.892 137.11 430.892 141.962C430.892 153.844 429.962 165.498 428.039 176.809L427.927 177.468L428.529 177.177C432.293 175.358 435.868 172.91 439.714 171.269L449 177.975L447.649 172.513Z" fill="#BB1C3F"/>
<path fill-rule="evenodd" clip-rule="evenodd" d="M296.06 338.121L295.348 338.435C290.074 340.76 284.661 343.076 278.945 344.208C275.243 345.162 271.489 345.653 267.787 345.653C256.191 345.65 245.116 340.859 238.258 330.353L238.039 330.017L237.741 330.284C236.364 331.509 235.536 333.012 234.099 334.299C226.798 342.708 216.201 345.926 205.38 345.927C196.972 345.927 188.444 343.979 181.307 341.013L180.573 340.708L180.852 341.454C186.329 355.964 189.684 372.065 189.684 388.246C189.684 395.493 189.011 402.758 187.556 409.905C186.551 414.917 184.881 420.116 183.538 424.997L183.325 425.765L184.031 425.393C199.476 417.211 218.339 413.064 237.154 413.067C254.958 413.067 272.717 416.777 287.494 424.27C289.93 425.273 292.215 426.971 294.436 427.689L295.089 427.9L294.868 427.25C290.563 414.485 288.021 400.924 288.021 386.728C288.021 386.531 288.022 386.333 288.024 386.132C287.999 385.221 287.989 384.323 287.989 383.426C287.989 367.916 291.244 352.639 295.815 338.858L296.06 338.121Z" fill="#BB1C3F"/>
<path fill-rule="evenodd" clip-rule="evenodd" d="M144.993 353.128C143.342 351.083 141.999 348.838 141.504 346.231L141.355 345.442L142.03 345.876C144.806 347.663 147.856 348.4 150.989 348.4C157.442 348.405 164.222 345.234 169.293 341.666L169.53 341.5L169.735 341.704L169.902 341.87L169.659 342.115L169.902 341.87L170.018 341.986L170.002 342.151C169.305 348.736 166.952 356.288 159.958 358.872C158.919 359.139 157.899 359.263 156.905 359.263C152.222 359.261 148.146 356.525 144.993 353.128Z" fill="#BB1C3F"/>
<path fill-rule="evenodd" clip-rule="evenodd" d="M309.121 350.616C307.622 348.377 306.793 345.968 306.307 343.242L306.149 342.348L306.861 342.911C310.329 345.655 314.702 346.845 319.174 346.846C324.423 346.846 329.8 345.197 333.929 342.539L334.761 342.002L334.443 342.939C332.402 348.904 327.229 355.013 320.939 356.382C320.392 356.458 319.846 356.496 319.311 356.496C315.19 356.498 311.475 354.277 309.121 350.616Z" fill="#BB1C3F"/>
<path fill-rule="evenodd" clip-rule="evenodd" d="M317.158 359.38C317.976 359.551 318.798 359.626 319.619 359.626C321.992 359.626 324.375 358.996 326.694 358.263L327.388 358.042L327.117 358.72C318.448 380.387 307.976 401.35 297.181 422.149L296.818 422.846L296.55 422.107C294.377 416.124 293.757 409.77 293.757 403.273C293.757 398.508 294.089 393.665 294.394 388.817C295.948 374.834 299.312 361.381 303.494 348.437L303.749 347.651L304.129 348.386C306.699 353.388 311.567 358.544 317.138 359.377" fill="#BB1C3F"/>
<path fill-rule="evenodd" clip-rule="evenodd" d="M180.306 422.231C167.235 402.29 157.305 381.201 147.708 359.796L147.295 358.873L148.186 359.352C150.786 360.747 154.272 361.855 157.593 361.853C159.829 361.853 161.987 361.352 163.774 360.128C167.977 357.191 170.44 352.566 172.097 347.896L172.37 347.128L172.732 347.857C179.94 362.449 183.4 380.105 183.401 397.578C183.401 405.851 182.623 414.087 181.1 421.939L181.081 422.04L181.008 422.115L180.542 422.589L180.306 422.231Z" fill="#BB1C3F"/>
<path fill-rule="evenodd" clip-rule="evenodd" d="M191.797 489.007L191.728 488.977L191.677 488.921C178.358 474.312 173.338 455.52 172.616 435.635L172.609 435.451L172.758 435.342C190.272 422.59 213.683 415.855 236.77 415.853C251.923 415.853 266.938 418.754 280.056 424.78C288.436 428.529 296.502 432.619 303.909 438.571L303.693 438.841L303.909 438.571L304.058 438.691L304.035 438.882C301.794 457.59 295.104 474.266 283.309 488.723L283.252 488.794L283.169 488.828C269.121 494.31 252.563 497.269 236.07 497.269C220.538 497.269 205.063 494.641 191.797 489.007Z" fill="#BB1C3F"/>
<path fill-rule="evenodd" clip-rule="evenodd" d="M426.015 292.479C426.013 292.479 417.784 289.325 415.666 288.529C393.083 280.025 364.057 274.837 339.398 274.242C337.042 246.763 333.881 229.586 328.532 214.064L328.458 213.845L328.226 213.832C315.511 213.093 259.103 210.823 237.303 210.823C215.496 210.823 160.104 214.254 147.398 214.994L147.167 215.005L147.092 215.224C141.976 230.022 136.148 248.47 133.437 275.646C108.51 277.17 74.954 284.309 52.3741 292.812C50.7356 293.429 49.5399 294.015 48.7302 294.445C48.3261 294.659 48.0171 294.837 47.8047 294.956C47.7524 294.985 47.7057 295.011 47.6653 295.033L46.9744 294.253L47.2208 295.502C47.2335 295.572 47.2667 295.628 47.3087 295.672C50.768 299.592 63.4786 314.841 87.0973 315.376C87.4839 315.384 87.8888 315.385 88.3072 315.385C96.0221 315.384 109.087 313.89 117.836 310.063C119.966 309.121 124.09 307.426 125.214 306.965C125.636 307.769 126.873 310.175 127.493 311.903C130.033 318.949 133.05 329.054 135.266 333.469C138.555 340.026 143.903 345.288 152.581 345.484C152.698 345.487 152.813 345.487 152.926 345.487C160.756 345.467 166.172 339.204 167.117 337.876L167.479 337.362L166.853 337.332C145.014 336.236 136.084 324.64 134.604 307.12L134.581 306.854L134.321 306.808C131.741 306.349 130.105 305.983 129.089 305.43C128.081 304.875 127.631 304.192 127.291 302.848C127.147 302.259 127.077 301.663 127.077 301.053C127.075 298.913 127.945 296.578 129.562 293.88C131.258 291.626 133.741 289.397 138.69 289.387C140.737 289.387 143.21 289.775 146.219 290.729C153.013 292.872 158.454 297.258 162.256 300.588C166.786 304.555 179.955 318.282 187.939 323.078C192.631 325.892 199.757 328.514 207.014 328.516C212.812 328.519 218.708 326.827 223.433 322.193C233.585 312.24 234.815 303.673 236.144 298.371L236.249 297.952L235.819 297.942C218.304 297.442 201.706 295.727 186.417 293.613C184.653 293.356 184.125 292.613 184.125 291.986C184.126 291.216 184.98 290.3 186.382 290.299C186.653 290.299 186.941 290.332 187.248 290.411C187.297 290.42 216.143 294.236 236.344 294.367L236.667 294.368L236.69 294.045C236.85 291.686 236.888 287.559 237.029 282.905L237.039 282.559L236.692 282.55C224.714 282.277 204.604 281.017 185.535 277.176C183.885 276.834 183.241 275.84 183.238 275.01C183.253 274.209 183.797 273.509 184.988 273.491C185.256 273.491 185.553 273.529 185.883 273.62C188.719 274.366 219.765 278.757 236.659 278.762C236.712 278.762 236.759 278.761 236.799 278.762L237.148 278.773L237.154 278.424C237.226 274.815 237.261 269.731 237.279 264.842L237.281 264.496L236.934 264.498C236.588 264.499 236.236 264.499 235.879 264.499C224.947 264.499 209.138 263.398 186.651 259.973C184.811 259.682 184.16 258.796 184.165 258.105C184.167 257.4 184.826 256.648 186.226 256.637C186.35 256.637 186.48 256.643 186.616 256.658C186.613 256.658 214.065 260.74 235.471 260.741C235.963 260.741 236.451 260.738 236.938 260.736L237.279 260.733V260.391C237.279 257.072 237.266 253.204 237.232 249.313C237.232 249.283 237.231 249.263 237.231 249.248C237.238 247.139 238.174 246.296 238.854 246.293C239.494 246.296 240.325 247.027 240.334 248.97C240.334 250.444 240.415 254.635 240.415 259.883V260.18L240.418 260.532L240.772 260.521C261.466 259.887 279.673 257.465 288.211 255.944C288.705 255.854 289.136 255.814 289.51 255.814C291.207 255.845 291.652 256.521 291.669 257.178C291.676 257.858 291.097 258.636 290.235 258.788C287.439 259.296 263.463 263.933 240.643 264.427L240.304 264.434L240.307 264.772C240.316 268.797 240.462 274.035 240.532 278.297L240.537 278.647L240.888 278.635C256.222 278.086 273.983 277.513 289.239 274.144C289.949 273.987 290.57 273.918 291.103 273.918C292.885 273.933 293.543 274.636 293.544 275.236C293.571 275.925 292.647 276.987 290.468 277.348C275.52 279.842 253.962 282.399 240.992 282.499L240.641 282.503L240.649 282.853C240.742 286.588 240.775 291.114 240.963 294.081L240.984 294.41L241.317 294.403C265.784 293.819 288.952 290.345 292.897 289.664C293.183 289.615 293.449 289.591 293.692 289.591C295.226 289.605 295.931 290.427 295.932 291.206C295.934 291.966 295.256 292.889 293.414 293.154C289.101 293.739 260.397 297.449 242.012 297.909L241.566 297.918L241.692 298.349C243.507 304.575 243.859 313.632 252.89 321.401C257.305 325.199 263.243 326.906 269.365 326.906C275.397 326.905 281.615 325.248 286.773 322.273C294.841 317.596 307.599 303.621 312.124 299.662C315.886 296.361 324.47 288.411 335.954 288.418C336.115 288.418 336.271 288.418 336.426 288.423C342.327 288.542 345.2 290.096 346.708 291.786C348.222 293.488 348.394 295.353 348.757 296.369C349.02 297.087 349.24 298.051 349.239 299.027C349.232 300.464 348.784 301.878 347.359 302.753C345.348 303.994 343.455 303.664 341.334 304.637L341.167 304.714L341.137 304.895C339.632 314.469 336.627 325.363 329.12 331.054C325.069 334.137 319.839 335.873 315.624 336.826C311.412 337.781 308.234 337.953 308.228 337.956L307.503 337.997L307.992 338.533C307.995 338.536 309.77 340.486 310.363 341.052C311.699 342.314 315.476 344.147 320.422 344.157C320.949 344.157 321.489 344.135 322.041 344.09C327.448 343.632 333.676 339.522 336.333 336.799C340.354 331.573 344.049 320.743 346.77 313.769C347.737 311.283 349.925 306.972 350.813 304.755C353.043 305.808 354.336 306.502 358.592 308.215C367.416 311.746 378.617 313.304 386.144 313.306C386.574 313.306 386.992 313.301 387.396 313.292C399.683 312.978 413.579 305.544 421.956 297.773C423.425 296.408 426.152 293.027 426.158 293.02L426.458 292.648L426.015 292.479Z" fill="#BB1C3F"/>
<path fill-rule="evenodd" clip-rule="evenodd" d="M250.349 443.436C249.055 445.613 248.48 448.116 248.48 450.663C248.476 454.78 249.994 458.999 252.375 462.073C252.524 462.273 252.715 462.355 252.947 462.36C253.212 462.36 253.515 462.228 253.727 461.986C253.729 461.912 253.729 461.84 253.729 461.766C253.749 459.327 252.175 457.211 252.153 454.541C252.153 453.917 252.247 453.264 252.472 452.585L252.707 451.874L253.095 452.514C255.488 456.474 259.351 458.973 263.376 460.319C264.952 460.731 266.523 460.932 268.061 460.932C273.437 460.93 278.419 458.498 281.947 454.166C283.611 451.812 284.893 448.848 284.89 445.938C284.89 444.571 284.612 443.216 283.965 441.923L283.963 441.924C281.424 436.99 276.282 434.147 271.12 433.294C270.234 433.2 269.353 433.154 268.476 433.154C260.993 433.157 254.01 436.497 250.349 443.436Z" fill="#0F1216"/>
<path fill-rule="evenodd" clip-rule="evenodd" d="M221.07 464.023C221.497 464.044 222.012 463.544 222.362 462.942C224.328 459.856 225.658 455.851 225.656 451.944C225.656 449.378 225.086 446.857 223.767 444.647L224.063 444.471L223.756 444.631C221.699 440.681 217.496 437.5 213.477 436.163C211.188 435.417 208.769 435.032 206.369 435.032C200.623 435.033 195.005 437.235 191.462 441.977C190.1 443.773 189.412 446.08 189.412 448.378C189.412 449.585 189.6 450.786 189.978 451.903C191.872 457.169 196.868 461.332 202.157 462.335C203.347 462.547 204.517 462.652 205.661 462.652C211.816 462.651 217.243 459.633 221.103 454.342L221.486 453.814L221.707 454.427C221.874 454.894 221.932 455.384 221.932 455.875C221.929 456.96 221.65 458.06 221.539 458.949C221.356 460.5 220.138 461.697 220.176 462.77C220.177 463.115 220.276 463.46 220.581 463.863C220.768 463.982 220.927 464.023 221.07 464.023Z" fill="#0F1216"/>
<path fill-rule="evenodd" clip-rule="evenodd" d="M193.187 484.351C206.651 478.694 222.74 475.427 238.712 475.427C250.765 475.427 262.753 477.288 273.511 481.407C276.207 482.557 279.063 483.494 281.781 484.334C282.468 483.449 282.799 483.248 283.258 482.466C270.125 476.021 254.712 473.03 239.225 473.03C222.692 473.03 206.075 476.441 192.067 482.677C192.336 483.376 192.693 483.829 193.187 484.351Z" fill="#0F1216"/>
<path fill-rule="evenodd" clip-rule="evenodd" d="M204.927 384.841C212.975 394.869 224.994 399.312 237.289 399.314C241.804 399.314 246.354 398.715 250.747 397.571C271.233 391.888 283.6 369.556 287.836 350.021C287.238 349.46 286.71 349.35 285.936 349.11C283.375 360.613 278.471 371.903 271.219 381.405C262.543 391.975 249.736 397.319 237.121 397.319C232.638 397.319 228.177 396.646 223.935 395.291C205.173 389.438 195.434 368.869 193.616 350.25C192.85 350.258 192.325 350.3 191.729 350.723C192.994 363.552 196.842 374.983 204.927 384.841Z" fill="#0F1216"/>
<path fill-rule="evenodd" clip-rule="evenodd" d="M43.0579 5.86532C39.4694 2.80351 34.2606 0.618089 28.9441 0.801925C23.263 1.00478 2 8.11254 2 39.7861C2 71.4572 21.0643 81.5777 32.6118 81.5777C44.1592 81.5777 55.7819 72.8376 59.5598 57.4026C60.1057 55.1537 59.7428 54.8709 57.5409 53.84L50.0256 51.0293C48.2817 50.3732 48.1938 50.4667 47.094 53.4667C46.3381 55.519 43.0579 64.7124 35.3604 64.7124C27.6636 64.7124 24.3628 53.2805 24.3628 41.4715C24.3628 29.6633 26.3816 18.42 35.9118 18.42C45.4436 18.42 47.3689 28.5793 48.0099 32.2885C48.2817 33.8843 48.4663 33.9747 50.3917 33.9747H57.3579C58.7318 33.9747 58.8237 33.8843 58.8237 30.603V4.92554C58.8237 3.24012 58.4584 3.24012 55.7082 3.24012H49.4781C48.1938 3.24012 48.2817 3.52142 47.2778 5.29876C46.6891 6.33996 45.259 7.73695 43.0579 5.86532Z" fill="#0F1216"/>
<path fill-rule="evenodd" clip-rule="evenodd" d="M313.531 45.5959H302.99C300.698 45.5959 300.545 45.5745 301.005 43.9818L307.477 23.7631C307.847 22.7306 308.26 22.7155 308.627 23.9335L315.062 44.0119C315.613 45.4144 315.455 45.5959 313.531 45.5959ZM346.066 66.3978H343.868C342.765 66.3978 342.719 66.2908 341.989 64.229L327.508 18.6228C327.055 17.1236 327.002 16.7354 328.381 16.7354H331.402C334.243 16.7354 334.334 16.7354 334.334 14.6696V6.05232C334.334 3.55469 334.154 3.24011 331.953 3.24011H293.823C290.705 3.24011 290.525 3.24011 290.525 5.86531V15.0484C290.525 17.0159 290.705 17.1086 292.91 17.1086H295.569C297.947 17.1086 297.947 17.4818 297.494 18.6997L282.673 64.8804C282.397 65.7227 281.91 66.3978 280.628 66.3978H278.793C276.595 66.3978 276.411 66.584 276.411 68.4596V77.0816C276.411 79.9881 276.411 80.0761 278.06 80.0761H297.86C300.145 80.0761 300.242 79.8621 300.242 78.2045V69.2084C300.242 66.6775 300.242 66.3978 298.227 66.3978H295.203C293.823 66.3978 293.866 66.3241 294.509 64.2591L296.684 57.4707C297.141 56.069 297.214 55.9968 299.233 55.9968H316.645C318.387 55.9968 318.816 56.0373 319.367 57.4445L321.542 64.2306C322.091 66.1046 322.145 66.3978 320.586 66.3978H317.834C316.002 66.3978 315.729 66.4929 315.822 69.2084V78.2045C315.822 79.9881 315.913 80.0761 318.207 80.0761H346.802C348.359 80.0761 348.448 79.9881 348.448 77.0816V68.4596C348.448 66.584 348.359 66.3978 346.066 66.3978Z" fill="#0F1216"/>
<path fill-rule="evenodd" clip-rule="evenodd" d="M396.477 53.0919H401.427C403.812 53.0919 403.812 53.4667 403.812 54.7774C403.812 59.088 400.511 64.7124 392.26 64.7124C384.565 64.7124 381.267 53.2805 381.267 41.4715C381.267 29.6633 383.279 18.42 392.812 18.42C400.755 18.42 404.066 24.1252 404.912 27.7892C405.279 29.3851 405.279 29.477 407.294 29.477H414.259C415.725 29.477 415.725 29.3851 415.725 26.1038V4.92554C415.725 3.24012 415.545 3.24012 412.61 3.24012H406.377C405.095 3.24012 404.912 3.42633 404.179 5.29876C403.739 6.41761 402.16 7.73695 399.962 5.86532C396.37 2.80351 391.16 0.618089 385.844 0.801925C380.16 1.00478 358.901 8.11254 358.901 39.7861C358.901 71.4572 377.966 81.5777 389.515 81.5777C406.928 81.5777 420.489 68.5278 420.489 43.3455C420.489 40.9105 420.215 40.7219 416.824 40.7219H396.111C394.092 40.7219 393.912 40.8487 393.912 43.1593V51.4041C393.912 53.0919 393.998 53.0919 396.477 53.0919Z" fill="#0F1216"/>
<path fill-rule="evenodd" clip-rule="evenodd" d="M463.324 67.8067C456.309 67.8067 450.619 56.4683 450.619 42.4826C450.619 28.4976 456.309 17.1585 463.324 17.1585C470.337 17.1585 476.026 28.4976 476.026 42.4826C476.026 56.4683 470.337 67.8067 463.324 67.8067ZM463.454 3C444.613 3 429.336 20.6815 429.336 42.4881C429.336 64.2971 444.613 81.9754 463.454 81.9754C482.296 81.9754 497.572 64.2971 497.572 42.4881C497.572 20.6815 482.296 3 463.454 3Z" fill="#0F1216"/>
<path fill-rule="evenodd" clip-rule="evenodd" d="M80.8846 64.6189V18.9826C80.8846 17.3883 80.7927 17.1086 79.0519 17.1086H76.8485C74.5562 17.1086 74.4683 16.8289 74.4683 15.3281V5.20921C74.4683 3.52141 74.5562 3.24011 77.3104 3.24011H104.163C106.178 3.24011 106.548 3.36689 106.548 5.48892V14.6696C106.548 16.7354 106.27 16.7354 104.163 16.7354H102.695C101.503 16.7354 101.322 16.7354 101.413 18.5167V31.5388C101.413 34.8186 101.413 35.1007 104.163 35.1007H118.46C121.21 35.1007 121.21 35.0071 121.21 31.5388V18.5167C121.21 16.7354 121.117 16.7354 119.924 16.7354H118.554C116.169 16.7354 116.077 16.546 116.077 14.6696V5.48892C116.077 3.45802 116.444 3.24011 118.46 3.24011H145.316C148.158 3.24011 148.158 3.33282 148.158 5.20921V15.3281C148.158 16.8289 148.063 17.1086 145.774 17.1086H143.481C141.833 17.1086 141.74 17.2005 141.74 18.9826V64.6189C141.74 66.3027 141.833 66.3978 143.85 66.3978H146.232C148.128 66.3978 148.158 66.4929 148.158 69.2084V78.2045C148.158 79.8019 148.158 80.0761 145.774 80.0761H117.452C115.616 80.0761 115.53 80.0761 115.53 77.1743V68.4596C115.436 66.4929 115.53 66.3978 117.913 66.3978H119.38C121.026 66.3978 121.026 66.3027 121.026 64.4287V50.4667C121.026 47 120.844 46.9057 118.46 46.9057H104.163C101.782 46.9057 101.598 47.1886 101.598 50.4667V64.4287C101.598 66.3978 101.598 66.3978 103.245 66.3978H104.712C107.097 66.3978 107.097 66.4929 107.097 68.4596V77.0816C107.097 79.9881 107.097 80.0761 105.169 80.0761H76.8485C74.4683 80.0761 74.4683 80.0761 74.4683 78.2045V69.2084C74.4683 66.4929 74.5562 66.3978 76.3905 66.3978H78.7746C80.8846 66.3978 80.8846 66.3978 80.8846 64.6189Z" fill="#0F1216"/>
<path fill-rule="evenodd" clip-rule="evenodd" d="M168.381 18.5167C168.381 16.7354 168.29 16.7354 167.099 16.7354H164.442C162.054 16.7354 161.965 16.546 161.965 14.6696V5.48892C161.965 3.45802 162.332 3.24011 164.347 3.24011H191.202C194.044 3.24011 194.044 3.33282 194.044 5.20921V15.3281C194.044 16.8289 193.952 17.1086 191.661 17.1086H190.471C188.82 17.1086 188.731 17.2005 188.731 18.9826V64.6189C188.731 66.3027 188.82 66.3978 190.836 66.3978H192.67C194.563 66.3978 194.595 66.4929 194.595 69.2084V78.2045C194.595 79.8019 194.595 80.0761 192.21 80.0761H163.888C162.054 80.0761 161.965 80.0761 161.965 77.1743V68.4596C161.874 66.4929 161.965 66.3978 164.347 66.3978H166.548C168.197 66.3978 168.381 66.3978 168.381 64.5222V18.5167Z" fill="#0F1216"/>
<path fill-rule="evenodd" clip-rule="evenodd" d="M246.167 5.86532C242.574 2.80351 237.365 0.618089 232.05 0.801925C226.366 1.00478 205.103 8.11254 205.103 39.7861C205.103 71.4572 224.169 81.5777 235.717 81.5777C247.263 81.5777 258.889 72.8376 262.663 57.4026C263.209 55.1537 262.846 54.8709 260.645 53.84L253.131 51.0293C251.391 50.3732 251.299 50.4667 250.197 53.4667C249.445 55.519 246.167 64.7124 238.467 64.7124C230.767 64.7124 227.469 53.2805 227.469 41.4715C227.469 29.6633 229.482 18.42 239.015 18.42C248.545 18.42 250.475 28.5793 251.113 32.2885C251.391 33.8843 251.573 33.9747 253.497 33.9747H260.464C261.837 33.9747 261.93 33.8843 261.93 30.603V4.92554C261.93 3.24012 261.564 3.24012 258.812 3.24012H252.583C251.299 3.24012 251.391 3.52142 250.38 5.29876C249.792 6.33996 248.364 7.73695 246.167 5.86532Z" fill="#0F1216"/>
<path fill-rule="evenodd" clip-rule="evenodd" d="M97.1155 159.513V146.487C97.1155 143.957 97.3001 143.77 100.233 143.77C102.982 143.77 113.617 144.143 113.617 153.513C113.617 162.884 103.532 162.51 100.233 162.51C97.3001 162.51 97.1155 162.51 97.1155 159.513ZM97.1155 116.03C97.1155 113.41 97.209 113.22 99.8657 113.22C102.617 113.22 113.617 113.594 113.617 122.964C113.617 132.336 103.532 131.962 100.233 131.962C97.1155 131.962 97.1155 131.773 97.1155 129.246V116.03ZM120.214 137.96C124.065 134.773 131.027 130.464 131.027 119.591C131.027 107.784 119.117 100.102 111.966 100.102H73.4707C70.3577 100.102 70.1715 100.288 70.1715 102.539V112.284C70.1715 113.784 70.3228 113.971 72.5548 113.971H75.1196C76.587 113.971 76.587 114.349 76.587 116.406V161.572C76.587 163.165 76.2209 163.26 74.6616 163.26H72.1864C70.3577 163.26 70.0796 163.543 70.1715 165.695V175.068C70.1715 176.754 70.4741 176.939 72.5548 176.939H114.348C124.798 176.939 132.496 167.567 132.496 156.887C132.496 146.206 125.714 141.897 120.214 137.96Z" fill="#0F1216"/>
<path fill-rule="evenodd" clip-rule="evenodd" d="M203.866 115.66V154.827C203.866 164.761 198.734 179.376 178.936 179.376C159.141 179.376 149.611 164.761 149.611 154.827V115.751C149.611 114.064 149.333 113.971 147.865 113.971H145.573C143.284 113.971 143.193 113.784 143.193 111.908V103.007C143.193 100.102 143.468 100.102 146.215 100.102H172.891C174.903 100.102 175.271 100.195 175.271 102.634V111.536C175.271 113.505 175.181 113.594 172.339 113.594H170.23C168.946 113.594 168.855 113.784 168.855 115.378V153.327C168.855 157.638 172.157 164.569 180.402 164.569C189.936 164.569 191.953 157.265 191.953 153.327V115.563C191.953 113.594 191.768 113.594 189.936 113.594H188.102C185.812 113.594 185.536 113.505 185.536 111.536V102.634C185.536 100.384 185.536 100.102 187.919 100.102H207.716C210.926 100.102 211.018 100.102 211.018 102.724V111.908C211.018 113.876 211.018 113.971 208.634 113.971H205.608C203.959 113.971 203.866 113.971 203.866 115.66Z" fill="#0F1216"/>
<path fill-rule="evenodd" clip-rule="evenodd" d="M296.801 163.26H294.143C292.311 163.26 292.128 163.543 292.128 166.07V175.068C292.128 176.939 292.311 176.939 294.509 176.939H343.638C345.803 176.939 346.016 176.939 346.016 173.945V151.827C346.016 149.861 345.929 149.766 343.638 149.766H336.489C334.287 149.766 334.197 149.956 334.197 152.579V160.358C334.197 163.356 333.921 163.446 331.905 163.446H320.999C317.694 163.446 317.607 163.165 317.607 161.102V116.781C317.607 113.876 317.607 113.594 319.346 113.594H322.005C324.117 113.594 324.203 113.41 324.203 111.536V102.918C324.203 100.195 324.204 100.102 321.825 100.102H295.428C292.217 100.102 292.128 100.323 292.128 102.724V111.908C292.128 113.784 292.311 113.971 294.509 113.971H296.622C298.453 113.971 298.547 114.097 298.547 116.781V161.197C298.547 163.074 298.453 163.26 296.801 163.26Z" fill="#0F1216"/>
<path fill-rule="evenodd" clip-rule="evenodd" d="M410.759 155.578C410.759 171.884 395.544 178.818 388.942 178.818C384.098 178.818 378.439 176.83 374.831 173.759C372.632 171.884 370.48 174.04 369.881 175.068C368.782 176.939 368.688 177.13 367.682 177.13H364.381C361.173 177.13 361.266 177.13 361.266 175.443V154.263C361.266 150.892 361.449 150.892 362.732 150.892H367.496C369.328 150.892 369.422 151.006 369.881 152.579C371.12 156.846 375.777 163.074 383.719 163.074C387.386 163.074 390.594 162.137 390.594 158.762C390.594 151.639 386.38 149.956 378.862 146.017C371.346 142.082 359.984 137.585 359.984 121.28C359.984 104.977 374.831 98.2282 381.427 98.2282C386.277 98.2282 391.387 100.214 394.991 103.29C397.193 105.165 399.342 103.01 399.942 101.978C401.134 99.9136 401.134 99.9136 402.144 99.9136H405.442C408.466 99.9136 408.559 99.9493 408.559 101.602V122.781C408.559 126.061 408.559 126.152 407.091 126.152H402.327C400.495 126.152 400.401 125.941 399.942 124.468C398.629 120.223 393.22 113.971 385.277 113.971C381.98 113.971 380.145 116.03 380.145 119.032C380.145 123.529 385.094 127.461 393.712 131.589C402.327 135.712 410.759 142.082 410.759 155.578Z" fill="#0F1216"/>
<path fill-rule="evenodd" clip-rule="evenodd" d="M228.552 163.26H225.892C224.061 163.26 223.876 163.543 223.876 166.07V175.068C223.876 176.939 224.061 176.939 226.259 176.939H275.385C277.553 176.939 277.766 176.939 277.766 173.945V151.827C277.766 149.861 277.68 149.766 275.385 149.766H268.24C266.041 149.766 265.947 149.956 265.947 152.579V160.358C265.947 163.356 265.668 163.446 263.655 163.446H252.746C249.447 163.446 249.357 163.165 249.357 161.102V116.781C249.357 113.876 249.357 113.594 251.099 113.594H253.755C255.864 113.594 255.954 113.41 255.954 111.536V102.918C255.954 100.195 255.954 100.102 253.569 100.102H227.174C223.97 100.102 223.876 100.323 223.876 102.724V111.908C223.876 113.784 224.061 113.971 226.259 113.971H228.366C230.199 113.971 230.288 114.097 230.288 116.781V161.197C230.288 163.074 230.199 163.26 228.552 163.26Z" fill="#0F1216"/>
<path fill-rule="evenodd" clip-rule="evenodd" d="M52.5128 191.834C63.2608 212.573 84.9334 219.25 106.974 218.195C119.31 218.092 131.157 216.806 143.331 216.033L143.326 216.874C137.132 234.338 133.117 252.129 130.553 270.443C98.6416 271.615 65.9277 269.087 42.3527 247.775C26.3824 231.531 22.3067 209.259 25.7779 187.256C29.5819 182.739 33.4984 178.952 37.4688 174.436C42.7037 179.841 51.0683 184.26 52.5128 191.834Z" fill="white"/>
<path fill-rule="evenodd" clip-rule="evenodd" d="M449.37 182.524C450.176 185.726 450.323 188.754 450.633 192.12C452.155 216.676 441.545 239.319 420.595 251.816C397.663 265.649 371.16 270.386 343.035 271.075C342.555 268.551 342.242 265.352 341.929 262.494C339.707 246.343 336.665 230.015 332.139 214.519C362.239 214.178 398.876 222.109 418.75 194.471C421.401 190.619 424.053 187.096 426.379 182.906C430.829 180.91 435.12 178.076 439.406 175.745C443.014 177.611 445.758 180.488 449.37 182.524Z" fill="white"/>
<path fill-rule="evenodd" clip-rule="evenodd" d="M334.957 306.846C335.073 316.264 332.065 326.002 323.65 330.495C319.697 332.661 315.086 333.477 310.645 333.281C310.489 332.445 310.163 331.431 310.499 330.426C317.401 330.629 323.997 328.143 327.641 322.447C330.133 318.255 331.139 313.552 331.169 308.342C332.325 307.675 333.641 307.175 334.957 306.846Z" fill="white"/>
<path fill-rule="evenodd" clip-rule="evenodd" d="M165.047 332.414C163.803 332.624 163.217 332.941 160.871 332.424C149.8 332.424 138.209 323.546 138.887 308.508C140.193 307.998 141.667 308.194 143.028 308.635C143.028 317.173 146.476 328.836 164.591 328.836C165.836 330.815 164.638 331.015 165.047 332.414Z" fill="white"/>
</g>
<defs>
<clipPath id="clip0_10_2227">
<rect width="500" height="500" fill="white"/>
</clipPath>
</defs>
</svg>
