<svg width="500" height="500" viewBox="0 0 500 500" fill="none" xmlns="http://www.w3.org/2000/svg">
<mask id="mask0_10_2219" style="mask-type:alpha" maskUnits="userSpaceOnUse" x="125" y="3" width="248" height="495">
<path d="M125 497.132V3.57141H372.836V497.132H125Z" fill="white"/>
</mask>
<g mask="url(#mask0_10_2219)">
<path fill-rule="evenodd" clip-rule="evenodd" d="M231.704 252.535C233.79 250.289 236.133 248.017 238.54 245.735L238.272 275.332L238.304 275.307L237.901 317.185C213.301 324.682 201.561 325.928 193.183 323.964L192.129 323.664C189.751 322.721 189.34 320.571 189.329 319.989C188.926 303.464 217.386 267.91 231.704 252.535ZM282.169 258.896C281.715 259.753 372.836 206.596 372.836 206.596V188.403L368.376 183.86C343.901 160.575 307.44 160.421 270.472 170.503L270.508 83.8103C270.569 71.3175 270.697 59.4318 269.729 48.3746C268.694 37.0746 266.486 26.1246 261.594 16.171L255.383 3.57104L249.565 16.3568C244.683 27.0782 242.347 38.3425 241.19 49.8496C240.083 61.1353 240.083 72.9925 240.026 85.496L239.154 181.282C201.054 196.914 166.011 219.817 147.319 235.267L126.79 267.057L152.319 260.757C113.129 309.982 127.115 342.203 128.754 345.532C132.897 357.139 142.315 366.417 157.597 372.521C169.197 377.157 182.347 377.742 193.636 377.217C207.747 376.564 222.579 373.407 237.436 368.671L237.383 374.95C224.626 381.903 214.333 394.103 208.865 408.732C206.761 414.482 205.461 420.61 205.119 426.91C205.094 427.957 205.111 431.428 204.744 436.189C204.386 440.653 203.626 446.296 202.001 451.989L201.083 455.178L197.751 463.064C198.079 464.425 207.197 461.36 211.297 459.86C211.908 459.653 212.844 459.296 214.051 458.614C216.24 457.389 219.09 455.389 222.572 452.035C224.686 449.989 226.569 447.653 228.176 445.492C229.715 443.45 231.129 441.389 232.386 439.66C234.172 437.192 235.865 434.707 237.536 432.367L237.647 453.496L237.719 467.55L237.729 471.307C237.094 472.207 236.322 473.385 235.519 474.846C233.636 478.346 229.015 489.614 228.519 495.932C228.394 497.45 232.861 497.225 239.376 496.882C240.269 496.807 241.554 496.714 243.119 496.492C246.069 496.103 250.065 495.35 254.129 494.089C261.404 491.85 273.033 486.603 274.676 474.903L275.236 470.728L274.065 469.95C289.64 456.325 293.808 441.496 293.226 429.189C293.019 424.971 292.251 421.125 291.297 417.835L296.897 418.767L303.447 419.932L304.597 413.353C308.469 390.885 295.74 372.2 270.426 368.557V355.56C295.297 343.689 318.751 328.239 337.169 312.225L338.047 311.471L345.479 274.128L330.972 282.171C307.636 292.396 286.454 300.514 270.465 306.264L270.469 221.76C275.008 219.103 279.511 216.789 283.819 214.971C295.711 209.967 303.401 207.978 306.969 208.357C306.001 211.407 304.404 215.207 302.033 219.832C302.033 219.832 283.001 257.382 282.169 258.896Z" fill="#FDBA30"/>
</g>
<path fill-rule="evenodd" clip-rule="evenodd" d="M367.532 203.6L367.368 191.872L307.618 228.425C307.168 229.504 299.375 244.529 298.621 245.257L367.532 203.6Z" fill="#002C62"/>
<path fill-rule="evenodd" clip-rule="evenodd" d="M143.028 256.86C149.614 255.232 156.974 253.4 164.253 251.657C168.41 246.789 172.431 242.478 176.017 238.867C168.556 240.571 160.317 242.464 152.253 244.321C150.731 246.364 143.942 255.639 143.028 256.86Z" fill="#002C62"/>
<path fill-rule="evenodd" clip-rule="evenodd" d="M264.41 340.786C261.321 342.286 258.189 343.722 255.035 345.1C253.043 345.979 251.05 346.857 249.068 347.672C247.689 348.232 246.289 348.733 244.921 349.268C226.039 356.6 206.925 361.415 189.185 362.243C178.275 362.754 166.214 362.093 155.953 358.015C146.528 354.25 139.943 349.343 135.593 343.675C138.91 353.15 146.685 361.272 160.721 366.854C171.01 370.95 183.018 371.582 193.957 371.072C210.178 370.322 227.543 366.232 244.835 359.954C246.221 359.454 247.607 358.975 248.996 358.454C251.003 357.679 252.993 356.829 255.01 355.993C258.164 354.693 261.307 353.34 264.41 351.9C290.018 340.136 314.418 324.265 333.457 307.704L336.985 291.307C318.089 309.443 292.121 327.433 264.41 340.786Z" fill="#002C62"/>
<path fill-rule="evenodd" clip-rule="evenodd" d="M293.885 406.935C271.603 400.871 245.546 406.339 233.685 420.681C228.789 426.567 224.389 435.271 215.728 444.185C217.578 433.431 217.485 429.946 217.817 426.053C219.203 408.878 228.167 394.36 246.096 385.771C246.106 386.481 246.289 387.139 246.689 387.717C247.428 388.892 248.821 389.767 250.574 390.189C252.285 390.456 249.564 389.714 250.574 390.21C250.849 390.256 251.128 390.331 251.414 390.364C251.471 390.378 251.521 390.378 251.567 390.378C251.835 390.428 252.046 390.446 252.285 390.456C252.36 390.478 252.431 390.478 252.524 390.478C252.771 390.492 252.992 390.492 253.221 390.492H253.51C253.806 390.492 254.131 390.478 254.478 390.446C254.746 390.428 255.049 390.364 255.335 390.331C255.381 390.331 255.417 390.292 255.478 390.292C255.721 390.253 255.985 390.189 256.214 390.124H256.281C256.828 389.989 257.381 389.803 257.903 389.592C259.81 388.949 261.342 387.874 261.939 386.66V386.646C262.124 386.367 262.303 386.099 262.421 385.817C268.864 387.174 274.521 390.564 276.978 394.446C265.453 393.928 248.592 397.728 234.689 413.774C253.753 398.631 275.689 398.549 289.753 402.114C290.242 393.671 278.731 384.728 272.381 381.228C283.824 384.964 296.085 394.967 293.885 406.935ZM275.667 453.935C281.499 441.567 283.206 419.799 269.717 410.114L274.31 410.16C287.856 421.017 281.864 448.985 275.667 453.935ZM260.317 465.406C272.703 435.546 263.664 413.385 263.789 412.964C279.114 415.242 284.178 448.528 260.317 465.406ZM253.567 471.424C253.567 473.806 248.531 473.796 248.546 471.96L248.764 414.699C249.214 414.228 252.678 412.664 254.074 412.531L253.567 471.424ZM264.41 375.049V359.196C261.306 360.596 258.153 361.931 254.999 363.185L254.964 379.635C254.953 383.553 248.628 384.228 248.871 381.285L248.967 365.546C247.56 366.067 246.164 366.553 244.767 367.06L244.649 379.424L243.849 379.953C231.435 385.771 221.089 397.235 215.942 411.017C215.867 411.214 215.799 411.389 215.731 411.564C213.867 416.681 212.703 422.149 212.442 427.76C212.31 429.889 212.578 442.024 209.056 454.324C209.056 454.274 212.31 453.814 218.581 447.756C222.06 444.403 225.164 439.66 227.66 436.267C233.396 428.381 237.967 420.374 244.728 416.917L244.781 423.971C244.874 437.414 245.053 473.914 245.024 474.042C244.992 474.253 239.239 480.328 238.435 490.706C238.399 491.142 266.678 489.139 268.703 474.481C268.703 474.481 263.264 470.903 263.453 470.792C303.285 443.146 281.11 409.974 281.11 409.974C290.767 411.342 296.131 412.296 298.685 412.753C302.142 392.703 290.249 376.189 264.41 375.049Z" fill="#002C62"/>
<path fill-rule="evenodd" clip-rule="evenodd" d="M264.439 316.198C260.921 317.426 257.807 318.484 255.079 319.391C252.821 320.151 250.861 320.798 249.204 321.341C247.561 321.859 246.164 322.312 245.168 322.616C243.771 323.059 243 323.305 243 323.305C138.068 355.98 171.621 287.784 219.568 236.737C222.839 233.251 230.146 226.309 238.789 219.351L239.075 189.223C203.814 204.098 171.161 225.23 152.607 240.569C164.582 237.241 176.8 234.609 188.929 231.844C84.6857 331.53 145.068 384.194 244.979 344.209C246.332 343.676 247.721 343.012 249.086 342.451C251.061 341.609 253.039 340.809 255.046 339.901C258.136 338.509 261.275 336.98 264.411 335.401C286.743 324.309 310.464 308.966 334.443 288.712C306.268 301.08 281.179 310.38 264.439 316.198Z" fill="#860037"/>
<path fill-rule="evenodd" clip-rule="evenodd" d="M364.395 189.173C341.584 167.466 306.402 167.859 270.474 178.073V199.184C298.056 185.769 329.941 181.566 308.588 223.376L364.395 189.173Z" fill="#860037"/>
<path fill-rule="evenodd" clip-rule="evenodd" d="M277.101 200.509C274.998 201.398 272.805 202.452 270.473 203.659L270.469 215.077C274.505 212.795 278.269 210.877 281.873 209.355C294.269 204.134 304.865 200.841 310.708 202.72C311.587 188.845 296.558 192.32 277.101 200.509Z" fill="#002C62"/>
<path fill-rule="evenodd" clip-rule="evenodd" d="M238.738 224.769C232.795 229.655 227.285 234.733 222.692 239.669C209.22 254.176 178.063 291.976 178.563 311.819C178.678 317.019 180.503 320.672 183.524 323.112C183.424 322.33 183.349 321.526 183.328 320.672C182.831 300.815 213.995 263.026 227.478 248.53C230.774 244.983 234.563 241.358 238.617 237.776L238.738 224.769Z" fill="#002C62"/>
<path fill-rule="evenodd" clip-rule="evenodd" d="M256.258 19.6168C247.273 39.331 247.426 61.5239 247.33 86.0346L246.623 162.942L245.862 246.306H245.858L245.644 270.213V270.256L245.237 315.638C246.351 315.281 247.723 314.82 249.244 314.324L249.512 267.013V266.999L249.715 228.702L249.787 216.267L249.808 211.149L249.951 184.977L250.344 117.813L250.573 65.7418C251.548 67.5632 255.19 74.806 255.508 100.431L255.344 183.077L255.315 207.549L255.308 212.445L255.276 224.62L255.219 262.235V262.249L255.19 262.32L255.076 312.374C257.851 311.445 260.983 310.36 264.44 309.16L264.458 254.52V254.513V246.306L264.462 190.731V181.224V179.852V177.16V162.942H264.465L264.487 84.306C264.615 59.7703 265.062 37.5275 256.258 19.6168Z" fill="#002C62"/>
<path fill-rule="evenodd" clip-rule="evenodd" d="M220.285 420.65C221.128 418.7 222.068 416.842 223.075 415.089C230.178 402.746 241.032 395.057 250.482 390.325C248.732 389.903 247.335 389.025 246.6 387.853C236.107 393.514 223.689 404.36 220.285 420.65Z" fill="#FEFEFE"/>
</svg>
