<svg width="500" height="500" viewBox="0 0 500 500" fill="none" xmlns="http://www.w3.org/2000/svg">
<path fill-rule="evenodd" clip-rule="evenodd" d="M418.19 97.6683C387.231 60.3356 342.644 39.568 292.661 39.4831L92.7595 39.4998L0 460.888L170.656 461L195.144 359.031C218.072 359.031 278.342 359.056 278.275 359.056C335.444 359.451 382.352 340.102 413.925 303.088C471.272 240.668 461.197 149.544 418.19 97.6683Z" fill="#B6B7B6"/>
<path fill-rule="evenodd" clip-rule="evenodd" d="M186.413 347.929L161.933 449.893L13.8008 449.95L101.691 50.5979L292.633 50.7272C340.182 50.8129 380.905 70.0829 409.642 104.755C451.994 155.825 456.14 240.713 405.472 295.89C374.402 332.311 328.849 348.307 278.356 347.941L186.413 347.929Z" fill="#00264A"/>
<path fill-rule="evenodd" clip-rule="evenodd" d="M82.0112 139.309L165.706 139.369C175.322 139.369 185.559 147.444 181.122 159.653C178.378 167.204 176.279 175.951 175.299 184.166C174.54 190.58 181.71 194.626 185.815 194.626L356.383 194.744C359.585 194.744 361.285 193.834 361.285 192.308C361.285 190.783 361.138 185.131 360.524 181.17C359.932 177.387 359.307 176.743 356.248 176.743C334.989 176.725 326.318 167.254 304.039 152.892C281.756 138.532 249.076 130.266 220.987 130.25L84.0454 130.155L82.0112 139.309Z" fill="#F7C03B"/>
<path fill-rule="evenodd" clip-rule="evenodd" d="M185.344 249.715C182.393 243.392 179.665 235.882 177.992 228.967C175.877 220.116 168.395 212.927 155.575 212.916L65.8103 212.855L68.0349 202.794L358.975 202.988C361.868 202.988 361.254 204.206 361.11 207.407C360.943 210.626 360.2 216.576 359.729 220.083C359.27 223.588 356.373 222.76 353.61 222.822C347.057 222.968 334.89 224.514 327.794 229.831C315.733 238.888 290.03 254.782 275.564 259.413C260.069 264.339 202.133 282.07 185.168 249.415" fill="#F7C03B"/>
<path fill-rule="evenodd" clip-rule="evenodd" d="M49.7175 286.11L201.641 286.217C208.351 286.217 214.112 287.812 218.6 291.534C231.433 302.111 248.081 309.798 265.741 314.906C273.677 317.192 287.302 314.237 299.499 307.337C329.918 290.157 349.479 257.468 355.894 236.412C357.575 230.918 354.37 231.367 350.106 231.663C337.29 232.578 323.822 244.168 306.105 255.455C288.379 266.728 252.335 277.399 218.129 277.365L51.6691 277.258L49.7175 286.11Z" fill="#F7C03B"/>
<path fill-rule="evenodd" clip-rule="evenodd" d="M272.579 82.7611C274.722 82.3803 282.411 81.9068 286.687 83.5908C315.544 94.9483 342.845 124.981 354.269 156.893C356.472 163.032 357.013 166.968 354.264 167.279C341.035 168.736 334.873 162.219 319.306 151.682C303.738 141.14 289.396 133.956 269.687 127.684C250.269 121.505 214.885 120.625 210.305 120.471C205.739 120.317 206.318 118.4 208.31 116.419C225.261 99.5078 248.041 87.2254 272.579 82.7611Z" fill="#F7C03B"/>
<path fill-rule="evenodd" clip-rule="evenodd" d="M411.037 192.184C411.118 193.401 409.826 194.781 408.3 194.781C408.145 194.781 375.018 194.754 375.018 194.754C370.742 194.754 370.665 192.775 370.527 190.327C370.36 187.887 369.676 183.001 369.529 180.1C369.379 177.289 368.355 174.061 372.118 172.482C381.385 168.571 390.147 159.514 394.129 151.734C395.47 149.121 397.48 144.794 399.759 148.47C407.638 161.056 410.101 176.588 411.037 192.184Z" fill="#F7C03B"/>
<path fill-rule="evenodd" clip-rule="evenodd" d="M399.137 251.946C398.559 253.066 396.43 253.906 395.744 252.078C390.879 239.095 379.35 230.166 371.407 225.737C369.002 224.398 368.805 222.835 369.107 220.47C369.42 218.103 370.42 210.545 370.575 207.349C370.702 204.827 371.722 203 373.627 203L408.3 203.021C409.524 203.03 411.062 204.127 411.062 205.04C411.062 221.573 406.041 237.882 399.137 251.946Z" fill="#F7C03B"/>
<path fill-rule="evenodd" clip-rule="evenodd" d="M308.959 316.986C306.514 317.334 301.179 316.497 309.583 311.618C334.791 296.981 357.232 262.627 363.221 242.9C365.51 235.37 365.752 234.979 368.639 235.808C372.495 236.901 378.567 242.151 383.224 248.556C387.874 254.966 389.895 267.451 387.203 271.037C369.102 295.313 340.311 312.384 308.959 316.986Z" fill="#F7C03B"/>
<path fill-rule="evenodd" clip-rule="evenodd" d="M373.048 161.491C367.191 164.646 366.055 164.059 364.805 159.648C353.859 121.266 321.562 92.8439 308.371 84.4443C305.849 82.8555 306.502 81.7957 308.322 82.0369C339.934 86.2418 370.886 103.462 386.47 127.05C395.382 140.565 378.717 158.44 373.048 161.491Z" fill="#F7C03B"/>
<path fill-rule="evenodd" clip-rule="evenodd" d="M214.332 380.521L195.399 460.219H208.173C208.173 460.219 214.885 431.968 215.208 430.653H235.638C240.571 430.653 244.333 427.683 245.467 422.894L253.625 388.603C253.806 387.85 253.877 387.137 253.877 386.457C253.877 385.056 253.508 383.847 252.744 382.876C251.525 381.332 249.408 380.521 246.633 380.521H214.332ZM240.09 391.744C239.71 393.321 233.811 418.149 233.506 419.439H217.858C218.337 417.444 224.156 393.006 224.452 391.744H240.09Z" fill="#00264A"/>
<path fill-rule="evenodd" clip-rule="evenodd" d="M272.075 396.072C267.175 396.072 263.99 398.583 262.868 403.338L259.524 417.444H272.01C272.01 417.444 274.21 408.1 274.5 406.882H288.19C287.763 408.715 285.101 419.865 284.827 421.033H266.644C261.145 421.033 257.521 424.098 256.151 429.906L250.643 453.046C250.497 453.653 250.435 454.228 250.435 454.799C250.435 456.146 250.828 457.38 251.621 458.366C252.822 459.889 254.819 460.729 257.237 460.729C257.301 460.729 257.569 460.709 257.569 460.709C262.073 460.369 271.906 459.629 275.749 459.243C275.692 459.446 275.507 460.219 275.507 460.219H287.986L301.403 403.752C301.987 401.3 301.755 399.382 300.686 398.04C299.665 396.737 297.914 396.072 295.528 396.072H272.075ZM282.232 431.946C281.825 433.685 278.323 448.42 278.04 449.602H263.932C264.345 447.876 267.856 433.131 268.144 431.946H282.232Z" fill="#00264A"/>
<path fill-rule="evenodd" clip-rule="evenodd" d="M324.39 396.072C319.606 396.072 316.499 398.583 315.36 403.338L303.675 452.546C303.081 455.025 303.304 456.955 304.354 458.278C305.376 459.567 307.137 460.219 309.559 460.219H332.606C337.438 460.219 340.468 457.778 341.614 452.957L346.163 433.806H333.887C333.887 433.806 330.476 448.146 330.183 449.41H316.901C317.368 447.417 326.699 408.179 327.002 406.882H340.284C339.845 408.755 337.786 417.302 337.786 417.302H350.08L353.314 403.752C353.918 401.21 353.705 399.325 352.659 397.99C351.652 396.727 349.891 396.072 347.422 396.072H324.39Z" fill="#00264A"/>
<path fill-rule="evenodd" clip-rule="evenodd" d="M375.045 396.072C370.271 396.072 367.163 398.583 366.027 403.338L354.339 452.546C353.747 455.025 353.97 456.955 355.025 458.278C356.043 459.567 357.793 460.219 360.216 460.219H383.351C385.706 460.27 387.671 459.675 389.199 458.47C390.742 457.24 391.793 455.432 392.375 452.957L396.652 435.011H384.169C384.169 435.011 381.044 448.167 380.739 449.41H367.551C368.005 447.523 371.516 432.751 371.804 431.542H394.547L398.162 428.627L404.074 403.752C404.29 402.858 404.389 402.039 404.389 401.291C404.389 399.966 404.065 398.866 403.394 398.021C402.364 396.727 400.613 396.072 398.188 396.072H375.045ZM390.852 406.882C390.461 408.52 387.742 419.983 387.468 421.122H374.276C374.666 419.492 377.386 408.039 377.668 406.882H390.852Z" fill="#00264A"/>
<mask id="mask0_10_2221" style="mask-type:alpha" maskUnits="userSpaceOnUse" x="404" y="395" width="96" height="66">
<path d="M500 460.219V395.473H404.025V460.219H500Z" fill="white"/>
</mask>
<g mask="url(#mask0_10_2221)">
<path fill-rule="evenodd" clip-rule="evenodd" d="M447.964 395.518C442.937 396.094 434.859 397.046 431.38 397.6C431.424 397.445 431.748 396.072 431.748 396.072L419.267 396.071L404.025 460.219H416.498C416.498 460.219 428.641 409.141 428.958 407.793H441.351C440.897 409.674 439.319 417.302 439.319 417.302H451.894L455.006 403.25C455.583 400.831 455.337 398.928 454.283 397.59C453.174 396.183 451.208 395.473 448.429 395.473C448.326 395.48 447.964 395.518 447.964 395.518Z" fill="#00264A"/>
<path fill-rule="evenodd" clip-rule="evenodd" d="M470.675 396.072C468.171 396.072 463.759 397.016 462.262 403.338L458.624 418.635C458.49 419.191 458.31 420.144 458.31 421.142C458.31 422.224 458.566 423.356 459.263 424.192C459.299 424.235 459.318 424.311 459.352 424.358C459.375 424.376 459.375 424.397 459.398 424.415L459.375 424.372C459.513 424.511 459.693 424.645 460.032 424.866C474.3 434.597 478.075 437.322 479.055 438.11C478.838 439.058 476.473 448.981 476.377 449.41H464.09C464.54 447.533 467.45 435.311 467.45 435.311H454.96L450.876 452.546C450.261 455.077 450.507 457.045 451.572 458.393C452.53 459.607 454.075 460.22 456.157 460.22H479.594C483.975 460.22 486.868 457.711 488.004 452.957L491.998 436.145C492.107 435.706 492.307 434.857 492.307 433.837C492.307 432.489 491.964 430.837 490.598 429.39L490.526 429.3L490.432 429.249C483.814 424.952 473.381 418.073 471.575 416.661C471.796 415.714 473.697 407.707 473.9 406.882H486.485C486.036 408.746 484.036 417.478 484.036 417.478H496.517L499.69 403.752C500.284 401.325 500.016 399.325 498.957 397.971C498.272 397.106 496.891 396.072 494.221 396.072H470.675Z" fill="#00264A"/>
</g>
</svg>
