<svg width="500" height="500" viewBox="0 0 500 500" fill="none" xmlns="http://www.w3.org/2000/svg">
<mask id="mask0_10_2220" style="mask-type:alpha" maskUnits="userSpaceOnUse" x="78" y="0" width="354" height="371">
<path d="M431.443 370.36V0H78.1228V370.36H431.443Z" fill="white"/>
</mask>
<g mask="url(#mask0_10_2220)">
<path fill-rule="evenodd" clip-rule="evenodd" d="M115.458 142.018C116.547 129.686 161.018 113.403 232.904 110.859C226.235 115.858 218.33 124.591 216.38 138.636L215.642 143.952C215.168 147.223 214.586 150.57 213.321 153.874C210.552 161.129 202.752 167.112 194.395 171.672C165.45 168.031 141.262 161.94 127.132 154.298L127.114 154.293C119.383 150.108 115.137 145.637 115.458 142.018ZM391.605 138.312C394.352 141.337 394.175 143.288 394.118 143.931C393.812 147.417 389.445 151.617 382.13 155.463L382.109 155.471C366.74 163.543 340.306 169.645 308.841 172.867C310.227 171.973 311.731 171.194 313.363 170.533L313.877 170.326C322.916 166.657 333.17 162.498 333.652 147.563C333.73 145.184 333.849 137.897 335.163 135.29C336.849 131.944 341.169 126.767 344.971 125.388C345.032 125.366 338.615 124.116 338.615 124.116C338.275 124.082 337.95 124.069 337.621 124.06C339.774 122.498 341.315 120.636 342.435 118.675C367.99 123.989 385.179 131.225 391.605 138.312ZM422.992 119.555C409.491 104.674 379.695 92.5968 341.318 85.2905C341.488 80.8865 344.174 79.0182 348.954 75.7166C351.448 73.9928 354.273 72.0389 357.111 69.3468C369.489 57.5936 354.962 39.5928 354.334 38.8333L346.337 29.0873L348.251 41.5516C349.568 50.092 346.431 53.1174 337.143 59.5913C335.961 60.4111 334.942 61.3214 334.056 62.2897C334.447 56.5857 334.718 50.2325 332.79 42.269C330.861 34.3008 326.948 31.0786 326.948 31.0786L325.932 42.6325C325.928 42.7016 325.036 51.6603 313.061 62.4849C314.094 61.3301 315.054 60.1309 315.92 58.8738C321.783 50.346 320.086 40.646 318.123 29.4127L317.714 27.0484C315.699 15.3341 318.837 8.03252 320.85 6.83093C322.816 4.43966 326.713 0.465853 326.713 0.465853C326.713 0.465853 324.642 -0.455575 318.885 0.292837C311.397 1.32538 298.816 5.79998 299.152 16.0365C299.302 20.5373 300.747 24.8063 302.035 28.5746C303.403 32.6135 304.701 36.4293 303.546 38.3952C302.629 39.9428 299.852 41.1801 295.506 41.9706C277.875 45.1801 264.367 53.423 257.462 65.1865C255.183 69.0762 253.66 73.246 252.892 77.6222C209.146 77.7516 167.725 83.2039 135.61 93.1301C99.6143 104.26 79.7668 119.411 78.2171 136.943C77.3974 146.168 81.5683 159.471 104.68 172.269L104.52 172.433L111.075 175.567C111.084 175.573 111.095 175.573 111.098 175.58L114.551 177.231L114.592 177.186C125.244 181.94 137.745 186.048 151.658 189.441C146.698 192.236 142.137 195.446 138.034 199.095C115.647 217.459 102.749 244.684 102.749 273.701C102.749 299.517 112.809 323.792 131.081 342.049C149.353 360.306 173.644 370.36 199.484 370.36C245.216 370.36 285.019 337.964 294.225 293.294C302.032 269.952 301.128 244.908 300.789 235.466C300.008 214.01 310.552 202.136 317.26 196.785C347.817 192.92 374.86 186.232 395 177.266L395.033 177.302L398.283 175.757C398.293 175.753 398.301 175.75 398.309 175.743L405.277 172.425L405.09 172.246C421.298 163.202 430.345 152.575 431.346 141.246C432.018 133.704 429.204 126.407 422.992 119.555Z" fill="#0F1216"/>
</g>
<path fill-rule="evenodd" clip-rule="evenodd" d="M165.469 436.521L177.809 386.137H157.421L145.022 436.521H165.469Z" fill="#0F1216"/>
<mask id="mask1_10_2220" style="mask-type:alpha" maskUnits="userSpaceOnUse" x="125" y="386" width="243" height="114">
<path d="M125.082 499.952H367.741V386.137H125.082V499.952Z" fill="white"/>
</mask>
<g mask="url(#mask1_10_2220)">
<path fill-rule="evenodd" clip-rule="evenodd" d="M210.119 398.529L211.325 419.1H200.704L211.459 436.521H230.058L227.158 386.137H196.48C196.48 386.137 171.345 436.521 171.478 436.521H191.136L210.004 398.529H210.119Z" fill="#0F1216"/>
<path fill-rule="evenodd" clip-rule="evenodd" d="M162.752 482.776L158.597 500H177.73L190.135 449.633H171L166.296 469.141L151.923 469.16L156.621 449.633H137.484L125.082 500H144.212L148.365 482.791L162.752 482.776Z" fill="#0F1216"/>
<path fill-rule="evenodd" clip-rule="evenodd" d="M208.503 488.653L209.896 481.803H233.595L236.619 470.67L212.823 470.664L214.347 463.276H238.154L241.802 449.633H198.589L186.187 500H229.069L232.148 488.659L208.503 488.653Z" fill="#0F1216"/>
<path fill-rule="evenodd" clip-rule="evenodd" d="M331.53 436.521L343.868 386.137H323.481L311.078 436.521H331.53Z" fill="#0F1216"/>
<path fill-rule="evenodd" clip-rule="evenodd" d="M365.361 425.043C368.067 428.801 371.045 436.156 358.432 441.867C343.803 448.488 358.496 465.389 338.433 465.389H330.193L321.889 500H301.434L309.778 465.398L295.974 465.389L300.313 449.633H335.744C356.745 449.633 342.011 435.077 352.708 433.122C360.018 431.786 364.533 430.459 365.361 425.043Z" fill="#0F1216"/>
</g>
<path fill-rule="evenodd" clip-rule="evenodd" d="M109.86 412.091L106.607 386.137H81.4016L69 436.521H87.6043L94.4672 410.198H94.5816L98.2934 436.521H109.243L124.437 410.198H124.554L118.614 436.521H136.163L148.57 386.137H124.287L109.975 412.091H109.86Z" fill="#0F1216"/>
<mask id="mask2_10_2220" style="mask-type:alpha" maskUnits="userSpaceOnUse" x="234" y="386" width="81" height="114">
<path d="M234.435 499.952H314.892V386.137H234.435V499.952Z" fill="white"/>
</mask>
<g mask="url(#mask2_10_2220)">
<path fill-rule="evenodd" clip-rule="evenodd" d="M276.182 412.091L272.927 386.137H247.729L235.325 436.521H253.928L260.789 410.198H260.905L264.619 436.521H275.567L290.763 410.198H290.876L284.941 436.521H302.484L314.892 386.137H290.611L276.29 412.091H276.182Z" fill="#0F1216"/>
<path fill-rule="evenodd" clip-rule="evenodd" d="M273.086 462.024L274.287 482.594H263.668L274.424 500H293.025L290.122 449.633H259.445C259.445 449.633 234.304 500 234.435 500H254.101L272.97 462.024H273.086Z" fill="#0F1216"/>
</g>
<path fill-rule="evenodd" clip-rule="evenodd" d="M106.477 280.535C109.017 293.252 116.293 308.486 130.76 318.651C135.131 321.717 139.898 324.203 144.943 326.126C141.814 320.794 138.18 315.431 134.474 309.97C127.555 299.776 120.401 289.226 115.86 277.886C111.166 266.163 109.881 253.894 111.931 241.554C108.241 251.573 106.202 262.394 106.202 273.701C106.202 276.004 106.314 278.279 106.477 280.535Z" fill="#81112B"/>
<path fill-rule="evenodd" clip-rule="evenodd" d="M122.064 275.399C126.34 286.078 133.289 296.32 140.01 306.221C145.204 313.878 150.276 321.36 154.137 328.928C158.393 329.918 162.792 330.556 167.282 330.828C162.648 324.214 158.618 316.693 155.156 308.09C141.728 274.745 143.672 233.533 160.325 209.68C168.918 197.373 179.203 189.012 192.452 181.798C203.851 175.582 210.973 173.725 218.215 169.405C226.099 164.707 230.311 156.862 225.127 139.252C223.612 134.098 223.34 130.037 223.658 126.879C221.856 130.359 220.454 134.406 219.801 139.108L219.841 139.064C219.028 144.044 218.682 149.523 216.551 155.103C209.585 173.335 175.847 183.459 171.395 184.806C158.592 188.672 148.329 194.561 140.332 201.675C117.233 222.211 113.11 253.025 122.064 275.399Z" fill="#81112B"/>
<path fill-rule="evenodd" clip-rule="evenodd" d="M262.822 110.612C263.162 111.74 263.437 112.854 263.585 113.943C264.468 120.315 262.534 125.458 254.711 126.718C246.663 128.01 243.918 121.009 243.293 115.303C243.229 113.321 243.37 111.738 243.542 110.586C242.186 110.609 240.849 110.637 239.508 110.671C236.928 112.147 233.57 114.435 230.334 117.725C228.731 121.171 226.798 125.949 229.776 137.125C235.028 156.845 232.8 168.759 216.939 175.573C196.737 184.258 183.821 189.352 166.494 211.13C158.253 221.486 153.751 238.657 153.002 255.935C152.286 272.699 155.737 290.613 161.649 305.298C165.603 315.114 170.22 323.657 175.661 330.913C181.067 330.709 186.55 330.006 192.026 328.806C186.005 321.764 182.544 313.185 181.923 303.575C179.859 271.586 197.095 258.133 223.633 236.88L235.501 226.929C282.867 186.729 269.053 145.846 274.258 110.937C270.513 110.791 266.702 110.684 262.822 110.612Z" fill="#81112B"/>
<path fill-rule="evenodd" clip-rule="evenodd" d="M281.797 111.283C280.352 118.254 279.698 125.532 279.237 133.061C277.36 163.467 278.272 197.89 239.754 232.089L228.107 241.502C202.318 262.157 187.583 275.06 188.595 303.148C188.927 312.416 192.838 320.533 199.374 326.903C206.578 324.736 213.707 321.71 220.562 317.823C254.066 298.82 275.143 270.416 283.206 233.981C288.302 210.946 288.196 192.2 288.111 177.139C288.071 169.529 289.062 154.588 289.062 154.588C290.125 145.161 291.656 131.94 302.601 114.619C302.958 114.06 303.335 113.492 303.701 112.927C296.728 112.24 289.422 111.687 281.797 111.283Z" fill="#81112B"/>
<path fill-rule="evenodd" clip-rule="evenodd" d="M293.076 209.033C293.079 208.996 293.082 208.958 293.082 208.919C293.079 208.969 293.068 209.033 293.062 209.083C292.019 214.538 291.745 220.663 291.079 226.775C290.763 229.112 290.44 231.374 290.108 233.573C289.993 234.191 289.871 234.81 289.728 235.426C281.267 273.792 259.376 303.656 224.158 323.629C218.106 327.063 211.974 329.878 205.803 332.07C216.124 338.915 228.162 341.018 236.44 339.777C268.068 335.035 283.481 314.417 290.891 292.371C298.507 269.739 297.696 245.593 297.333 235.593C296.128 202.194 321.98 189.875 321.98 189.875C301.878 188.787 295.288 197.54 293.076 209.033Z" fill="#81112B"/>
<path fill-rule="evenodd" clip-rule="evenodd" d="M271.958 332.218C259.028 343.022 245.086 345.387 238.751 346.357C226.3 348.264 211.556 345.315 198.516 335.035C198.303 334.864 198.105 334.682 197.894 334.513C192.308 336.004 186.715 336.999 181.131 337.456C193.901 351.155 210.699 358.929 233.228 360.455C233.323 360.461 233.424 360.469 233.522 360.472H233.547C248.881 354.458 262.242 344.518 272.367 331.867C272.23 331.987 272.095 332.104 271.958 332.218Z" fill="#81112B"/>
<path fill-rule="evenodd" clip-rule="evenodd" d="M154.276 355.217C154.532 348.175 152.55 341.256 149.306 334.336C141.568 332.104 133.996 328.787 126.698 324.356C122.591 321.859 118.895 318.054 115.622 314.498C115.608 314.484 115.595 314.478 115.581 314.46C123.985 331.704 137.551 345.954 154.276 355.225C154.276 355.225 154.276 355.225 154.276 355.217Z" fill="#81112B"/>
<path fill-rule="evenodd" clip-rule="evenodd" d="M218.762 364.811C206.158 361.9 195.363 357.433 185.901 350.264C181.067 346.594 176.661 342.449 172.648 337.762C167.543 337.701 162.469 337.205 157.448 336.266C160.243 343.453 161.644 350.781 160.748 358.474V358.488C172.55 363.875 185.66 366.906 199.484 366.906C206.148 366.906 212.641 366.192 218.902 364.865C218.859 364.851 218.806 364.828 218.762 364.811Z" fill="#81112B"/>
<path fill-rule="evenodd" clip-rule="evenodd" d="M327.137 135.917C324.965 143.177 317.808 142.32 315.734 138.407C312.451 132.213 313.694 127.423 317.12 124.155C320.54 120.887 326.15 119.141 331.587 116.68C331.619 116.667 331.639 116.656 331.663 116.644C325.382 115.566 318.691 114.604 311.609 113.775C311.514 113.887 311.412 113.994 311.312 114.102C310.689 114.819 310.057 115.532 309.452 116.273C298.208 133.171 296.796 145.699 295.703 155.337L295.356 158.302C294.725 163.355 294.759 169.725 294.799 177.102C294.807 178.114 294.814 179.161 294.814 180.225C294.736 182.801 294.637 185.335 294.521 187.821C294.579 187.834 294.624 187.848 294.679 187.86C294.759 186.831 294.807 186.434 294.799 186.963C297.985 176.836 303.824 170.677 312.06 167.332C320.979 163.718 329.782 160.391 330.199 147.451C330.379 142.044 330.77 136.635 332.01 133.875C334.256 128.877 338.283 127.552 338.283 127.552C333.961 127.132 329.225 128.943 327.137 135.917Z" fill="#81112B"/>
<path fill-rule="evenodd" clip-rule="evenodd" d="M337.93 84.6532C338.581 75.9976 346.791 74.3794 354.728 66.8421C364.924 57.1683 351.671 41.023 351.671 41.023C353.336 51.8794 348.311 56.0214 339.115 62.4246C336.195 64.4524 334.076 67.3071 333.781 70.9024C333.455 74.9278 333.201 79.2706 332.318 83.6825C334.212 83.9944 336.076 84.3206 337.93 84.6532Z" fill="#ED992D"/>
<path fill-rule="evenodd" clip-rule="evenodd" d="M309.864 69.5682C307.412 71.3952 305.114 73.269 302.972 75.1801C301.444 76.642 299.956 78.0944 298.579 79.4881C307.541 80.2635 316.249 81.269 324.642 82.4936C329.999 72.7341 332.556 61.677 329.381 42.8357C329.381 42.8357 328.636 55.5952 309.864 69.5682Z" fill="#ED992D"/>
<path fill-rule="evenodd" clip-rule="evenodd" d="M259.811 77.6365C270.054 77.7349 280.106 78.1429 289.897 78.8167C290.231 78.4913 290.54 78.1587 290.876 77.8405C297.456 70.7873 307.632 64.831 313.072 56.9199C318.511 49.0111 316.317 39.3421 314.309 27.6341C310.837 7.45239 319.353 3.71033 319.353 3.71033C319.353 3.71033 302.282 6.06112 302.609 15.9238C303.044 29.1667 316.7 41.6246 296.128 45.3683C273.547 49.4706 259.511 61.677 256.423 77.6294C257.554 77.6325 258.677 77.6262 259.811 77.6365Z" fill="#ED992D"/>
<path fill-rule="evenodd" clip-rule="evenodd" d="M259.757 82.923C165.153 81.9881 86.2309 106.388 83.485 137.411C82.3865 149.771 93.5545 161.317 113.364 170.8C125.603 176.657 141.144 181.72 159.123 185.702C162.726 184.103 166.489 182.678 170.448 181.483C173.581 180.538 179.368 178.643 185.733 175.881C159.244 172.013 137.798 166.08 124.614 158.948C114.875 153.683 109.635 147.763 110.187 141.553C112.032 120.721 178.263 104.468 258.128 105.256C337.984 106.04 401.232 123.567 399.393 144.396C398.89 150.071 393.608 155.406 384.571 160.149C367.894 168.908 338.426 175.641 302.635 178.781C301.399 180.47 300.313 182.349 299.41 184.476C315.692 178.309 334.447 187.431 334.447 187.431C334.447 187.431 335.706 187.914 336.586 188.508C360.333 184.279 380.734 178.255 396.032 170.974C414.117 162.367 425.086 152.008 426.081 140.783C428.827 109.758 354.362 83.8508 259.757 82.923Z" fill="white"/>
</svg>
