<svg width="500" height="500" viewBox="0 0 500 500" fill="none" xmlns="http://www.w3.org/2000/svg">
<mask id="mask0_10_2224" style="mask-type:alpha" maskUnits="userSpaceOnUse" x="48" y="0" width="405" height="500">
<path d="M48.0521 499.948H452.147V0H48.0521V499.948Z" fill="white"/>
</mask>
<g mask="url(#mask0_10_2224)">
<path fill-rule="evenodd" clip-rule="evenodd" d="M250.073 500C138.65 500 48 409.459 48 298.169C48 243.768 69.4389 192.72 108.369 154.429C108.678 154.126 109.014 153.858 109.371 153.628C95.9438 133.424 88.4296 109.793 94.1396 81.1684C104.659 28.4444 147.32 12.5503 149.131 11.8993C149.825 11.6502 150.538 11.5312 151.242 11.5312C153.488 11.5312 155.633 12.7483 156.744 14.8247C157.443 16.1319 157.632 17.5894 157.365 18.954C171.327 7.23264 184.612 2.09201 190.211 0.298611C190.841 0.0963542 191.483 0 192.116 0C194.503 0 196.758 1.37674 197.794 3.65104C199.104 6.52778 198.051 9.92795 195.343 11.5634C182.627 19.2396 171.542 29.6493 163.153 41.6415C173.206 39.3203 179.966 39.0764 182.337 39.0764C183.168 39.0764 183.596 39.1024 183.596 39.1024C186.673 39.2943 189.173 41.7057 189.443 44.7734C189.715 47.842 187.722 50.6502 184.725 51.3776C184.566 51.4175 167.873 55.6389 149.44 68.8446C145.964 79.4505 144.201 90.5113 144.201 101.751C144.201 123.096 151.042 145.007 162.967 161.864C165.719 165.755 168.436 169.169 171.283 172.279C170.234 150.273 176.714 116.249 216.252 100.404C217.012 100.1 217.798 99.954 218.573 99.954C220.87 99.954 223.064 101.228 224.152 103.395C225.606 106.293 224.592 109.819 221.821 111.506L221.529 111.684C215.544 115.57 210.492 120.572 206.604 126.369C210.755 125.125 214.334 124.701 216.763 124.413L217.235 124.358C217.486 124.327 217.735 124.312 217.983 124.312C220.593 124.312 222.964 125.951 223.856 128.457C224.832 131.202 223.773 134.256 221.309 135.812C221.309 135.812 220.934 136.049 220.847 136.1C208.184 143.394 201.139 151.881 199.91 161.323C198.578 171.557 204.187 181.216 208.284 186.731C218.885 174.397 225.785 153.472 227.721 145.562C228.409 142.747 230.935 140.812 233.774 140.812C234.017 140.812 234.261 140.825 234.507 140.854C237.635 141.22 239.998 143.859 240.017 147.004C240.175 172.85 233.253 190.539 226.126 201.873C236.742 207.199 247.109 207.509 249.359 207.509C249.614 207.509 249.979 207.499 250.059 207.499C250.142 207.499 250.234 207.501 250.326 207.503C250.326 207.503 250.532 207.509 250.789 207.509C253.038 207.509 263.406 207.199 274.021 201.873C266.894 190.539 259.971 172.85 260.13 147.004C260.149 143.859 262.513 141.22 265.64 140.854C265.887 140.825 266.13 140.812 266.372 140.812C269.213 140.812 271.738 142.747 272.426 145.562C274.363 153.472 281.263 174.398 291.863 186.731C295.956 181.221 301.568 171.56 300.237 161.323C299.008 151.881 291.964 143.394 279.299 136.1C279.212 136.049 278.923 135.865 278.923 135.865C276.457 134.31 275.358 131.228 276.334 128.484C277.227 125.974 279.568 124.313 282.175 124.313C282.419 124.313 282.664 124.327 282.912 124.358L283.383 124.413C285.813 124.701 289.391 125.125 293.544 126.369C289.655 120.572 284.603 115.57 278.618 111.684L278.325 111.506C275.554 109.819 274.541 106.293 275.995 103.395C277.081 101.228 279.277 99.954 281.574 99.954C282.349 99.954 283.136 100.1 283.894 100.404C323.434 116.249 329.912 150.273 328.864 172.279C331.711 169.169 334.428 165.755 337.18 161.864C349.106 145.006 355.945 123.096 355.945 101.751C355.945 90.5113 354.183 79.4505 350.706 68.8438C332.154 55.5451 315.591 51.4184 315.422 51.3776C312.424 50.6502 310.432 47.842 310.702 44.7734C310.974 41.7049 313.473 39.2934 316.552 39.1024C316.552 39.1024 316.978 39.0764 317.809 39.0764C320.182 39.0764 326.941 39.3203 336.994 41.6415C328.604 29.6493 317.52 19.2396 304.805 11.5634C302.096 9.92795 301.042 6.52778 302.353 3.65104C303.39 1.37674 305.643 0 308.032 0C308.664 0 309.304 0.0963542 309.936 0.298611C315.535 2.09201 328.82 7.23264 342.782 18.954C342.515 17.5894 342.704 16.1319 343.402 14.8247C344.514 12.7483 346.659 11.5312 348.905 11.5312C349.609 11.5312 350.321 11.6502 351.016 11.8993C352.826 12.5503 395.49 28.4444 406.007 81.1684C411.717 109.793 404.204 133.424 390.775 153.628C391.134 153.858 391.469 154.125 391.778 154.428C430.708 192.72 452.147 243.768 452.147 298.169C452.147 409.459 361.498 500 250.073 500Z" fill="#D9C59B"/>
</g>
<path fill-rule="evenodd" clip-rule="evenodd" d="M129.056 144.768C129.056 144.768 120.138 104.409 126.767 80.526C125 82.4323 123.207 84.3906 121.55 86.5321C105.397 107.41 129.056 144.768 129.056 144.768ZM371.091 144.768C371.091 144.768 394.75 107.41 378.596 86.5321C376.94 84.3906 375.146 82.4323 373.38 80.526C380.009 104.409 371.091 144.768 371.091 144.768ZM100.257 82.3854C110.207 32.5078 151.243 17.7613 151.243 17.7613C136.218 28.8498 120.883 49.6936 114.545 78.9635C120.714 71.316 126.434 65.5781 133.156 61.0061C149.794 25.2083 178.185 10.6918 192.116 6.23004C174.046 17.1398 158.934 33.3767 149.751 52.0807C170.645 44.6293 183.252 45.3229 183.252 45.3229C183.252 45.3229 164.576 49.8576 144.165 64.9766C140.154 76.4957 137.964 88.8663 137.964 101.75C137.964 124.415 145.273 147.65 157.872 165.458C164.962 175.48 171.808 182.408 180.331 188.719C177.513 181.636 166.785 126.94 218.575 106.185L218.208 106.409C205.975 114.324 196.962 126.652 193.299 141.155C202.757 132.112 212.735 131.171 217.978 130.543C217.898 130.593 217.812 130.65 217.731 130.701C169.653 158.395 207.882 195.907 207.882 195.907C223.042 183.219 231.878 154.81 233.779 147.042C233.964 177.059 223.968 195.035 217.174 203.819C232.671 214.439 250.052 213.729 250.059 213.728H250.088C250.095 213.729 267.475 214.439 282.972 203.819C276.178 195.035 266.183 177.059 266.367 147.042C268.269 154.81 277.106 183.219 292.265 195.907C292.265 195.907 330.494 158.395 282.416 130.701C282.334 130.65 282.249 130.593 282.169 130.543C287.411 131.171 297.39 132.112 306.847 141.155C303.185 126.652 294.171 114.324 281.939 106.409L281.572 106.185C333.362 126.94 322.634 181.636 319.816 188.719C328.338 182.408 335.185 175.48 342.275 165.458C354.874 147.65 362.183 124.415 362.183 101.75C362.183 88.8663 359.993 76.4957 355.983 64.9766C335.571 49.8576 316.895 45.3229 316.895 45.3229C316.895 45.3229 329.503 44.6293 350.396 52.0807C341.212 33.3767 326.1 17.1398 308.032 6.23004C321.962 10.6918 350.352 25.2083 366.991 61.0061C373.712 65.5781 379.433 71.316 385.602 78.9635C379.265 49.6936 363.929 28.8498 348.904 17.7613C348.904 17.7613 389.939 32.5078 399.889 82.3854C411.47 140.437 365.051 176.688 327.62 207.745L356.197 196.105C358.133 195.285 359.474 197.148 359.118 199.373L358.28 206.422C357.819 210.299 354.967 229.939 344.17 235.895C341.834 237.184 337.811 238.656 325.961 239.532L304.51 240.909L308.072 252.957L287.013 286.648L297.801 275.294L319.816 353.506L259.407 403.148L278.257 317.747L250.073 351.989L221.889 317.747L240.74 403.148L180.331 353.506L202.346 275.294L213.133 286.648L192.075 252.957L195.636 240.909L174.185 239.532C162.336 238.656 158.312 237.184 155.977 235.895C145.18 229.939 142.329 210.299 141.866 206.422L141.028 199.373C140.673 197.148 142.015 195.285 143.95 196.105L172.526 207.745C135.096 176.688 88.6773 140.437 100.257 82.3854ZM126.952 173.435C95.232 205.124 74.8517 249.924 74.8517 298.168C74.8517 309.315 75.9128 320.218 77.9179 330.791L130.756 316.539C139.487 374.073 189.338 418.308 249.341 418.308C309.567 418.308 359.562 373.74 368.017 315.891L422.23 330.788C424.234 320.215 425.295 309.314 425.295 298.168C425.295 249.924 405.24 205.727 373.519 174.038L378.16 169.03C411.614 202.026 432.166 247.61 432.166 298.168C432.166 398.454 350.479 480.043 250.073 480.043C149.667 480.043 67.9806 398.454 67.9806 298.168C67.9806 247.61 88.7486 201.811 122.204 168.815L126.952 173.435ZM387.4 158.867L383.043 164.092C417.612 198.295 439.038 245.728 439.038 298.168C439.038 402.405 354.436 486.906 250.073 486.906C145.711 486.906 61.1086 402.405 61.1086 298.168C61.1086 245.727 82.531 198.291 117.1 164.088L112.747 158.867C76.6551 194.367 54.2375 243.698 54.2375 298.168C54.2375 406.023 142.09 493.77 250.073 493.77C358.057 493.77 445.91 406.023 445.91 298.168C445.91 243.698 423.492 194.367 387.4 158.867Z" fill="#2A4832"/>
<path fill-rule="evenodd" clip-rule="evenodd" d="M236.043 427.172L225.041 442.419L229.967 469.183L223.163 467.99L219.462 448.549L216.257 466.78L209.758 465.64L217.103 423.851L223.603 424.99L221.564 436.588L229.188 425.97L236.043 427.172ZM323.801 446.016L318.172 435.573L325.473 431.676L331.095 442.122L323.801 446.016ZM310.187 420.758L317.484 416.835L322.304 425.79L315.011 429.708L310.187 420.758ZM327.854 427.731L328.557 423.575L322.111 411.68L316.002 409.957L301.348 417.856L321.448 454.948L336.103 447.049L337.932 440.875L331.69 429.358L327.854 427.731ZM261.327 463.076L261.438 469.81L241.027 470.148L240.326 427.938L260.739 427.601L260.85 434.335L246.984 434.564L247.153 444.745L261.02 444.516L261.13 451.198L247.264 451.427L247.461 463.306L261.327 463.076ZM292.356 458.188L293.655 464.797L273.623 468.726L265.478 427.301L285.51 423.372L286.81 429.981L273.202 432.651L275.167 442.641L288.774 439.973L290.063 446.53L276.456 449.2L278.748 460.857L292.356 458.188ZM340.623 391.105L367.849 423.394L351.289 437.326L324.259 404.87L329.306 400.623L352.189 427.761L358.498 422.455L335.615 395.317L340.623 391.105ZM417.257 339.073L411.129 359.493L406.603 358.137L399.787 356.098L401.666 349.833L406.549 351.295L408.917 343.404L397.625 340.023L393.276 354.148L388.739 352.791L370.642 347.374L376.769 326.954L381.36 328.328L388.06 330.335L386.181 336.599L381.348 335.152L378.981 343.043L388.747 345.967L393.045 331.826L417.257 339.073ZM379.824 365.191L406.833 368.765L403.598 374.862L383.941 372.383L400.315 381.049L397.226 386.872L359.691 367.006L362.781 361.182L373.197 366.695L365.436 356.178L368.695 350.036L379.824 365.191ZM386.786 394.216L390.48 397.16L377.168 413.822L344.13 387.491L357.442 370.83L367.528 378.867L363.444 383.978L358.671 380.174L353.526 386.615L375.98 404.51L381.126 398.07L376.311 394.233L380.394 389.122L386.786 394.216ZM212.579 422.759L197.402 462.159L193.12 460.513L181.813 456.169L177.195 454.394L192.612 415.085L198.77 417.452L186.015 450.567L193.713 453.525L206.468 420.41L212.579 422.759ZM113.726 391.684L121.83 402.988L116.304 406.94L104.358 390.278L138.895 365.576L142.736 370.934L113.726 391.684ZM130.032 348.536L89.8584 362.321L87.7152 356.088L112.924 347.438L101.289 347.075L110.243 339.647L85.0349 348.297L82.8908 342.063L123.064 328.278L125.208 334.511L116.254 341.94L127.888 342.302L130.032 348.536ZM135.968 359.886L98.293 379.488L95.2451 373.642L132.919 354.043L135.968 359.886ZM167.963 399.234L135.477 426.819L131.001 422.405L138.831 410.601L127.149 418.606L122.674 414.193L149.879 381.397L154.245 385.702L143.252 399.533L158.17 389.574L159.674 391.056L149.893 406.08L163.562 394.891L167.963 399.234ZM174.369 423.956L167.417 419.522L172.99 410.806L179.97 415.195L174.369 423.956ZM187.802 415.095L189.003 413.217L189.117 413.038L171.101 401.61L171.016 401.745L148.266 437.324L153.784 440.843L163.787 425.198L170.739 429.633L160.736 445.277L166.254 448.797L187.802 415.095Z" fill="white"/>
<path fill-rule="evenodd" clip-rule="evenodd" d="M230.458 239.569C227.392 238.164 221.618 235.516 215.866 232.88C214.717 232.352 213.391 233.068 213.187 234.316C212.779 236.799 212.838 240.688 216.242 243.313C222.653 248.258 228.089 245.503 231.006 242.646C231.956 241.715 231.667 240.123 230.458 239.569Z" fill="white"/>
<path fill-rule="evenodd" clip-rule="evenodd" d="M151.243 206.29C151.243 206.29 153.33 223.804 160.684 227.861C165.65 230.6 177.783 230.337 188.379 231.15C176.645 226.604 159.36 214.199 151.245 206.292L151.243 206.29Z" fill="white"/>
<path fill-rule="evenodd" clip-rule="evenodd" d="M237.826 311.012L243.709 318.984H256.438L262.321 311.012H237.826Z" fill="white"/>
<path fill-rule="evenodd" clip-rule="evenodd" d="M348.901 206.292C340.786 214.199 323.503 226.604 311.767 231.15C322.364 230.337 334.497 230.6 339.463 227.861C346.817 223.804 348.904 206.29 348.904 206.29L348.901 206.292Z" fill="white"/>
<path fill-rule="evenodd" clip-rule="evenodd" d="M262.267 264.77L256.615 246.268L250.073 249.439L243.532 246.268L237.88 264.77C237.88 264.77 236.001 272.117 227.89 277.294L224.436 292.503L232.933 303.953H241.952L233.598 291.686L234.916 284.108C238.709 288.149 244.093 290.682 250.073 290.697C256.054 290.682 261.438 288.149 265.23 284.108L266.549 291.686L258.194 303.953H267.214L275.711 292.503L272.258 277.294C264.146 272.117 262.267 264.77 262.267 264.77Z" fill="white"/>
<path fill-rule="evenodd" clip-rule="evenodd" d="M284.28 232.88C278.529 235.516 272.754 238.164 269.689 239.569C268.48 240.123 268.19 241.715 269.14 242.646C272.058 245.503 277.494 248.258 283.906 243.313C287.308 240.688 287.368 236.799 286.96 234.316C286.755 233.068 285.431 232.352 284.28 232.88Z" fill="white"/>
</svg>
