<svg width="500" height="500" viewBox="0 0 500 500" fill="none" xmlns="http://www.w3.org/2000/svg">
<mask id="mask0_10_2222" style="mask-type:alpha" maskUnits="userSpaceOnUse" x="65" y="227" width="363" height="206">
<path d="M65.4957 432.948H427.16V227.674H65.4957V432.948Z" fill="white"/>
</mask>
<g mask="url(#mask0_10_2222)">
<path fill-rule="evenodd" clip-rule="evenodd" d="M201.633 322.613C228.495 318.49 255.312 319.7 278.784 329.618L281.648 323.323C243.664 311.09 195.927 311.717 160.368 331.202L170.497 307.642C125.799 319.734 95.73 344.959 65.4957 370.947C87.5373 318.836 135.463 275.992 189.657 260.447L186.901 269.095C234.361 253.593 286.454 250.656 328.633 257.627L318.751 244.767L342.954 250.935L358.51 227.674L364.662 256.444L388.461 264.164C388.461 264.164 371.125 271.424 371.957 271.769C462.069 308.918 433.226 432.344 347.54 432.997C304.195 433.36 270.571 394.166 272.038 353.162C250.007 338.649 227.899 331.665 201.633 322.613Z" fill="#848683"/>
</g>
<path fill-rule="evenodd" clip-rule="evenodd" d="M184.702 157.996L184.733 157.657C184.905 154.897 186.399 151.365 189.162 149.335C191.872 147.293 194.719 146.749 197.442 146.546C197.448 146.546 199.892 146.392 202.502 146.227L210.247 145.734V201.514L203.465 201.981C199.405 202.262 196.905 202.446 192.436 202.723L184.702 203.207V157.996ZM146.829 156.475C146.805 146.801 149.633 138.02 155.481 131.572C161.307 125.099 169.751 121.424 179.335 120.565C197.667 118.862 216.307 117.817 234.739 117.452V117.457L248.346 117.153V273.747L248.13 287.234L234.56 286.995C232.18 286.988 214.095 287.629 210.741 287.861C210.543 287.872 210.486 287.878 210.343 287.893L195.681 289.208V288.937L186.518 289.352C185.276 289.397 163.449 291.608 162.383 291.814L146.864 294.261L146.829 156.475Z" fill="#848683"/>
<path fill-rule="evenodd" clip-rule="evenodd" d="M482.716 323.682C482.7 323.668 464.53 318.121 461.789 317.253C461.618 317.201 461.601 317.201 461.463 317.155C461.45 317.152 461.434 317.146 461.422 317.143C453.226 314.796 445.846 312.75 440.432 311.286L430.653 308.861C421.415 306.616 413.609 302.158 408.285 295.444C402.935 288.74 400.385 280.137 400.402 270.716V168.928C400.348 158.925 403.389 149.824 410.595 144.188L410.593 144.187C415.206 140.511 421.047 138.804 427.029 138.835C430.24 138.835 433.525 139.288 436.784 140.083C438.002 140.371 441.567 141.378 447.194 142.952C452.708 144.504 459.806 146.514 466.831 148.501C480.872 152.484 494.596 156.396 494.596 156.396L499.884 157.903V227.069L455.575 213.419L454.872 208.922C454.868 208.906 453.609 200.885 452.438 193.434L452.446 270.486V270.655L452.439 270.839C452.446 270.869 452.45 270.9 452.457 270.937C452.48 271.104 452.552 271.305 452.637 271.465C452.702 271.479 452.439 271.577 453.851 272.035C453.851 272.035 456.733 272.784 458.634 273.305C459.819 268.057 461.04 262.691 461.043 262.685L462.774 255.084L499.872 266.225L500 328.877L482.716 323.682Z" fill="#848683"/>
<path fill-rule="evenodd" clip-rule="evenodd" d="M0 177.875C0 170.019 3.65017 163.6 7.89931 159.186C12.23 154.719 17.1259 151.878 21.6215 150.4C41.9748 143.893 70.7439 139.394 72.1771 139.155L79.9497 137.94C83.1832 136.098 86.743 134.718 90.5451 133.925C100.567 131.828 130.851 126.117 132.234 125.863V125.865L148.019 122.922L147.974 282.155L147.72 294.015L135.973 295.387C134.985 295.45 112.936 299.197 111.918 299.476L95.513 303.17V277.446L49.7561 288.292V304.004L49.6016 314.385L39.5903 316.857C39.4019 316.897 36.0955 317.873 32.5434 318.962C28.9132 320.076 24.6797 321.382 21.6667 322.336C19.7248 322.941 18.0938 323.48 18.0252 323.515L0 330.13V177.875Z" fill="#848683"/>
<path fill-rule="evenodd" clip-rule="evenodd" d="M384.803 298.979C384.803 298.979 384.745 298.966 384.539 298.925C384.326 298.885 384.028 298.83 383.665 298.76C382.951 298.628 381.99 298.458 380.883 298.269C378.664 297.881 375.846 297.406 373.023 296.94C367.488 296.019 361.501 295.069 361.099 295.035L355.603 294.436L349.108 293.724V124.589L363.586 125.73C365.088 125.887 368.306 126.418 372.842 127.149C377.239 127.865 382.352 128.722 386.019 129.359C388.557 129.805 390.05 130.061 391.211 130.326L401.287 132.891L401.284 286.053L401.089 302.596L384.803 298.979Z" fill="#848683"/>
<path fill-rule="evenodd" clip-rule="evenodd" d="M333.472 291.454C332.026 291.151 322.901 290.282 313.414 289.547C304.329 288.827 294.355 288.127 288.023 287.734L281.008 287.473C271.266 287.111 262.613 284.009 256.566 277.758C250.5 271.519 247.698 262.768 247.728 253.082V147.157C247.688 138.712 250.225 130.865 255.901 125.409H255.906C263.152 118.538 272.025 117.908 277.482 117.868C278.99 117.868 280.283 117.933 281.141 117.973L282.036 118.004C282.389 117.995 282.725 117.992 283.07 117.992C284.934 117.997 287.337 118.099 290.772 118.315L294.669 118.452L294.597 118.568C298.415 118.835 303.234 119.199 309.43 119.672C330.128 121.276 335.579 121.836 338.74 122.485C339.778 122.67 341.155 123.209 341.608 123.451L349.326 127.188L349.265 135.674V182.333L305.439 176.67L304.342 171.668C304.342 171.658 303.104 166.035 302.022 161.112C301.47 161.075 300.795 161.032 300.139 160.989L300.281 181.188L300.28 185.532L302.957 185.43C303.019 185.429 303.074 185.426 303.123 185.425H303.147C303.206 185.423 303.258 185.422 303.303 185.419L303.504 185.416C304.784 185.43 306.399 185.566 309.085 185.769C311.682 185.975 314.962 186.259 318.389 186.564C325.25 187.177 332.616 187.893 336.26 188.315C337.391 188.459 337.866 188.489 338.909 188.698L349.381 191.015L349.256 294.397L333.472 291.454Z" fill="#848683"/>
<path fill-rule="evenodd" clip-rule="evenodd" d="M194.894 192.342C196.728 192.223 198.298 192.113 200.063 191.993V156.597C198.878 156.672 198.071 156.72 198.083 156.72C196.48 156.824 195.649 157.188 195.38 157.412C195.142 157.633 195.012 157.725 194.894 158.529V192.342ZM151.202 156.476C150.962 138.633 162.067 126.32 179.741 124.924C197.963 123.226 216.501 122.19 234.816 121.831L243.97 121.627V273.676L243.826 282.787L234.681 282.603H234.677C232.313 282.593 211.542 283.34 209.955 283.514L200.063 284.426V225.051C198.236 225.173 196.651 225.282 194.891 225.404L194.888 276.075L194.764 284.597L186.247 284.985C184.595 285.048 163.302 287.215 161.699 287.489L151.241 289.138L151.202 156.476Z" fill="#262420"/>
<path fill-rule="evenodd" clip-rule="evenodd" d="M484.001 319.493C483.997 319.488 467.932 314.57 463.766 313.281C463.337 313.148 463.148 313.093 462.961 313.033L462.862 313.005C453.842 310.415 445.797 308.192 440.223 306.695L440.217 306.709L431.699 304.609C414.524 300.585 404.603 288.149 404.794 270.719V168.924C404.778 159.662 407.487 152.162 413.323 147.606V147.607C417.091 144.633 421.826 143.202 427.049 143.212C429.829 143.212 432.773 143.605 435.826 144.348C438.676 145.013 493.343 160.59 493.412 160.609L495.527 161.207V221.122L459.477 210.03L459.194 208.239C459.194 208.239 456.441 190.687 455.294 183.363C453.139 182.725 451.475 182.239 450.344 181.913L450.267 181.942L449.351 181.686L448.07 181.324C448.064 181.321 448.062 181.321 448.058 181.321L448.074 270.549L448.061 270.945C448.076 271.276 448.19 272.42 448.716 273.419C449.385 274.71 450.464 275.628 452.699 276.258C452.699 276.258 457.539 277.516 461.891 278.776C463.255 272.71 465.306 263.657 465.306 263.657L465.995 260.617L495.501 269.488L495.617 322.986L484.001 319.493Z" fill="#262420"/>
<path fill-rule="evenodd" clip-rule="evenodd" d="M4.37933 177.872C4.58333 164.814 15.7335 156.953 22.9583 154.569C42.783 148.218 71.5573 143.69 72.8498 143.482L81.4479 142.134C84.4783 140.31 87.8351 138.956 91.441 138.207C101.34 136.142 131.71 130.412 133.031 130.169L133.033 130.173L143.642 128.196L143.593 282.134L143.438 290.112L135.529 291.019C133.905 291.186 112.555 294.808 110.97 295.201L99.8993 297.697V173.142C99.8021 173.158 99.7214 173.171 99.6571 173.18C96.5469 174.157 95.9757 174.755 95.283 178.265V178.388C95.283 186.705 95.2717 270.703 95.2717 270.703V273.002L51.8871 283.281V184.014C51.5703 184.088 51.3177 184.154 51.1545 184.205C49.5981 184.664 47.9635 185.397 46.9271 186.286C45.8785 187.214 45.4158 187.978 45.3854 189.305V303.94L45.276 310.944L38.5252 312.608C37.0434 312.971 17.901 318.859 16.5217 319.401L4.37933 323.861V177.872Z" fill="#262420"/>
<path fill-rule="evenodd" clip-rule="evenodd" d="M385.838 294.71C384.35 294.333 363.19 290.848 361.578 290.682L356.076 290.081L353.483 289.795V129.328L363.194 130.094C365.606 130.325 387.788 134.027 390.132 134.572L396.914 136.296L396.907 285.999L396.779 297.145L385.838 294.71Z" fill="#262420"/>
<path fill-rule="evenodd" clip-rule="evenodd" d="M289.973 156.641C289.973 156.641 289.973 156.642 289.97 156.642C289.973 156.633 289.973 156.633 289.973 156.641ZM295.892 247.951C295.87 248.042 295.968 249.24 296.317 249.789C296.545 250.154 296.956 250.619 299.088 250.808C299.088 250.808 300.008 250.872 301.305 250.963V220.867C299.458 220.729 297.378 220.573 297.351 220.573L295.9 220.459L295.892 247.951ZM334.298 287.157C330.062 286.329 301.38 284.158 288.324 283.362L281.18 283.1C272.204 282.749 264.801 279.962 259.714 274.709C254.617 269.453 252.091 261.986 252.106 253.062V147.16C252.087 139.492 254.313 133.015 258.959 128.555C264.815 122.943 272.435 122.26 277.508 122.244C278.884 122.244 280.088 122.299 281.022 122.345L282.016 122.387C282.361 122.374 282.725 122.369 283.122 122.369C286.966 122.374 293.945 122.878 309.096 124.032C329.701 125.616 335.321 126.237 337.812 126.767C338.635 126.926 339.356 127.219 339.688 127.385L344.924 129.908L344.902 135.675V177.352L309.078 172.719L308.636 170.726C308.636 170.726 306.755 162.234 305.593 156.973C304.912 156.92 304.283 156.87 303.689 156.827C303.42 156.801 297.933 156.458 297.894 156.458C297.625 156.439 297.365 156.433 297.106 156.433C296.54 156.421 296.089 156.479 295.793 156.537C295.79 156.609 295.788 156.685 295.788 156.756C295.788 156.756 295.753 157.71 295.744 157.967C295.744 157.967 295.753 158.906 295.753 158.911L295.91 181.183L295.906 190.075L303.234 189.805C303.38 189.79 303.452 189.793 303.486 189.797H303.52C305.31 189.805 313.037 190.471 320.985 191.195C328.971 191.941 336.36 192.65 337.962 192.974L345.01 194.533L344.898 289.118L334.298 287.157Z" fill="#262420"/>
<path fill-rule="evenodd" clip-rule="evenodd" d="M204.985 151.366V196.59C201.24 196.846 194.009 197.331 189.972 197.591V158.088C190.372 155.378 191.351 152.386 197.755 151.802C197.752 151.802 201.721 151.557 204.985 151.366ZM234.935 128.187L234.906 126.734C216.709 127.108 198.306 128.153 180.18 129.812C164.745 131.107 155.967 140.813 156.115 156.479L156.151 283.449L160.933 282.599C162.242 282.386 184.694 280.106 186.027 280.066L188.56 279.998L189.972 279.958V220.819C193.693 220.553 200.973 220.058 204.985 219.785V279.118L209.498 278.615C210.727 278.446 231.489 277.67 234.544 277.675H234.706H234.714L234.773 277.685L237.515 277.798L239.016 277.86L239.046 273.641V126.65L234.912 126.734L234.935 128.187Z" fill="white"/>
<path fill-rule="evenodd" clip-rule="evenodd" d="M490.58 273.147L469.607 266.841L469.274 268.363C469.268 268.378 466.704 279.799 465.536 284.976C457.125 282.491 453.439 281.41 451.432 281.056L451.436 281.026C447.13 279.834 445.255 277.445 444.307 275.632C443.24 273.522 443.123 271.417 443.127 270.846V180.495C443.107 180.032 443.274 178.115 444.012 177.134C444.48 176.525 445.135 176.167 446.522 176.142C447.27 176.142 448.206 176.277 449.3 176.584L449.498 176.636H449.643L449.723 176.651C450.048 176.709 453.551 177.703 459.683 179.534C460.497 184.735 463.701 205.297 463.705 205.321L463.84 206.218L490.583 214.465V164.98L489.532 164.682C489.49 164.673 437.375 149.771 434.734 149.163C431.997 148.482 429.422 148.136 427.034 148.136C422.856 148.13 419.215 149.222 416.361 151.472C411.824 155.025 409.696 161.063 409.703 168.94V270.716C409.59 285.967 417.686 296.146 432.712 299.767L432.997 299.906L433.575 299.916C435.321 300.204 449.707 304.106 464.191 308.281L485.429 314.771L490.688 316.373L490.58 273.147Z" fill="white"/>
<path fill-rule="evenodd" clip-rule="evenodd" d="M92.4636 143.033C86.9288 144.187 82.0781 146.946 78.2969 150.857V147.607L73.6059 148.35C72.3611 148.541 43.8403 153.035 24.4505 159.266C18.1554 161.346 9.39845 168.133 9.28821 177.866V316.912L14.8169 314.756C15.9627 314.336 36.105 308.13 37.3707 307.822L39.329 307.363L40.4549 307.102V189.321C40.3906 183.351 46.0182 180.645 49.7717 179.487C51.0174 179.109 54.0356 178.542 56.7856 178.073V277.044L90.355 269.119V265.901C90.355 257.402 90.3785 186.876 90.3785 178.306V177.821C91.1337 172.406 93.5174 169.679 98.559 168.372C98.6189 168.364 98.5703 168.364 98.7266 168.345C99.5156 168.218 102.287 167.78 104.825 167.376V291.661L109.868 290.376C111.159 290.05 133.659 286.251 135.025 286.102L137.313 285.913L138.622 285.799L138.689 282.102L138.714 134.13L133.938 135.007C133.938 135.007 102.272 140.949 92.4636 143.033Z" fill="white"/>
<path fill-rule="evenodd" clip-rule="evenodd" d="M362.788 135.007L359.977 134.798L358.417 134.678V285.464L359.738 285.582L362.114 285.793C363.381 285.875 385.733 289.584 386.959 289.904L391.968 291.143L391.992 285.97V140.115L388.925 139.349C387.003 138.878 364.772 135.193 362.788 135.007Z" fill="white"/>
<path fill-rule="evenodd" clip-rule="evenodd" d="M303.637 194.717H303.592C303.563 194.714 303.511 194.714 303.398 194.731L300.967 194.807L299.564 194.857V215.79L300.908 215.891C300.915 215.891 304.011 216.119 306.203 216.291V256.224C302.956 256.015 298.751 255.729 298.746 255.729C295.299 255.469 293.265 254.294 292.069 252.277C291.085 250.595 290.964 248.672 290.972 247.953L290.981 181.182L290.835 158.949C290.835 158.915 290.816 158.039 290.816 158.039V157.79L290.876 156.721C290.871 155.538 291.095 154.148 291.971 153.17C292.844 152.17 294.46 151.501 297.134 151.501C297.488 151.501 297.85 151.506 298.227 151.538L298.258 151.542L298.346 151.552L298.731 151.538C299.41 151.532 303.214 151.81 309.614 152.354C310.528 156.529 312.901 167.275 312.901 167.28L313.121 168.275L339.981 171.751V135.652L339.997 134L340.006 133.115L337.691 131.871C336.563 131.448 335.534 131.003 308.707 128.958C292.514 127.716 285.881 127.291 282.816 127.291C282.5 127.291 282.22 127.295 281.964 127.304L280.8 127.252C279.846 127.207 278.68 127.147 277.385 127.147C272.94 127.157 266.86 127.78 262.378 132.102V132.096C258.745 135.583 257.022 140.758 257.028 147.142V253.062C256.852 268.521 265.811 277.736 281.368 278.176H281.648L281.997 278.133C281.975 278.136 282.006 278.136 282.071 278.136C286.093 278.121 329.127 281.156 335.181 282.301L339.981 283.194L340.078 198.48L336.882 197.763C334.711 197.326 306.611 194.742 303.637 194.717Z" fill="white"/>
<path fill-rule="evenodd" clip-rule="evenodd" d="M486.553 276.158L472.618 271.994L468.549 290.12C459.494 287.428 450.399 284.817 450.378 284.934C444.757 283.4 442.029 280.04 440.724 277.478C439.229 274.592 439.062 271.841 439.076 270.796C439.076 270.705 439.076 270.566 439.11 270.448H439.076C439.076 269.549 439.062 180.633 439.062 180.511C439.062 179.464 439.229 176.815 440.742 174.774C442.052 172.996 444.793 171.141 450.348 172.657C450.399 172.559 456.292 174.285 463.292 176.389L467.463 203.084L486.553 208.964V168.188C486.553 168.188 436.245 153.669 433.829 153.108C420.547 149.836 413.759 155.339 413.759 168.943V270.719C413.759 284.352 420.547 292.64 433.829 295.884C433.881 295.586 450.684 300.201 465.326 304.385L486.615 310.891L486.553 276.158ZM74.2248 167.41V152.347C74.2248 152.347 44.9436 156.955 25.7057 163.13C20.632 164.754 13.3386 170.552 13.3386 177.877V310.995C14.8325 310.414 34.882 304.25 36.4228 303.892V189.321C36.4228 181.302 42.9913 177.305 48.586 175.622C51.6676 174.683 60.8516 173.296 60.8516 173.296V271.923L86.2882 265.9C86.2882 265.9 86.3117 177.843 86.3117 177.492C87.145 170.584 90.8264 166.048 97.6867 164.418C104.148 163.32 108.853 162.605 108.853 162.605L108.878 170.314V286.464C110.435 286.067 133.058 282.215 134.628 282.077C134.628 253.509 134.685 139 134.685 139C134.685 139 103.149 144.928 93.2726 146.988C83.8082 148.996 76.2943 156.624 74.2248 167.41ZM362.451 281.75C364.03 281.885 386.392 285.586 387.954 285.967V143.299C386.392 142.884 364.03 139.186 362.451 139.057V281.75ZM160.174 156.479C160.174 156.479 160.227 276.908 160.227 278.615C161.799 278.32 184.347 276.075 185.932 276.035V217.043C193.627 216.387 201.344 215.867 209.026 215.448V274.571C210.625 274.387 233.427 273.55 235.01 273.637V130.785C216.839 131.169 198.68 132.18 180.568 133.841C167.017 135.102 160.174 142.884 160.174 156.479ZM185.932 157.938C186.158 155.147 187.747 148.476 197.482 147.753C201.326 147.503 205.167 147.253 209.026 147.05V200.393C201.344 200.784 193.627 201.302 185.932 201.928V157.938ZM303.629 212.04C304.948 212.125 310.27 212.506 310.27 212.506V260.581C306.334 260.277 302.387 260.016 298.482 259.761C292.727 259.388 289.918 256.597 288.572 254.311C287.073 251.727 286.922 248.997 286.922 247.951C286.922 246.89 286.944 207.49 286.944 181.182C286.944 168.41 286.769 158.805 286.769 158.157C286.745 157.967 286.799 157.428 286.799 156.643C286.799 155.047 287.158 152.526 288.924 150.493C290.913 148.24 294.142 147.241 298.482 147.503C298.482 147.394 305.201 147.912 312.922 148.564L316.468 164.615L335.922 167.158V135.542C334.29 134.79 281.581 130.81 281.541 131.357L280.632 131.289C276.461 131.1 269.498 130.851 265.184 135.019C262.451 137.627 261.08 141.721 261.08 147.157V253.062C261.08 266.69 267.961 273.577 281.541 274.136C281.562 273.7 329.069 277.053 335.922 278.32C335.922 276.662 336.027 203.398 336.027 201.727C334.434 201.398 305.264 198.698 303.629 198.754V212.04Z" fill="#005291"/>
<path fill-rule="evenodd" clip-rule="evenodd" d="M74.2248 167.41V152.347C74.2248 152.347 44.9436 156.949 25.7057 163.13C20.632 164.738 13.3386 170.552 13.3386 177.877V310.995C14.8325 310.415 34.882 304.232 36.4228 303.892V189.311C36.4228 181.302 42.9913 177.305 48.586 175.605C51.6676 174.683 60.8516 173.296 60.8516 173.296V271.923L86.2882 265.9C86.2882 265.9 86.3117 177.843 86.3117 177.469C87.145 170.584 90.8264 166.051 97.6867 164.418C104.148 163.32 108.853 162.606 108.853 162.606L108.878 170.314V286.464C110.425 286.067 133.043 282.215 134.628 282.077C134.628 253.509 134.694 139 134.694 139C134.694 139 103.14 144.928 93.2726 146.988C83.8082 148.996 76.2943 156.624 74.2248 167.41ZM362.451 281.75C364.03 281.885 386.397 285.576 387.94 285.967V143.276C386.397 142.884 364.03 139.186 362.451 139.057V281.75ZM303.629 212.03C304.948 212.125 310.27 212.506 310.27 212.506V260.581C306.334 260.277 302.387 260.016 298.482 259.761C292.727 259.388 289.918 256.597 288.559 254.299C287.073 251.727 286.922 248.997 286.922 247.951C286.922 246.89 286.944 207.49 286.944 181.182C286.944 168.41 286.769 158.805 286.769 158.157C286.745 157.967 286.827 157.428 286.827 156.643C286.827 155.037 287.158 152.526 288.924 150.493C290.913 148.24 294.142 147.219 298.482 147.503C298.482 147.394 305.201 147.912 312.922 148.564L316.468 164.615L335.922 167.158V135.543C334.29 134.79 281.581 130.811 281.531 131.357L280.621 131.289C276.451 131.1 269.498 130.851 265.184 135.019C262.451 137.627 261.071 141.721 261.071 147.142V253.062C261.071 266.69 267.961 273.572 281.531 274.136C281.562 273.7 329.069 277.053 335.922 278.32C335.922 276.662 336.027 203.398 336.027 201.727C334.42 201.392 305.264 198.698 303.629 198.754V212.03Z" fill="#005291"/>
<path fill-rule="evenodd" clip-rule="evenodd" d="M162.917 110.39C162.917 110.39 162.952 110.696 162.548 111.068L162.543 111.074H162.538C162.228 111.363 161.68 111.648 160.833 111.797C160.187 111.933 158.701 112.217 157.549 112.437C157.334 112.482 157.155 112.498 157.006 112.498C156.57 112.483 156.548 112.402 156.538 112.402H156.536C156.486 112.368 156.477 112.162 156.457 112.162V87.0514C156.467 87.0115 156.416 86.7613 156.797 86.3808C157.126 86.0785 157.68 85.7874 158.573 85.6033C159.49 85.4286 160.446 85.2497 161.41 85.0586C161.686 85.0038 161.938 84.9847 162.144 84.9847C162.499 84.9847 162.703 85.049 162.797 85.0985C162.911 85.1228 162.891 85.3088 162.917 85.3088V110.39ZM171.766 79.4778C171.102 78.6403 170.144 78.0235 169.036 77.736L169.038 77.7351C168.27 77.5214 167.491 77.451 166.738 77.451C165.556 77.451 164.422 77.6257 163.501 77.7846C160.766 78.285 158.018 78.815 155.295 79.3527C153.209 79.7784 151.489 80.3917 150.076 81.3195C149.069 81.9789 148.226 82.8007 147.615 83.7702C146.879 84.9647 146.514 86.3365 146.518 87.7794V114.389C146.518 115.82 146.854 117.149 147.668 118.188C148.365 119.062 149.347 119.616 150.416 119.871C151.079 120.03 151.727 120.08 152.366 120.08C153.654 120.08 154.889 119.86 155.887 119.665C158.622 119.121 161.337 118.602 164.049 118.108C166.14 117.724 167.876 117.159 169.301 116.276C170.331 115.657 171.183 114.854 171.796 113.934C172.565 112.741 172.938 111.363 172.933 109.915V83.3167C172.933 81.8738 172.594 80.5307 171.766 79.4778Z" fill="#262420"/>
<path fill-rule="evenodd" clip-rule="evenodd" d="M296.646 74.361C295.984 73.434 295.088 72.6904 294.006 72.1553V72.1535C292.066 71.1996 289.988 70.9868 288.609 70.8912C283.168 70.5307 277.715 70.2475 272.273 70.0668L270.677 70.0121V110.301L272.169 110.355C274.527 110.435 276.897 110.546 279.27 110.656L280.882 110.73V77.1444C281.98 77.2052 283.082 77.2704 284.189 77.3312C288.081 77.7699 287.448 78.9635 287.658 79.4127V111.099L289.089 111.205C291.434 111.374 293.779 111.544 296.109 111.743L297.785 111.888V110.206C297.785 106.411 297.788 80.9555 297.788 78.3042C297.795 76.8577 297.43 75.4834 296.646 74.361Z" fill="#262420"/>
<path fill-rule="evenodd" clip-rule="evenodd" d="M319.672 106.965C319.435 107.13 318.834 107.26 318.191 107.25C317.749 107.25 317.292 107.205 316.913 107.162C315.692 107.012 314.469 106.861 313.258 106.711V79.9174C314.346 80.0494 315.438 80.1832 316.536 80.3153C317.648 80.4508 318.647 80.7453 319.21 81.1458C319.762 81.5697 320.009 81.8738 320.043 82.8268C320.043 85.6432 320.043 105.423 320.052 106.037C320.009 106.78 319.892 106.78 319.672 106.965ZM328.98 78.0835C328.361 77.1314 327.479 76.3582 326.449 75.7483L326.442 75.7422H326.436C324.98 74.8987 323.226 74.3896 321.096 74.1125C318.861 73.7607 307.839 72.4741 304.868 72.2082L303.186 72.064L303.211 112.431L304.605 112.571C309.979 113.111 315.354 113.74 320.691 114.464C321.602 114.583 322.436 114.644 323.22 114.644C324.263 114.644 325.214 114.528 326.087 114.283C327.198 113.966 328.183 113.39 328.887 112.522C329.75 111.464 330.118 110.105 330.114 108.668V82.0692C330.118 80.6254 329.75 79.2424 328.98 78.0835Z" fill="#262420"/>
<path fill-rule="evenodd" clip-rule="evenodd" d="M194.808 89.2632V89.3623C194.793 89.5212 194.812 89.9712 194.2 90.5055L194.18 90.5246C193.671 90.9842 192.712 91.3951 191.257 91.5741C190.244 91.7 189.23 91.8338 188.222 91.9624V80.7053C189.356 80.5602 190.499 80.4108 191.631 80.2753C192.229 80.198 192.727 80.1624 193.141 80.1624C194.045 80.1563 194.533 80.337 194.677 80.4464C194.768 80.5403 194.723 80.3917 194.793 80.8956C194.797 80.9355 194.799 80.9712 194.803 80.9963V81.0554V87.5857C194.803 88.4987 194.797 89.0634 194.808 89.2632ZM205.009 110.979C204.995 106.436 204.995 101.914 204.995 97.3859C205.024 95.9481 204.207 94.5894 203.009 93.8102V93.8041C202.848 93.6955 202.687 93.5956 202.526 93.5035C203.646 92.693 204.786 91.3951 204.909 89.3223V79.0582C204.909 77.6257 204.556 76.2522 203.677 75.175C202.999 74.3253 202.031 73.6825 200.898 73.3332C199.941 73.0118 198.854 72.8728 197.651 72.8728C196.967 72.8728 196.234 72.9171 195.456 73.0118C190.104 73.6321 184.756 74.3253 179.439 75.1133L178.122 75.3148V115.742L179.893 115.478C182.218 115.128 184.55 114.799 186.882 114.488L188.222 114.314V98.7637C189.411 98.6134 190.576 98.4623 191.741 98.3094C191.806 98.3042 191.872 98.2972 191.929 98.2903L192.104 98.2737C192.444 98.2451 192.742 98.2294 193.007 98.2294C193.915 98.2234 194.394 98.398 194.578 98.5335C194.808 98.6777 194.878 98.9114 194.888 99.4917V113.461L196.602 113.271C198.938 113.012 201.283 112.757 203.616 112.518L205.014 112.378L205.009 110.979Z" fill="#262420"/>
<path fill-rule="evenodd" clip-rule="evenodd" d="M233.114 101.838V96.6223L231.468 96.7265L225.317 97.1201L222.992 104.183C222.085 104.239 221.178 104.299 220.279 104.355V70.7774L218.628 70.8912C216.259 71.0493 213.893 71.2361 211.529 71.429L210.111 71.5445V111.908L211.784 111.768C218.378 111.224 225.003 110.804 231.637 110.51L233.114 110.443V108.966C233.114 107.749 233.123 106.515 233.123 105.273V101.829L233.114 101.838Z" fill="#262420"/>
<path fill-rule="evenodd" clip-rule="evenodd" d="M255.048 88.3276C254.447 88.3267 253.849 88.3241 253.247 88.3241C251.576 88.3241 249.905 88.3302 248.234 88.3467V77.9419L248.244 77.835C248.273 77.6769 248.305 77.4406 248.692 77.1261C249.116 76.776 250.114 76.4372 251.655 76.4372C252.47 76.432 253.291 76.4277 254.115 76.4277C254.424 76.4277 254.735 76.4285 255.048 76.4294V88.3276ZM263.782 69.7567C261.803 69.6924 256.33 69.6524 252.143 69.6524C249.959 69.6524 248.155 69.6637 247.345 69.6872C245.21 69.7236 243.435 70.0277 241.939 70.6958C240.847 71.1753 239.918 71.8946 239.26 72.8033C238.445 73.9101 238.062 75.2844 238.067 76.7413C238.067 79.3927 238.091 104.844 238.091 108.643V110.23L239.685 110.187C242.019 110.122 244.378 110.065 246.708 110.041L248.234 110.025V95.082C250.227 95.0577 252.216 95.049 254.208 95.049H255.048V110.025L256.583 110.03C258.957 110.046 261.328 110.075 263.692 110.126L265.272 110.166V69.8088L263.782 69.7567Z" fill="#262420"/>
<path fill-rule="evenodd" clip-rule="evenodd" d="M351.313 112.147C351.313 112.166 351.309 112.211 351.309 112.276C351.296 112.28 351.319 112.313 351.284 112.339V112.337H351.279C351.202 112.381 351.015 112.441 350.662 112.441C350.433 112.441 350.129 112.412 349.784 112.352C349.164 112.233 347.695 111.951 346.533 111.737C345.688 111.577 345.195 111.181 345.017 110.841C344.859 110.561 344.859 110.332 344.859 110.332V85.1472V85.1316V85.115C344.861 85.1072 344.87 85.1003 344.898 85.0855C344.989 85.0369 345.179 84.9717 345.543 84.9717C345.764 84.9717 346.026 84.9969 346.346 85.0612C347.325 85.2445 348.277 85.4261 349.22 85.6111C350.003 85.7631 350.528 86.0359 350.859 86.346C351.36 86.8056 351.279 87.1409 351.313 87.1409V112.147ZM360.226 83.8137V83.8093C359.638 82.8207 358.812 82.0154 357.859 81.3612C356.02 80.1624 353.997 79.675 352.468 79.3605C349.753 78.8063 347.021 78.2816 344.283 77.7751C343.183 77.5701 342.185 77.465 341.255 77.465C340.401 77.465 339.602 77.5553 338.862 77.7595C337.774 78.0305 336.783 78.616 336.079 79.4561C335.19 80.5273 334.852 81.886 334.852 83.3046V109.921C334.852 111.356 335.181 112.722 335.905 113.881C336.495 114.848 337.345 115.636 338.332 116.251C340.168 117.381 342.205 117.811 343.729 118.092C346.443 118.596 349.16 119.121 351.858 119.678C353.103 119.921 354.213 120.052 355.226 120.052C355.92 120.052 356.569 119.986 357.178 119.857C358.319 119.593 359.318 119.043 360.029 118.206C360.905 117.162 361.246 115.817 361.246 114.386V87.7847C361.25 86.3652 360.927 84.9969 360.226 83.8137Z" fill="#262420"/>
<path fill-rule="evenodd" clip-rule="evenodd" d="M193.046 303.197L198.101 300.693L202.299 304.447L201.482 298.879L206.342 296.041L200.788 295.084L199.59 289.591L196.981 294.571L191.377 294.017L195.317 298.04L193.046 303.197Z" fill="white"/>
<path fill-rule="evenodd" clip-rule="evenodd" d="M363.043 271.802C367.999 269.64 377.256 265.596 377.256 265.596L377.949 265.294L377.231 265.057C377.231 265.057 362.341 260.157 359.143 259.117C358.66 255.746 356.308 239.542 356.308 239.542L356.193 238.757L350.776 247.57C350.779 247.57 347.676 252.578 346 255.303C342.473 254.405 327.086 250.484 327.086 250.484L326.274 250.28L326.787 250.94C326.798 250.954 333.05 259.006 336.841 263.909C321.357 260.544 303.486 258.662 283.003 258.662C276.281 258.662 269.28 258.865 261.991 259.285C234.065 260.881 206.6 266.086 180.246 275.615L183.259 266.642L182.722 266.811C141.477 279.706 96.3715 318.403 76.4297 356.662L76.8802 357.006C105.069 330.539 143.227 309.409 177.43 301.716L168.446 322.674L169.141 322.339C185.058 314.648 205.954 311.247 227.036 311.248C248.611 311.247 270.38 314.809 287.2 320.943L280.753 335.015C265.411 327.973 243.22 323.231 224.814 323.229C221.534 323.229 218.375 323.38 215.398 323.697L215.349 324.26C237.088 330.404 259.601 337.343 277.439 351.653C277.334 353.175 277.28 354.691 277.28 356.202C277.287 393.872 309.778 427.963 347.911 427.973C348.168 427.973 348.424 427.971 348.681 427.968C390.701 427.47 421.845 388.907 421.845 348.71C421.854 319.095 404.916 288.584 363.043 271.802Z" fill="#262420"/>
<path fill-rule="evenodd" clip-rule="evenodd" d="M340.122 340.799C324.606 340.798 309.081 335.103 293.486 329.369C289.372 338.066 287.286 347.184 287.286 356.459C287.286 361.393 287.876 366.371 289.069 371.358C290.359 371.387 291.651 371.402 292.945 371.402C323.056 371.404 355.003 363.031 380.809 347.717C377.832 342.177 374.148 337.006 370.317 332.026C360.273 338.389 350.201 340.802 340.122 340.799Z" fill="#848683"/>
<path fill-rule="evenodd" clip-rule="evenodd" d="M291.865 377.252C291.526 377.252 291.187 377.252 290.847 377.251C300.265 401.62 321.853 417.768 348.187 418.133C356.615 397.356 365.964 374.652 387.345 364.042C386.225 360.295 384.855 356.653 383.345 353.059C355.82 369.159 323.683 377.252 291.865 377.252Z" fill="#848683"/>
<path fill-rule="evenodd" clip-rule="evenodd" d="M356.937 300.778C347.574 297.201 341.615 296.09 341.051 295.99C338.433 296.35 334.883 296.702 332.01 297.271C347.919 303.611 359.67 311.305 371.473 324.475C377.537 319.677 382.865 314.243 386.564 307.566C375.74 297.033 355.355 284.123 304.516 280.118C325.984 285.233 345.721 292.122 357.206 300.274L356.937 300.778Z" fill="#848683"/>
<path fill-rule="evenodd" clip-rule="evenodd" d="M214.398 293.718C217.552 293.649 220.957 293.604 224.554 293.604C260.673 293.621 316.418 297.87 338.034 323.555L337.672 323.995C330.193 319.825 315.233 312.915 305.905 312.924C305.602 312.924 305.306 312.931 305.019 312.947C301.81 316.492 298.977 320.41 296.437 324.472C310.884 329.805 325.512 335.095 340.006 335.094C349.109 335.094 358.161 333.011 367.122 327.542C342.072 300.222 299.668 288.304 259.671 288.308C243.784 288.308 228.278 290.185 214.398 293.718Z" fill="#848683"/>
<path fill-rule="evenodd" clip-rule="evenodd" d="M385.315 344.858C392.298 340.097 398.332 335.125 403.819 328.739C400.373 322.181 394.408 314.81 390.129 311.02C386.151 318.044 381.054 323.846 374.856 328.943C378.506 333.816 382.358 339.495 385.315 344.858Z" fill="#848683"/>
<path fill-rule="evenodd" clip-rule="evenodd" d="M354.31 417.881C367.001 416.334 378.668 411.997 388.48 403.662C389.984 398.043 390.632 392.227 390.632 386.393C390.632 380.825 390.042 375.242 389.043 369.803C369.904 379.012 361.952 399.221 354.31 417.881Z" fill="#848683"/>
<path fill-rule="evenodd" clip-rule="evenodd" d="M396.285 390.141C396.285 392.061 396.236 393.984 396.143 395.911C403.586 385.831 407.576 377.079 409.789 364.195C404.359 364.68 398.972 365.589 393.847 367.288C395.522 374.877 396.285 382.482 396.285 390.141Z" fill="#848683"/>
<path fill-rule="evenodd" clip-rule="evenodd" d="M387.951 350.189C389.631 354.031 391.121 357.932 392.418 361.924C398.39 359.981 404.152 358.979 410.37 358.603C410.378 358.158 410.38 357.72 410.38 357.284C410.378 349.039 409.164 342.698 406.479 334.809C400.774 340.658 394.744 345.634 387.951 350.189Z" fill="#848683"/>
<path fill-rule="evenodd" clip-rule="evenodd" d="M410.37 358.603C404.152 358.979 398.39 359.981 392.418 361.924C391.121 357.932 389.631 354.031 387.951 350.189C394.744 345.634 400.774 340.658 406.479 334.809C409.164 342.698 410.378 349.039 410.38 357.284C410.38 357.72 410.378 358.158 410.37 358.603Z" fill="#848683"/>
<path fill-rule="evenodd" clip-rule="evenodd" d="M410.37 358.603C404.152 358.979 398.39 359.981 392.418 361.924C391.121 357.932 389.631 354.031 387.951 350.189C394.744 345.634 400.774 340.658 406.479 334.809C409.164 342.698 410.378 349.039 410.38 357.284C410.38 357.72 410.378 358.158 410.37 358.603Z" fill="#848683"/>
<path fill-rule="evenodd" clip-rule="evenodd" d="M390.129 311.02C394.408 314.81 400.373 322.181 403.819 328.739C398.332 335.125 392.298 340.097 385.315 344.858C382.358 339.495 378.506 333.816 374.856 328.943C381.054 323.846 386.151 318.044 390.129 311.02Z" fill="#848683"/>
<path fill-rule="evenodd" clip-rule="evenodd" d="M390.129 311.02C394.408 314.81 400.373 322.181 403.819 328.739C398.332 335.125 392.298 340.097 385.315 344.858C382.358 339.495 378.506 333.816 374.856 328.943C381.054 323.846 386.151 318.044 390.129 311.02Z" fill="#848683"/>
<path fill-rule="evenodd" clip-rule="evenodd" d="M304.516 280.118C355.355 284.123 375.74 297.033 386.564 307.566C382.865 314.243 377.537 319.677 371.473 324.475C359.67 311.305 347.919 303.611 332.01 297.271C334.883 296.702 338.433 296.35 341.051 295.99C341.615 296.09 347.574 297.201 356.937 300.778L357.206 300.274C345.721 292.122 325.984 285.233 304.516 280.118Z" fill="#848683"/>
<path fill-rule="evenodd" clip-rule="evenodd" d="M304.516 280.118C355.355 284.123 375.74 297.033 386.564 307.566C382.865 314.243 377.537 319.677 371.473 324.475C359.67 311.305 347.919 303.611 332.01 297.271C334.883 296.702 338.433 296.35 341.051 295.99C341.615 296.09 347.574 297.201 356.937 300.778L357.206 300.274C345.721 292.122 325.984 285.233 304.516 280.118Z" fill="#848683"/>
<path fill-rule="evenodd" clip-rule="evenodd" d="M292.945 371.402C291.651 371.402 290.359 371.387 289.069 371.358C287.876 366.371 287.286 361.393 287.286 356.459C287.286 347.184 289.372 338.066 293.486 329.369C309.081 335.103 324.606 340.798 340.122 340.799C350.201 340.802 360.273 338.389 370.317 332.026C374.148 337.006 377.832 342.177 380.809 347.717C355.003 363.031 323.056 371.404 292.945 371.402Z" fill="#848683"/>
<path fill-rule="evenodd" clip-rule="evenodd" d="M292.945 371.402C291.651 371.402 290.359 371.387 289.069 371.358C287.876 366.371 287.286 361.393 287.286 356.459C287.286 347.184 289.372 338.066 293.486 329.369C309.081 335.103 324.606 340.798 340.122 340.799C350.201 340.802 360.273 338.389 370.317 332.026C374.148 337.006 377.832 342.177 380.809 347.717C355.003 363.031 323.056 371.404 292.945 371.402Z" fill="#848683"/>
<path fill-rule="evenodd" clip-rule="evenodd" d="M348.187 418.133C321.853 417.768 300.265 401.62 290.847 377.251C291.187 377.252 291.526 377.252 291.865 377.252C323.683 377.252 355.82 369.159 383.345 353.059C384.855 356.653 386.225 360.295 387.345 364.042C365.964 374.652 356.615 397.356 348.187 418.133Z" fill="#848683"/>
<path fill-rule="evenodd" clip-rule="evenodd" d="M348.187 418.133C321.853 417.768 300.265 401.62 290.847 377.251C291.187 377.252 291.526 377.252 291.865 377.252C323.683 377.252 355.82 369.159 383.345 353.059C384.855 356.653 386.225 360.295 387.345 364.042C365.964 374.652 356.615 397.356 348.187 418.133Z" fill="#848683"/>
<path fill-rule="evenodd" clip-rule="evenodd" d="M396.143 395.911C396.236 393.984 396.285 392.061 396.285 390.141C396.285 382.482 395.522 374.877 393.847 367.288C398.972 365.589 404.359 364.68 409.789 364.195C407.576 377.079 403.586 385.831 396.143 395.911Z" fill="#848683"/>
<path fill-rule="evenodd" clip-rule="evenodd" d="M396.143 395.911C396.236 393.984 396.285 392.061 396.285 390.141C396.285 382.482 395.522 374.877 393.847 367.288C398.972 365.589 404.359 364.68 409.789 364.195C407.576 377.079 403.586 385.831 396.143 395.911Z" fill="#848683"/>
<path fill-rule="evenodd" clip-rule="evenodd" d="M367.122 327.542C358.161 333.011 349.109 335.094 340.006 335.094C325.512 335.095 310.884 329.805 296.437 324.472C298.977 320.41 301.81 316.492 305.019 312.947C305.306 312.931 305.602 312.924 305.905 312.924C315.233 312.915 330.193 319.825 337.672 323.995L338.034 323.555C316.418 297.87 260.673 293.621 224.554 293.604C220.957 293.604 217.552 293.649 214.398 293.718C228.278 290.185 243.784 288.308 259.671 288.308C299.668 288.304 342.072 300.222 367.122 327.542Z" fill="#848683"/>
<path fill-rule="evenodd" clip-rule="evenodd" d="M367.122 327.542C358.161 333.011 349.109 335.094 340.006 335.094C325.512 335.095 310.884 329.805 296.437 324.472C298.977 320.41 301.81 316.492 305.019 312.947C305.306 312.931 305.602 312.924 305.905 312.924C315.233 312.915 330.193 319.825 337.672 323.995L338.034 323.555C316.418 297.87 260.673 293.621 224.554 293.604C220.957 293.604 217.552 293.649 214.398 293.718C228.278 290.185 243.784 288.308 259.671 288.308C299.668 288.304 342.072 300.222 367.122 327.542Z" fill="#848683"/>
<path fill-rule="evenodd" clip-rule="evenodd" d="M388.48 403.662C378.668 411.997 367.001 416.334 354.31 417.881C361.952 399.221 369.904 379.012 389.043 369.803C390.042 375.242 390.632 380.825 390.632 386.393C390.632 392.227 389.984 398.043 388.48 403.662Z" fill="#848683"/>
<path fill-rule="evenodd" clip-rule="evenodd" d="M388.48 403.662C378.668 411.997 367.001 416.334 354.31 417.881C361.952 399.221 369.904 379.012 389.043 369.803C390.042 375.242 390.632 380.825 390.632 386.393C390.632 392.227 389.984 398.043 388.48 403.662Z" fill="#848683"/>
<path fill-rule="evenodd" clip-rule="evenodd" d="M338.253 277.244L349.304 273.375L357.701 282.906L356.72 270.461L367.424 265.795L355.775 261.964L353.97 249.55L347.751 259.632L335.953 256.618L343.776 266.681L338.253 277.244Z" fill="#848683"/>
<path fill-rule="evenodd" clip-rule="evenodd" d="M279.352 286.2L287.032 282.411L293.43 288.105L292.181 279.639L299.576 275.335L291.134 273.89L289.314 265.541L285.354 273.128L276.832 272.261L282.814 278.382L279.352 286.2Z" fill="white"/>
<path fill-rule="evenodd" clip-rule="evenodd" d="M193.022 303.197L198.077 300.697L202.273 304.45L201.458 298.879L206.316 296.044L200.765 295.087L199.566 289.594L196.955 294.572L191.354 294.019L195.293 298.042L193.022 303.197Z" fill="white"/>
<path fill-rule="evenodd" clip-rule="evenodd" d="M384.164 379.613L384.155 378.582L377.031 390.528L379.076 380.006L378.569 379.77C368.128 392.446 364.138 401.553 360.89 412.784L360.734 413.319L361.261 413.136C372.984 409.067 379.034 404.366 381.514 402.391L381.568 402.35L381.596 402.288C383.34 398.496 384.168 390.831 384.172 381.435C384.172 380.833 384.168 380.226 384.164 379.613Z" fill="#005291"/>
<path fill-rule="evenodd" clip-rule="evenodd" d="M360.334 351.947C348.925 354.268 335.619 355.628 323.423 355.628C321.592 355.628 319.787 355.597 318.018 355.536L344.182 347.79L344.113 347.227C326.839 346.414 313.502 346.088 296.622 338.167L296.377 338.052L296.247 338.285C293.733 342.797 292.309 349.119 292.308 355.518C292.308 359.158 292.769 362.822 293.762 366.193L293.822 366.391L294.03 366.398C294.034 366.398 294.634 366.416 295.744 366.416C303.287 366.413 334.293 365.583 360.52 352.487L360.334 351.947Z" fill="#005291"/>
<path fill-rule="evenodd" clip-rule="evenodd" d="M366.102 373.184C352.907 382.996 342.977 390.929 323.526 394.593C341.54 385.224 353.622 378.779 364.985 367.27L364.634 366.818C344.49 378.555 318.255 383.583 299.747 384.279L299.248 384.3L299.514 384.721C314.752 408.853 334.032 411.017 340.3 411.017H340.339C341.636 411.017 342.369 410.928 342.379 410.926L342.515 410.909L342.587 410.794C350.76 397.853 355.962 385.398 366.49 373.608L366.102 373.184Z" fill="#005291"/>
<path fill-rule="evenodd" clip-rule="evenodd" d="M352.596 292.777C351.636 292.277 350.666 291.798 349.656 291.347C365.234 295.97 375.735 301.988 381.609 306.563C380.705 307.907 379.697 309.195 378.661 310.452C371.453 302.97 362.648 296.875 352.596 292.777ZM400.596 380.091L400.542 379.076C401.383 374.88 401.858 370.668 402.003 366.512C403.104 366.219 404.232 365.993 405.366 365.779C404.158 370.945 402.65 375.632 400.596 380.091ZM407.101 352.739C405.069 353.007 403.187 353.301 401.326 353.702C400.909 350.687 400.304 347.701 399.54 344.766C401.559 343.066 403.496 341.342 405.456 339.49C406.58 343.83 407.058 347.898 407.101 352.739ZM400.154 327.132C398.42 328.997 396.753 330.647 395.047 332.189C393.159 328.122 390.954 324.227 388.397 320.545C389.728 318.935 391.018 317.278 392.22 315.538C395.479 319.149 398.302 323.367 400.154 327.132Z" fill="white"/>
</svg>
