<svg width="500" height="500" viewBox="0 0 500 500" fill="none" xmlns="http://www.w3.org/2000/svg">
<g clip-path="url(#clip0_10_2218)">
<mask id="mask0_10_2218" style="mask-type:alpha" maskUnits="userSpaceOnUse" x="0" y="0" width="500" height="500">
<path d="M0 499.948H500V0.0581665H0V499.948Z" fill="white"/>
</mask>
<g mask="url(#mask0_10_2218)">
<path fill-rule="evenodd" clip-rule="evenodd" d="M250 0.0581665C111.911 0.0581665 0 111.937 0 250.035C0 388.121 111.911 500 250 500C388.062 500 500 388.121 500 250.035C500 111.937 388.062 0.0581665 250 0.0581665Z" fill="#848683"/>
</g>
<path fill-rule="evenodd" clip-rule="evenodd" d="M490.719 249.136C490.719 119.78 380.059 8.47656 250.679 8.47656C121.345 8.47656 9.28027 120.38 9.28027 249.736C9.28027 368.489 103.691 473.304 219.207 489.727C228.956 490.934 238.882 491.571 248.956 491.582H249.287C271.179 491.576 292.384 488.647 312.552 483.192C413.444 454.224 490.719 357.249 490.719 249.136Z" fill="#BE2531"/>
<path fill-rule="evenodd" clip-rule="evenodd" d="M490.407 237.464L9.6275 237.506C9.40007 241.621 9.28027 245.756 9.28027 249.911C9.28027 271.829 12.5051 293.27 18.4773 313.77C75.0936 313.766 423.911 313.738 481.493 313.71C487.489 293.032 490.719 271.405 490.719 249.311C490.719 245.344 490.613 241.394 490.407 237.464Z" fill="white"/>
<path fill-rule="evenodd" clip-rule="evenodd" d="M219.168 489.793C228.918 491 238.843 491.637 248.917 491.648H249.248C271.14 491.642 292.346 488.712 312.514 483.258C375.678 465.122 429.583 420.33 461.068 362.838H38.9324C75.672 429.444 142.803 478.936 219.168 489.793Z" fill="#111B2B"/>
<path fill-rule="evenodd" clip-rule="evenodd" d="M248.877 62.2682C248.877 62.2682 246.982 28.322 246.976 26.7587C246.984 25.204 248.734 23.6406 248.734 23.6406C247.53 23.6562 242.858 23.9939 237.919 24.1667C236.721 24.4115 234.55 24.4705 235.015 29.4149L237.016 66.8533L249.087 66.2127L249.966 65.9653C249.966 65.9653 249.158 64.5964 248.877 62.2682Z" fill="white"/>
<path fill-rule="evenodd" clip-rule="evenodd" d="M370.301 68.9288L374.695 61.2813L356.849 50.9775C356.849 50.9775 356.771 50.9219 356.672 50.8759L346.545 45.0269C345.093 44.1875 344.053 45.2934 343.694 45.8603C343.334 46.4479 339.656 52.928 339.656 52.928L339.662 52.9314L338.034 55.8047C338.034 55.8047 340.502 53.4141 343.328 55.0495L349.644 58.6962L333.504 86.6641L344.87 93.2491C344.87 93.2491 344.913 91.395 345.945 89.2891C345.945 89.2891 354.88 73.7439 360.09 64.7309L364.961 67.5391C367.769 69.1615 367.679 73.5669 367.679 73.5669L370.301 68.9288Z" fill="white"/>
<path fill-rule="evenodd" clip-rule="evenodd" d="M335.495 40.0833L318.878 34.3177C313.519 32.4574 309.72 31.9713 307.46 32.8194C305.209 33.6736 303.277 36.4262 301.661 41.0989L295.576 58.6597C294.849 60.7187 294.4 62.4436 294.227 63.8489C293.883 66.5824 294.505 68.7066 296.088 70.1866C297.651 71.6788 300.574 73.1684 304.871 74.6606L312.373 77.2587C317.792 79.1406 321.631 79.6389 323.863 78.7812C326.111 77.9175 328.052 75.1684 329.674 70.4965C329.674 70.4965 332.582 62.276 332.99 61.0312C333.69 58.7621 331.99 57.3194 331.034 56.9878L316.965 52.0989C315.312 51.526 314.259 52.783 313.674 53.8455C313.103 54.9132 311.023 60.9262 311.023 60.9262L310.286 62.796C310.286 62.796 311.878 61.2326 313.986 61.9575L319.16 63.7526C318.371 65.6476 317.506 66.7187 316.608 67.0043C315.797 67.2917 314.095 66.967 311.478 66.0564C311.478 66.0564 309.661 65.3533 309.168 65.0599C307.911 64.2543 307.364 63.2109 307.531 61.8828C307.624 61.1241 307.915 60.0842 308.379 58.7153L311.754 48.9878C312.658 46.3871 313.584 44.9349 314.535 44.625C315.494 44.3403 317.266 44.6311 319.881 45.5417L332.662 49.9722C334.966 50.7743 335.411 53.7899 335.411 53.7899L336.306 51.2387L338.573 44.6745C339.229 42.1701 337.654 40.8324 335.495 40.0833Z" fill="white"/>
<path fill-rule="evenodd" clip-rule="evenodd" d="M208.089 27.8142C208.089 27.8142 211.903 29.0347 212.544 32.0035L212.596 32.1276L214.795 42.7136L206.401 44.4688C203.931 44.9792 203.411 47.4254 203.411 47.4254L199.825 29.5208L185.369 32.533C185.369 32.533 188.36 33.9236 188.989 36.8924L189.044 37.0165L196.667 73.7518L205.113 72.0087C206.766 71.6649 207.956 71.2778 208.262 69.9844L205.184 55.2274L216.882 52.7882L220.21 68.8663L228.65 67.1233C230.312 66.7795 231.508 66.3863 231.805 65.0981L223.371 24.632L208.089 27.8142Z" fill="white"/>
<path fill-rule="evenodd" clip-rule="evenodd" d="M388.95 93.3854L382.606 101.46C380.891 103.671 379.479 104.718 378.343 104.677C377.489 104.69 375.987 103.826 373.801 102.108L374.748 102.839C373.24 101.649 372.324 100.835 371.956 100.398C371.036 99.2309 370.859 98.0703 371.45 96.8654C371.788 96.1814 372.398 95.2899 373.278 94.1441L379.637 86.0451C381.346 83.8871 382.702 82.8186 383.684 82.822C384.687 82.8715 386.269 83.7257 388.451 85.441L387.551 84.7474C389.052 85.9305 389.984 86.7474 390.346 87.2213C391.273 88.3516 391.446 89.5434 390.854 90.7448C390.526 91.4167 389.891 92.2986 388.95 93.3854ZM403.997 93.1632C405.211 90.6892 405.282 88.4349 404.18 86.4167C403.286 84.6024 401.013 82.2674 397.387 79.4158L391.161 74.5052C386.702 70.9974 383.263 69.2951 380.86 69.3724C378.451 69.4401 375.724 71.4123 372.661 75.2951L361.19 89.9149C359.84 91.6302 358.865 93.1224 358.243 94.395C357.029 96.8689 356.905 99.0642 357.911 100.975C358.909 102.9 361.194 105.266 364.763 108.074L370.996 112.987C375.503 116.536 378.977 118.263 381.362 118.176C383.779 118.102 386.498 116.124 389.56 112.241L401.047 97.6302C402.384 95.9279 403.372 94.4358 403.997 93.1632Z" fill="white"/>
<path fill-rule="evenodd" clip-rule="evenodd" d="M188.491 58.0434C185.742 52.7735 180.008 50.9688 174.178 53.3959L167.608 56.1328C165.242 57.1207 163.58 56.941 162.645 55.5886C162.611 55.5391 162.357 54.9818 162.335 54.9193C162.041 53.9349 161.304 52.2292 164.809 50.7709L176.668 45.829C179.225 44.7639 183.107 47.3151 183.107 47.3151C183.107 47.3151 180.76 41.7327 179.318 38.3117C178.488 36.3117 175.924 35.0174 173.838 35.8872L159.317 41.9375C154.081 44.1172 150.917 46.2717 149.812 48.4115C148.706 50.5356 149.13 53.9228 151.022 58.4983L152.691 62.4028C152.944 62.9879 153.248 63.5452 153.595 64.0469C154.926 65.9722 156.78 67.2578 159.189 67.9045C162.047 68.638 165.32 68.2266 169.016 66.6875L174.668 64.3316C176.853 63.421 178.435 63.6598 179.389 65.0434C179.646 65.4124 179.776 65.8238 179.779 66.2639C179.779 66.2639 180.423 68.2422 175.921 70.1155L164.518 74.8681C161.964 75.7344 158.273 73.3195 158.273 73.3195C158.273 73.3195 160.617 78.8993 162.062 82.3229C162.892 84.3203 165.453 85.6172 167.543 84.7448L176.516 81.0078L182.207 78.6354C187.448 76.4531 190.603 74.3108 191.705 72.1554C192.819 70.0096 192.346 66.9106 190.451 62.3655C190.451 62.3655 188.981 58.9783 188.491 58.0434Z" fill="white"/>
<path fill-rule="evenodd" clip-rule="evenodd" d="M431.142 117.007L429.095 114.433C429.095 114.433 429.664 118.134 427.302 120.003L427.367 119.954L414.679 129.858L422.846 107.585C423.039 107.022 422.943 106.48 422.525 105.944C421.599 104.758 416.264 97.8906 416.264 97.8906L414.066 95.1102C414.066 95.1102 414.657 99.0955 412.277 100.965L382.628 124.161L387.932 130.961C388.966 132.286 389.848 133.202 391.139 132.89C391.139 132.89 398.604 127.035 406.97 120.493L399.437 140.004C398.099 143.11 395.997 141.261 395.997 141.261L397.502 143.314L397.53 143.308L402.808 150.076C403.849 151.408 404.722 152.302 406.007 151.99L438.565 126.527L431.142 117.007Z" fill="white"/>
<path fill-rule="evenodd" clip-rule="evenodd" d="M282.606 26.2665L279.336 25.9288C279.336 25.9288 282.377 28.112 282.057 31.1059L282.069 31.0252L280.262 47.02L270.072 25.5946C269.803 25.0651 269.351 24.7526 268.673 24.6753C267.177 24.5078 258.539 23.5113 258.539 23.5113L255.016 23.1337C255.016 23.1337 258.28 25.5017 257.944 28.5113L253.756 65.9184L262.326 66.8941C263.995 67.0825 265.267 67.092 265.948 65.9496C265.948 65.9496 266.991 56.5252 268.174 45.9705L276.834 65.0087C278.119 68.1354 275.326 68.3429 275.326 68.3429L277.846 68.7048L277.862 68.6805L286.389 69.6493C288.067 69.8385 289.321 69.8385 289.996 68.7048L294.6 27.6285L282.606 26.2665Z" fill="white"/>
<path fill-rule="evenodd" clip-rule="evenodd" d="M102.768 74.4531L101.517 75.9609L94.8116 83.5686C94.7803 83.6146 94.7682 83.6432 94.7187 83.6988C93.8081 84.7326 93.1675 85.612 93.2447 86.5625L110.311 112.889L86.2595 99.8854C83.2066 98.6528 84.4826 95.3125 84.4826 95.3125L82.0703 98.0243L77.1293 103.628C77.1041 103.668 77.092 103.7 77.0425 103.755C75.7916 105.17 75.1692 106.595 75.835 108.124L93.0833 132.395L68.9739 120.007C65.8472 118.4 67.1996 114.923 67.1996 114.923L64.6458 117.793L58.9644 124.236C58.9453 124.273 58.927 124.307 58.8619 124.378C57.5651 125.852 57.2335 127.973 58.4939 129.004C58.6736 129.162 58.5651 129.109 58.5651 129.109L96.0034 146.649L104.79 136.682C105.979 135.332 106.325 134.599 105.772 133.172L98.6788 119.995L113.196 127.147L122.559 116.521C123.717 115.207 123.884 113.338 123.411 111.917L103.505 78.6241C102.22 76.3576 102.768 74.4531 102.768 74.4531Z" fill="white"/>
<path fill-rule="evenodd" clip-rule="evenodd" d="M132.342 86.2266L130.038 79.9262L135.791 83.704L132.342 86.2266ZM123.459 62.1979L116.339 67.1797C114.908 68.1919 114.292 69.1363 114.434 70.6346L126.425 107.191C127.196 109.476 124.406 113.618 124.406 113.618L136.911 104.869C138.039 104.079 138.306 102.748 137.909 101.484L136.141 96.3203L145.671 89.6511L149.386 91.9853C151.523 93.7509 149.99 95.7257 149.99 95.7257L163.727 86.1155L123.459 62.1979Z" fill="white"/>
<path fill-rule="evenodd" clip-rule="evenodd" d="M54.5452 161.582L60.1859 178.942H78.4411L63.672 189.673L69.3135 207.036L54.5452 196.305L39.7762 207.036L45.4176 189.673L30.6494 178.942H48.9038L54.5452 161.582Z" fill="white"/>
<path fill-rule="evenodd" clip-rule="evenodd" d="M445.455 163.895L439.814 181.255H421.559L436.327 191.986L430.687 209.35L445.455 198.618L460.224 209.35L454.583 191.986L469.351 181.255H451.096L445.455 163.895Z" fill="white"/>
<path fill-rule="evenodd" clip-rule="evenodd" d="M245.098 457.885L246.957 451.438L249.371 457.885H245.098ZM251.226 432.88H242.535C240.783 432.886 239.736 433.307 238.993 434.617L227.862 471.443C227.181 473.755 222.521 475.551 222.521 475.551H237.785C239.16 475.551 240.141 474.613 240.541 473.353L242.055 468.109H253.684L255.393 472.148C256.13 474.82 253.743 475.561 253.743 475.561H270.509L251.226 432.88Z" fill="white"/>
<path fill-rule="evenodd" clip-rule="evenodd" d="M295.746 439.528C296.062 440.413 296.498 443.488 296.223 444.299C295.959 445.098 295.412 445.584 294.57 445.742L287.597 447.116C286.009 447.411 284.845 449.064 283.888 451.052L281.835 439.911L293.149 437.729C294.372 437.503 295.251 438.091 295.746 439.528ZM312.205 464.235L303.034 454.089C305.168 453.594 306.883 452.424 307.517 451.365C308.551 449.643 308.604 446.361 307.707 441.519C307.707 441.519 305.985 433.038 305.642 431.716C304.978 429.159 303.549 427.614 301.991 427.016C300.465 426.406 298.065 426.391 294.817 426.995L264.587 432.68C264.587 432.68 268.417 434.101 269.057 436.97L275.776 473.867L284.207 472.304C285.879 471.994 287.08 471.656 287.406 470.359L285.12 457.87L291.006 456.696L301.186 469.069L316.261 466.273C316.261 466.273 313.651 465.622 312.205 464.235Z" fill="white"/>
<path fill-rule="evenodd" clip-rule="evenodd" d="M338.188 423.319C338.698 424.117 345.733 439.83 345.649 440.672C345.575 441.527 345.148 442.13 344.361 442.47L333.453 447.193L327.069 432.495C326.673 431.542 325.688 429.293 324.58 426.777L335.252 422.157C336.401 421.659 337.385 422.036 338.188 423.319ZM346.122 413.488C344.893 411.122 343.16 409.958 341.524 409.717C339.893 409.47 337.55 409.99 334.518 411.302L306.043 423.628C306.043 423.628 310.004 424.331 311.397 426.829L324.58 457.252C325.153 459.41 324.357 461.729 323.991 462.2L351.701 450.323C355.464 448.694 357.649 446.914 358.269 445.037C358.898 443.128 358.216 439.917 356.26 435.396L348.027 417.404C347.154 415.42 346.754 414.699 346.122 413.488Z" fill="white"/>
<path fill-rule="evenodd" clip-rule="evenodd" d="M227.565 441.362L229.361 433.244C229.361 433.244 197.777 426.32 197.338 426.274C194.746 425.99 193.743 427.668 193.087 429.751L191.832 435.442L191.858 435.448L191.291 437.776C191.291 437.776 193.628 436.023 196.182 436.398L210.716 439.6L186.374 460.078L184.9 466.938L216.595 473.92C218.623 474.366 220.036 474.435 220.747 472.388L223.029 461.904C223.029 461.904 220.658 464.189 218.044 463.759L202.687 460.375L227.565 441.362Z" fill="white"/>
<path fill-rule="evenodd" clip-rule="evenodd" d="M175.879 459.916C175.879 459.916 186.95 427.768 187.536 426.319C188.129 424.885 190.34 424.096 190.34 424.096C189.222 423.656 184.764 422.205 180.129 420.498C178.928 420.273 176.897 419.508 175.457 424.26L163.162 459.68L174.581 463.647L175.491 463.752C175.491 463.752 175.262 462.179 175.879 459.916Z" fill="white"/>
<path fill-rule="evenodd" clip-rule="evenodd" d="M173.892 419.466L172.205 418.469L163.632 413.05C163.582 413.032 163.551 413.02 163.489 412.983C162.322 412.246 161.356 411.753 160.427 411.979L141.569 430.333L148.467 408.162C148.897 406.016 152.355 405.954 152.355 405.954L149.297 404.003L142.981 400.013C142.934 399.995 142.903 399.985 142.841 399.944C141.243 398.936 139.742 398.545 138.336 399.444L118.964 417.388L127.469 395.793C128.559 392.449 132.209 393.235 132.209 393.235L128.97 391.167L121.707 386.579C121.67 386.567 121.629 386.551 121.549 386.502C119.89 385.452 117.744 385.461 116.926 386.866C116.799 387.071 116.833 386.957 116.833 386.957L103.486 425.457L114.722 432.553C116.242 433.516 117.02 433.742 118.345 432.968L130.23 423.881L125.469 439.343L137.442 446.91C138.921 447.845 140.794 447.712 142.122 447.022L169.889 420.853C171.926 419.225 173.892 419.466 173.892 419.466Z" fill="white"/>
<path fill-rule="evenodd" clip-rule="evenodd" d="M390.265 404.305C386.481 399.722 380.497 399.143 375.298 402.729L369.437 406.769C367.328 408.221 365.666 408.391 364.471 407.261C364.427 407.221 364.065 406.729 364.028 406.674C363.536 405.773 362.464 404.255 365.589 402.101L376.165 394.809C378.444 393.236 382.772 394.926 382.772 394.926C382.772 394.926 379.319 389.954 377.199 386.904C375.973 385.121 373.195 384.385 371.332 385.669L358.384 394.598C353.714 397.819 351.064 400.583 350.426 402.905C349.786 405.209 350.906 408.438 353.706 412.522L356.145 415.993C356.514 416.516 356.928 416.996 357.372 417.414C359.074 419.021 361.155 419.894 363.647 420.03C366.595 420.151 369.706 419.074 373.004 416.798L378.047 413.324C379.995 411.98 381.589 411.887 382.812 413.039C383.137 413.349 383.351 413.723 383.447 414.154C383.447 414.154 384.484 415.956 380.471 418.723L370.3 425.733C367.982 427.114 363.87 425.516 363.87 425.516C363.87 425.516 367.322 430.489 369.446 433.538C370.669 435.322 373.446 436.056 375.31 434.771L383.311 429.253L388.388 425.755C393.063 422.529 395.705 419.782 396.336 417.444C396.98 415.114 395.872 412.181 393.079 408.126C393.079 408.126 390.937 405.119 390.265 404.305Z" fill="white"/>
<path fill-rule="evenodd" clip-rule="evenodd" d="M397.476 170.18C387.173 151.188 373.311 134.411 356.778 120.738C353.679 118.174 350.459 115.76 347.177 113.422C319.832 93.9314 286.422 82.4045 250.29 82.3394H249.992C160.397 82.3455 87.1822 152.649 82.5537 241.134C82.3984 243.992 82.3246 246.865 82.3176 249.757V250.048C82.3246 273.179 87.0086 295.22 95.4799 315.268C96.5355 317.776 97.6596 320.25 98.8333 322.693C108.239 342.229 121.32 359.661 137.181 374.095C141.145 377.705 145.284 381.122 149.582 384.343C177.524 405.269 212.216 417.675 249.812 417.719H250.042C270.284 417.713 289.681 414.124 307.639 407.551C371.791 384.07 417.595 322.522 417.681 250.231V250.017C417.676 226.898 412.991 204.866 404.523 184.825C402.405 179.812 400.053 174.93 397.476 170.18Z" fill="#848683"/>
<path fill-rule="evenodd" clip-rule="evenodd" d="M400.384 186.573C398.325 181.696 396.034 176.94 393.526 172.321C383.497 153.837 370.008 137.508 353.917 124.204C350.901 121.708 347.768 119.359 344.573 117.083C317.962 98.1164 285.446 86.8985 250.28 86.8334H249.992C162.799 86.8395 91.5443 155.258 87.04 241.374C86.8907 244.155 86.8169 246.951 86.8108 249.765V250.05C86.8169 272.562 91.3776 294.009 99.6224 313.52C100.65 315.96 101.743 318.369 102.883 320.747C112.037 339.757 124.769 356.724 140.203 370.771C144.064 374.285 148.092 377.61 152.272 380.747C179.465 401.109 213.228 413.185 249.819 413.225H250.042C269.74 413.219 288.62 409.729 306.097 403.332C368.528 380.48 413.102 320.583 413.189 250.226V250.018C413.183 227.519 408.626 206.075 400.384 186.573Z" fill="white"/>
<path fill-rule="evenodd" clip-rule="evenodd" d="M219.518 175.232L223.301 161.469L224.196 158.261L206.827 148.53C206.827 148.53 196.696 141.502 174.042 154.645C147.517 170.287 125.938 190.514 114.77 211.973C108.587 223.863 103.679 237.547 101.143 253.112C101.933 282.559 111.231 309.885 126.724 332.682C122.306 290.244 163.314 243.749 195.424 211.998C212.381 195.049 219.518 175.232 219.518 175.232Z" fill="#111B2B"/>
<path fill-rule="evenodd" clip-rule="evenodd" d="M326.153 154.642C303.496 141.499 293.368 148.534 293.368 148.534L276.005 158.259L276.893 161.472L280.677 175.234C280.677 175.234 287.811 195.05 304.771 211.995C336.782 243.65 377.654 289.956 373.515 332.293C389.082 309.232 398.321 281.577 398.857 251.786C396.259 236.764 391.435 223.525 385.425 211.971C374.26 190.52 352.672 170.287 326.153 154.642Z" fill="#111B2B"/>
<path fill-rule="evenodd" clip-rule="evenodd" d="M271.663 129.202C331.19 135.927 370.312 169.709 390.512 199.674C375.312 156.433 340.726 122.335 297.173 107.79C287.565 110.628 276.917 116.598 271.663 129.202Z" fill="#BE2531"/>
<path fill-rule="evenodd" clip-rule="evenodd" d="M228.533 129.202C223.254 116.533 212.517 110.563 202.869 107.753C159.05 122.357 124.295 156.773 109.217 200.385C129.283 170.245 168.545 135.977 228.533 129.202Z" fill="#BE2531"/>
<path fill-rule="evenodd" clip-rule="evenodd" d="M238.278 127.523L250.092 110.129L261.923 127.523C266.666 114.56 274.146 107.414 281.648 103.519C271.489 101.321 260.956 100.139 250.141 100.126C239.274 100.117 228.698 101.306 218.483 103.504C226.004 107.39 233.509 114.514 238.278 127.523Z" fill="#BE2531"/>
<path fill-rule="evenodd" clip-rule="evenodd" d="M250.094 178.045C248.375 179.274 193.418 218.827 169.207 257.993C136.53 310.857 140.775 341.341 149.231 358.741C170.287 378.105 196.936 391.468 226.483 396.158L239.217 215.604L249.837 204.953L249.973 204.811V204.814L249.985 204.811L250.118 204.953L260.732 215.604L273.562 396.013L273.391 396.102C303.167 391.399 330.011 377.928 351.161 358.332C359.486 340.867 363.427 310.454 330.992 257.993C306.784 218.827 251.821 179.274 250.094 178.045Z" fill="#111B2B"/>
<path fill-rule="evenodd" clip-rule="evenodd" d="M260.732 215.603L250.119 204.956L250.242 409.3L273.386 396.108L273.392 396.102L273.559 396.012L260.732 215.603Z" fill="#848683"/>
<path fill-rule="evenodd" clip-rule="evenodd" d="M281.86 139.784C275.398 138.675 268.893 137.784 262.306 137.369L257.652 137.075L257.558 136.883L257.463 136.691L255.593 132.886L255.478 132.651V132.648L250.094 121.709L244.892 132.286L244.886 132.294L244.738 132.589L244.596 132.886L242.728 136.691L242.574 137.013L242.543 137.075L237.895 137.369C231.31 137.784 224.799 138.675 218.337 139.784C215.467 140.273 212.578 140.707 209.745 141.332H209.748H209.745L218.879 146.252L228.012 151.178L230.833 152.695L233.66 154.218L231.945 160.405L231.852 160.748L225.982 182.074L225.984 182.068V182.074L245.404 167.748L247.72 166.039L250.032 164.333V164.238L250.094 164.293L250.168 164.238V164.333L252.481 166.039L274.213 182.074L269.129 163.606L268.689 162.005L268.253 160.405L266.544 154.218L268.377 153.227L272.191 151.178L284.517 144.53L290.452 141.332H290.446H290.452C287.616 140.707 284.73 140.273 281.86 139.784Z" fill="#848683"/>
</g>
<defs>
<clipPath id="clip0_10_2218">
<rect width="500" height="500" fill="white"/>
</clipPath>
</defs>
</svg>
