<svg width="500" height="500" viewBox="0 0 500 500" fill="none" xmlns="http://www.w3.org/2000/svg">
<path fill-rule="evenodd" clip-rule="evenodd" d="M250.108 494.955C376.209 494.955 478.446 392.758 478.446 266.699C478.446 140.639 376.209 38.4355 250.108 38.4355C124.008 38.4355 21.7778 140.639 21.7778 266.699C21.7778 392.758 124.008 494.955 250.108 494.955Z" fill="#C4CDD3"/>
<path fill-rule="evenodd" clip-rule="evenodd" d="M250.108 494.955C376.209 494.955 478.446 392.758 478.446 266.699C478.446 140.639 376.209 38.4355 250.108 38.4355C124.008 38.4355 21.7778 140.639 21.7778 266.699C21.7778 392.758 124.008 494.955 250.108 494.955Z" stroke="#0067AB" stroke-width="7.73684"/>
<path fill-rule="evenodd" clip-rule="evenodd" d="M250.089 490.228C373.668 490.228 473.852 390.07 473.852 266.537C473.852 142.997 373.668 42.8461 250.089 42.8461C126.503 42.8461 26.3188 142.997 26.3188 266.537C26.3188 390.07 126.503 490.228 250.089 490.228Z" stroke="#051821" stroke-width="4.98026"/>
<path fill-rule="evenodd" clip-rule="evenodd" d="M250.089 490.228C373.668 490.228 473.852 390.07 473.852 266.537C473.852 142.997 373.668 42.8461 250.089 42.8461C126.503 42.8461 26.3188 142.997 26.3188 266.537C26.3188 390.07 126.503 490.228 250.089 490.228Z" stroke="#051821" stroke-width="3.82895"/>
<path fill-rule="evenodd" clip-rule="evenodd" d="M341.241 68.1408C336.153 59.1342 291.909 39.5355 250.145 39.5355C208.388 39.5355 164.137 59.1342 159.05 68.1408V122.042H341.3L341.241 68.1408Z" fill="#051821"/>
<path fill-rule="evenodd" clip-rule="evenodd" d="M341.241 68.1408C336.153 59.1342 291.909 39.5355 250.145 39.5355C208.388 39.5355 164.137 59.1342 159.05 68.1408V122.042H341.3L341.241 68.1408Z" stroke="#0067AB" stroke-width="6.32895"/>
<path fill-rule="evenodd" clip-rule="evenodd" d="M341.241 68.1408C336.153 59.1342 291.909 39.5355 250.145 39.5355C208.388 39.5355 164.137 59.1342 159.05 68.1408V122.042H341.3L341.241 68.1408Z" stroke="#0067AB" stroke-width="5.17763"/>
<path fill-rule="evenodd" clip-rule="evenodd" d="M316.774 17.6868C293.457 6.66711 272.174 3.41711 249.305 3.18027C220.855 2.88422 194.366 9.50264 181.829 16.7395V115.917H316.814L316.774 17.6868Z" fill="#051821"/>
<path fill-rule="evenodd" clip-rule="evenodd" d="M316.774 17.6868C293.457 6.66711 272.174 3.41711 249.305 3.18027C220.855 2.88422 194.366 9.50264 181.829 16.7395V115.917H316.814L316.774 17.6868Z" stroke="#0067AB" stroke-width="6.34211"/>
<path fill-rule="evenodd" clip-rule="evenodd" d="M316.774 17.6868C293.457 6.66711 272.174 3.41711 249.305 3.18027C220.855 2.88422 194.366 9.50264 181.829 16.7395V115.917H316.814L316.774 17.6868Z" stroke="#0067AB" stroke-width="5.19079"/>
<path fill-rule="evenodd" clip-rule="evenodd" d="M226.483 18.8309V20.0349C225.351 20.5349 225.219 21.2717 225.219 22.173V68.7717C225.219 69.673 225.351 70.3375 226.483 70.2454V71.4428L217.862 72.5809V71.3836C218.684 71.1665 218.915 70.7059 218.915 70.002C218.915 68.6994 217.776 67.6994 205.799 41.3178V72.1138C205.799 73.0151 205.93 73.6796 207.069 73.5809V74.7849L198.448 77.0744V75.8704C199.58 75.3704 199.724 74.6336 199.724 73.7323V27.4165C199.724 26.5151 199.58 25.8507 198.448 25.9494V24.752C199.599 24.3178 208.346 22.048 209.379 21.8441V23.048C208.339 23.423 208.109 24.0875 208.109 24.6862C208.109 25.7849 215.96 42.4296 219.139 49.298V23.0217C219.139 21.8178 218.77 21.4165 218.184 21.4691V20.2717C219.04 20.0086 225.404 18.8967 226.483 18.8309Z" fill="#FEFEFE"/>
<path fill-rule="evenodd" clip-rule="evenodd" d="M226.483 18.8309V20.0349C225.351 20.5349 225.219 21.2717 225.219 22.173V68.7717C225.219 69.673 225.351 70.3375 226.483 70.2454V71.4428L217.862 72.5809V71.3836C218.684 71.1665 218.915 70.7059 218.915 70.002C218.915 68.6994 217.776 67.6994 205.799 41.3178V72.1138C205.799 73.0151 205.93 73.6796 207.069 73.5809V74.7849L198.448 77.0744V75.8704C199.58 75.3704 199.724 74.6336 199.724 73.7323V27.4165C199.724 26.5151 199.58 25.8507 198.448 25.9494V24.752C199.599 24.3178 208.346 22.048 209.379 21.8441V23.048C208.339 23.423 208.109 24.0875 208.109 24.6862C208.109 25.7849 215.96 42.4296 219.139 49.298V23.0217C219.139 21.8178 218.77 21.4165 218.184 21.4691V20.2717C219.04 20.0086 225.404 18.8967 226.483 18.8309Z" stroke="#FEFEFE" stroke-width="1.34868"/>
<path fill-rule="evenodd" clip-rule="evenodd" d="M246.175 63.2388H253.888C257.067 63.2388 258.33 56.4428 258.33 53.4493C258.33 50.4625 257.067 46.5151 253.888 46.5151H246.175V63.2388ZM246.175 39.5743H252.341C256.244 39.5743 257.244 33.4691 257.244 30.7454C257.244 28.0217 256.244 24.7586 252.341 24.7586H246.175V39.5743ZM239.37 19.6007C239.37 18.9822 239.225 18.5086 238.1 18.377V17.5612H255.375C260.285 17.5612 263.871 23.1336 263.871 29.8638C263.871 33.9428 262.055 42.1664 259.508 42.9822V43.1138C262.555 44.3441 264.773 49.6467 264.773 54.6665C264.773 60.1072 262.055 70.4428 255.612 70.4428H238.1V69.627C239.225 69.4888 239.37 69.0217 239.37 68.3967V19.6007Z" fill="#FEFEFE"/>
<path fill-rule="evenodd" clip-rule="evenodd" d="M246.175 63.2388H253.888C257.067 63.2388 258.33 56.4428 258.33 53.4493C258.33 50.4625 257.067 46.5151 253.888 46.5151H246.175V63.2388ZM246.175 39.5743H252.341C256.244 39.5743 257.244 33.4691 257.244 30.7454C257.244 28.0217 256.244 24.7586 252.341 24.7586H246.175V39.5743ZM239.37 19.6007C239.37 18.9822 239.225 18.5086 238.1 18.377V17.5612H255.375C260.285 17.5612 263.871 23.1336 263.871 29.8638C263.871 33.9428 262.055 42.1664 259.508 42.9822V43.1138C262.555 44.3441 264.773 49.6467 264.773 54.6665C264.773 60.1072 262.055 70.4428 255.612 70.4428H238.1V69.627C239.225 69.4888 239.37 69.0217 239.37 68.3967V19.6007Z" stroke="#FEFEFE" stroke-width="1.34868"/>
<path fill-rule="evenodd" clip-rule="evenodd" d="M283.065 53.3961L291.502 55.554L287.106 31.4816L283.065 53.3961ZM281.933 61.8434C280.755 69.1658 280.479 70.0671 280.479 70.7053C280.479 71.3303 280.663 71.7974 281.295 71.9487L281.15 73.0605L273.075 71.7316V70.475C273.707 70.3171 273.983 69.975 274.253 68.3697C274.668 66.0803 282.519 23.4158 282.519 22.7842C282.519 22.054 282.019 21.7184 281.611 21.5079V20.2579L293.457 23.2842V24.5408C292.957 24.5145 292.634 24.6461 292.634 25.6921C292.634 26.5276 298.215 56.7974 301.025 73.3961C301.479 76.0145 301.755 76.7118 302.295 76.85V78.1066L293.365 75.8237V74.5671C293.996 74.6263 294.227 74.1526 294.227 73.5342C294.227 73.1132 292.864 65.6132 292.68 64.2184L281.933 61.8434Z" fill="#FEFEFE"/>
<path fill-rule="evenodd" clip-rule="evenodd" d="M283.065 53.3961L291.502 55.554L287.106 31.4816L283.065 53.3961ZM281.933 61.8434C280.755 69.1658 280.479 70.0671 280.479 70.7053C280.479 71.3303 280.663 71.7974 281.295 71.9487L281.15 73.0605L273.075 71.7316V70.475C273.707 70.3171 273.983 69.975 274.253 68.3697C274.668 66.0803 282.519 23.4158 282.519 22.7842C282.519 22.054 282.019 21.7184 281.611 21.5079V20.2579L293.457 23.2842V24.5408C292.957 24.5145 292.634 24.6461 292.634 25.6921C292.634 26.5276 298.215 56.7974 301.025 73.3961C301.479 76.0145 301.755 76.7118 302.295 76.85V78.1066L293.365 75.8237V74.5671C293.996 74.6263 294.227 74.1526 294.227 73.5342C294.227 73.1132 292.864 65.6132 292.68 64.2184L281.933 61.8434Z" stroke="#FEFEFE" stroke-width="1.34868"/>
<path fill-rule="evenodd" clip-rule="evenodd" d="M136.976 392.05C209.73 455.918 318.785 446.734 380.588 371.55C442.371 296.366 433.5 183.629 360.746 119.767C287.999 55.8987 178.931 65.0829 117.141 140.267C55.3578 215.451 64.2291 328.182 136.976 392.05Z" fill="#CC6C18"/>
<path fill-rule="evenodd" clip-rule="evenodd" d="M136.976 392.05C209.73 455.918 318.785 446.734 380.588 371.55C442.371 296.366 433.5 183.629 360.746 119.767C287.999 55.8987 178.931 65.0829 117.141 140.267C55.3578 215.451 64.2291 328.182 136.976 392.05Z" stroke="#051821" stroke-width="8.05263"/>
<path fill-rule="evenodd" clip-rule="evenodd" d="M136.976 392.05C209.73 455.918 318.785 446.734 380.588 371.55C442.371 296.366 433.5 183.629 360.746 119.767C287.999 55.8987 178.931 65.0829 117.141 140.267C55.3578 215.451 64.2291 328.182 136.976 392.05Z" stroke="#051821" stroke-width="6.90132"/>
<path d="M252.936 76.2494C208.494 178.315 203.598 346.953 269.666 432.21" stroke="#051821" stroke-width="8.05263"/>
<path d="M316.549 91.4053C329.764 120.241 347.737 238.879 303.288 356.557C292.66 384.708 286.48 394.978 288.882 401.583C293.107 413.221 308.704 415.997 332.12 411.195L335.614 410.451" stroke="#051821" stroke-width="8.05263"/>
<path d="M252.936 76.2494C208.494 178.315 203.598 346.953 269.666 432.21" stroke="#051821" stroke-width="6.90132"/>
<path d="M136.649 392.024C184.375 412.998 318.912 435.807 404.196 330.143" stroke="#051821" stroke-width="8.05263"/>
<path d="M136.649 392.024C184.375 412.998 318.912 435.807 404.196 330.143" stroke="#051821" stroke-width="6.90132"/>
<path d="M180.287 90.8191C165.559 109.859 75.0754 246.089 181.682 369.76C195.759 386.102 216.016 398.155 218.306 409.997C220.419 420.793 215.002 427.398 209.599 430.405" stroke="#051821" stroke-width="8.05263"/>
<path d="M180.287 90.8191C165.559 109.859 75.0754 246.089 181.682 369.76C195.759 386.102 216.016 398.155 218.306 409.997C220.419 420.793 215.002 427.398 209.599 430.405" stroke="#051821" stroke-width="6.90132"/>
<path d="M316.549 91.4053C329.764 120.241 347.737 238.879 303.288 356.557C292.66 384.708 286.48 394.978 288.882 401.583C293.107 413.221 308.704 415.997 332.12 411.195L335.614 410.451" stroke="#051821" stroke-width="6.90132"/>
<path fill-rule="evenodd" clip-rule="evenodd" d="M242.846 145.071C89.2504 145.071 34.8183 200.578 8.77692 214.808V389.479C17.8522 396.426 27.1645 401.38 33.6008 403.907C51.4881 388.834 72.8108 374.538 99.6485 364.216C132.567 350.946 190.362 337.288 244.478 337.045C301.385 336.795 350.427 344.347 398.66 365.117C425.498 375.439 447.195 390.038 465.076 405.104C471.519 402.584 481.206 396.203 490.051 390.459V216.012C451.624 189.17 407.406 145.071 242.846 145.071Z" fill="#051821"/>
<path fill-rule="evenodd" clip-rule="evenodd" d="M242.846 145.071C89.2504 145.071 34.8183 200.578 8.77692 214.808V389.479C17.8522 396.426 27.1645 401.38 33.6008 403.907C51.4881 388.834 72.8108 374.538 99.6485 364.216C132.567 350.946 190.362 337.288 244.478 337.045C301.385 336.795 350.427 344.347 398.66 365.117C425.498 375.439 447.195 390.038 465.076 405.104C471.519 402.584 481.206 396.203 490.051 390.459V216.012C451.624 189.17 407.406 145.071 242.846 145.071Z" stroke="#051821" stroke-width="3.55263"/>
<path fill-rule="evenodd" clip-rule="evenodd" d="M242.846 145.071C89.2504 145.071 34.8183 200.578 8.77692 214.808V389.479C17.8522 396.426 27.1645 401.38 33.6008 403.907C51.4881 388.834 72.8108 374.538 99.6485 364.216C132.567 350.946 190.362 337.288 244.478 337.045C301.385 336.795 350.427 344.347 398.66 365.117C425.498 375.439 447.195 390.038 465.076 405.104C471.519 402.584 481.206 396.203 490.051 390.459V216.012C451.624 189.17 407.406 145.071 242.846 145.071Z" stroke="#051821" stroke-width="2.40132"/>
<path fill-rule="evenodd" clip-rule="evenodd" d="M249.491 328.394C306.398 328.315 362.403 340.026 398.355 355.361C425.193 365.684 447.871 379.532 465.745 394.598C472.037 393.078 478.947 387.901 481.573 386.032V176.98C435.091 136.151 348.714 106.545 249.491 106.545C133.171 106.545 61.009 141.703 17.4027 176.684V385.585C17.4027 385.585 24.8328 391.578 32.6116 394.032C51.9007 378.749 74.1185 364.348 100.173 354.901C144.99 338.302 196.184 328.769 249.491 328.394Z" fill="#0067AB"/>
<path fill-rule="evenodd" clip-rule="evenodd" d="M249.491 328.394C306.398 328.315 362.403 340.026 398.355 355.361C425.193 365.684 447.871 379.532 465.745 394.598C472.037 393.078 478.947 387.901 481.573 386.032V176.98C435.091 136.151 348.714 106.545 249.491 106.545C133.171 106.545 61.009 141.703 17.4027 176.684V385.585C17.4027 385.585 24.8328 391.578 32.6116 394.032C51.9007 378.749 74.1185 364.348 100.173 354.901C144.99 338.302 196.184 328.769 249.491 328.394Z" stroke="#051821" stroke-width="5.51316"/>
<path fill-rule="evenodd" clip-rule="evenodd" d="M249.491 328.394C306.398 328.315 362.403 340.026 398.355 355.361C425.193 365.684 447.871 379.532 465.745 394.598C472.037 393.078 478.947 387.901 481.573 386.032V176.98C435.091 136.151 348.714 106.545 249.491 106.545C133.171 106.545 61.009 141.703 17.4027 176.684V385.585C17.4027 385.585 24.8328 391.578 32.6116 394.032C51.9007 378.749 74.1185 364.348 100.173 354.901C144.99 338.302 196.184 328.769 249.491 328.394Z" stroke="#051821" stroke-width="4.36842"/>
<path d="M479.778 387.316C428.728 340.164 340.259 313.645 249.492 313.645C159.634 313.645 67.0254 341.066 19.9707 385.421" stroke="#051821" stroke-width="4.98026"/>
<path d="M17.4054 195.223C65.5263 156.414 134.661 121.776 248.888 121.776C347.486 121.776 434.527 151.46 481.714 195.94" stroke="#051821" stroke-width="4.98026"/>
<path d="M479.778 387.316C428.728 340.164 340.259 313.645 249.492 313.645C159.634 313.645 67.0254 341.066 19.9707 385.421" stroke="#051821" stroke-width="3.82895"/>
<path d="M17.4054 195.223C65.5263 156.414 134.661 121.776 248.888 121.776C347.486 121.776 434.527 151.46 481.714 195.94" stroke="#051821" stroke-width="3.82895"/>
<path fill-rule="evenodd" clip-rule="evenodd" d="M43.0933 348.593V334.001L49.5559 330.087V205.501L43.0933 209.679V194.745C56.6833 185.389 85.0477 171.205 88.72 170.061V217.403L76.2883 213.534V191.061L69.0689 194.482L69.2794 249.12L75.9198 245.824V238.409L83.4354 235.363V266.12L75.9198 269.442V261.771L69.2136 264.653L69.3913 319.87L76.2883 316.817V290.83L88.72 277.817V326.429C77.0254 330.37 58.6971 339.047 43.0933 348.593Z" fill="#FEFEFE"/>
<path fill-rule="evenodd" clip-rule="evenodd" d="M129.656 242.059L125.569 179.21L122.621 244.552L129.656 242.059ZM94.6317 324.157L94.6251 309.835L101.068 307.493L112.157 175.881L106.089 178.137V163.144C118.376 158.394 138.936 152.46 146.899 150.762V165.262L141.792 166.822L154.862 292.591L160.337 291.795V306.447C155.915 307.315 142.239 309.67 130.4 312.901V298.618L135.908 297.045L132.927 258.749L121.384 263.045L119.896 301.664L126.254 299.69V314.098C118.751 316.118 103.332 320.677 94.6317 324.157Z" fill="#FEFEFE"/>
<path fill-rule="evenodd" clip-rule="evenodd" d="M189.002 182.9C189.002 182.9 188.837 168.078 188.785 164.058C188.719 158.183 188.785 158.183 184.843 158.545C180.223 158.966 181.591 159.729 181.644 164.038C181.697 168.663 181.769 172.689 181.769 174.939C181.769 215.157 211.93 213.268 211.93 252.314L212.167 274.124C212.457 299.242 210.785 299.005 191.002 301.959C173.28 304.597 166.606 307.13 165.678 281.637L165.409 258.104L184.165 266.091C184.165 266.091 184.244 275.841 184.342 279.874C184.467 284.9 185.053 284.782 189.166 284.137C192.562 283.604 191.522 284.189 191.463 279.058C191.384 272.301 191.259 261.143 191.226 258.354C190.825 223.512 160.795 218.65 160.446 187.966L160.236 169.716C159.933 143.222 159.097 146.413 184.362 142.643C198.479 140.545 207.047 139.637 207.442 162.203V190.617L189.002 182.9Z" fill="#FEFEFE"/>
<path fill-rule="evenodd" clip-rule="evenodd" d="M281.105 299.136V283.919L288.423 284.419V156.88L281.105 156.005V141.281C296.82 142.149 312.931 144.235 325.981 146.524V196.478L313.938 185.005V159.557L307.311 158.695V215.945L313.938 216.959V209.498L321.591 210.59V242.965L313.938 241.419V233.116L307.311 232.103V286.544L313.938 287.393V262.241L325.981 256.616V304.426C314.872 302.873 299.209 299.715 281.105 299.136Z" fill="#FEFEFE"/>
<path fill-rule="evenodd" clip-rule="evenodd" d="M358.465 218.988L360.985 219.521C364.315 220.245 367.744 217.508 367.724 210.949L367.658 182.962C367.626 176.403 364.184 174.889 360.854 174.172L358.465 173.639V218.988ZM361.946 153.975C381.196 158.922 386.987 168.501 387.066 189.528L387.112 209.409C387.145 219.633 381.788 230.449 370.409 226.574V226.962C383.295 230.712 385.348 238.133 385.401 253.758L385.5 294.008C385.546 307.317 387.54 313.771 388.718 319.462L369.567 313.725C368.145 308.33 367.849 305.12 367.816 295.666L367.704 251.988C367.678 243.495 365.901 236.37 358.669 234.811V297.041L363.078 298.218L362.729 312.093C359.504 311.324 341.801 306.771 332.871 305.626V291.699L340.117 292.699V163.876L332.871 162.376V147.442C332.871 147.442 356.457 152.554 361.946 153.975Z" fill="#FEFEFE"/>
<path fill-rule="evenodd" clip-rule="evenodd" d="M394.539 321.487V306.264L399.521 307.994L399.54 180.56L394.539 178.481V164.297C403.272 167.737 424.937 177.119 428.227 179.31L438.244 294.507L438.329 199.948L435.17 198.007L435.065 183.139C440.29 186.237 445.72 188.928 459.007 198.461L459.172 213.415L453.887 209.685L454.144 348.718C453.025 348.066 434.604 337.566 430.498 335.784L416.737 202.757V329.862C416.737 329.862 397.54 322.191 394.539 321.487Z" fill="#FEFEFE"/>
<path fill-rule="evenodd" clip-rule="evenodd" d="M273.257 140.984V190.411L259.983 185.312V155.293H253.376V282.74L260.345 282.839V298.161C256.206 297.773 234.271 298.299 227.966 298.464V282.839H234.916V155.293H228.44L228.473 185.306L215.252 190.635L215.133 141.155C219.424 140.227 268.723 139.569 273.257 140.984Z" fill="#FEFEFE"/>
<path fill-rule="evenodd" clip-rule="evenodd" d="M39.4559 196.854L36.1983 198.768V213.703L39.4559 211.782V196.854Z" fill="#051821"/>
<path fill-rule="evenodd" clip-rule="evenodd" d="M39.4559 196.854L36.1983 198.768V213.703L39.4559 211.782V196.854Z" stroke="#0067AB" stroke-width="1.15132"/>
<path fill-rule="evenodd" clip-rule="evenodd" d="M42.6497 214.047L45.9074 212.264V327.639L42.6497 329.514V214.047Z" fill="#051821"/>
<path fill-rule="evenodd" clip-rule="evenodd" d="M42.6497 214.047L45.9074 212.264V327.639L42.6497 329.514V214.047Z" stroke="#0067AB" stroke-width="1.15132"/>
<path fill-rule="evenodd" clip-rule="evenodd" d="M39.4559 336.103L39.4888 350.643L36.2312 352.623V338.018L39.4559 336.103Z" fill="#051821"/>
<path fill-rule="evenodd" clip-rule="evenodd" d="M39.4559 336.103L39.4888 350.643L36.2312 352.623V338.018L39.4559 336.103Z" stroke="#0067AB" stroke-width="1.15132"/>
<path fill-rule="evenodd" clip-rule="evenodd" d="M81.8216 218.506L72.6213 215.618V219.447L81.8216 222.322V218.506Z" fill="#051821"/>
<path fill-rule="evenodd" clip-rule="evenodd" d="M81.8216 218.506L72.6213 215.618V219.447L81.8216 222.322V218.506Z" stroke="#0067AB" stroke-width="1.15132"/>
<path fill-rule="evenodd" clip-rule="evenodd" d="M72.9201 288.857L84.4831 276.903V271.528L72.9201 283.699V288.857Z" fill="#051821"/>
<path fill-rule="evenodd" clip-rule="evenodd" d="M72.9201 288.857L84.4831 276.903V271.528L72.9201 283.699V288.857Z" stroke="#0067AB" stroke-width="1.15132"/>
<path fill-rule="evenodd" clip-rule="evenodd" d="M102.451 164.487L102.412 179.138L99.1937 180.428V165.428L102.451 164.487Z" fill="#051821"/>
<path fill-rule="evenodd" clip-rule="evenodd" d="M102.451 164.487L102.412 179.138L99.1937 180.428V165.428L102.451 164.487Z" stroke="#0067AB" stroke-width="1.15132"/>
<path fill-rule="evenodd" clip-rule="evenodd" d="M97.432 305.188L108.232 181.524L104.974 182.787L94.1743 306.182L97.432 305.188Z" fill="#051821"/>
<path fill-rule="evenodd" clip-rule="evenodd" d="M97.432 305.188L108.232 181.524L104.974 182.787L94.1743 306.182L97.432 305.188Z" stroke="#0067AB" stroke-width="1.15132"/>
<path fill-rule="evenodd" clip-rule="evenodd" d="M129.676 264.114L131.914 294.693L128.656 295.391L126.359 265.121L129.676 264.114Z" fill="#051821"/>
<path fill-rule="evenodd" clip-rule="evenodd" d="M129.676 264.114L131.914 294.693L128.656 295.391L126.359 265.121L129.676 264.114Z" stroke="#0067AB" stroke-width="1.15132"/>
<path fill-rule="evenodd" clip-rule="evenodd" d="M161.778 256.064L162.107 284.88C162.212 286.038 162.956 288.084 163.055 288.564L159.876 289.064C159.876 289.064 159.238 288.018 159.02 287.084C158.408 284.597 158.645 254.722 158.645 254.722L161.778 256.064Z" fill="#051821"/>
<path fill-rule="evenodd" clip-rule="evenodd" d="M161.778 256.064L162.107 284.88C162.212 286.038 162.956 288.084 163.055 288.564L159.876 289.064C159.876 289.064 159.238 288.018 159.02 287.084C158.408 284.597 158.645 254.722 158.645 254.722L161.778 256.064Z" stroke="#0067AB" stroke-width="1.15132"/>
<path fill-rule="evenodd" clip-rule="evenodd" d="M183.88 250.88C181.945 238.426 176.417 232.946 163.472 214.946C161.405 212.071 155.055 201.933 154.805 196.854C153.804 192.262 152.922 165.933 153.455 162.676C153.824 160.571 152.718 152.367 159.378 147.933C156.917 150.611 157.108 154.913 156.812 162.196C156.502 169.472 157.042 191.354 157.865 196.091C158.891 202.018 162.86 208.499 165.861 213.611C169.184 219.255 186.617 236.611 187.256 252.17C187.368 253.597 187.526 258.183 187.453 260.867L184.373 259.617C184.558 258.861 184.275 252.953 183.88 250.88Z" fill="#051821"/>
<path fill-rule="evenodd" clip-rule="evenodd" d="M183.88 250.88C181.945 238.426 176.417 232.946 163.472 214.946C161.405 212.071 155.055 201.933 154.805 196.854C153.804 192.262 152.922 165.933 153.455 162.676C153.824 160.571 152.718 152.367 159.378 147.933C156.917 150.611 157.108 154.913 156.812 162.196C156.502 169.472 157.042 191.354 157.865 196.091C158.891 202.018 162.86 208.499 165.861 213.611C169.184 219.255 186.617 236.611 187.256 252.17C187.368 253.597 187.526 258.183 187.453 260.867L184.373 259.617C184.558 258.861 184.275 252.953 183.88 250.88Z" stroke="#0067AB" stroke-width="1.15132"/>
<path fill-rule="evenodd" clip-rule="evenodd" d="M188.758 190.861C186.731 189.499 186.941 185.749 186.941 185.749L187.093 185.808L201.94 191.907L201.999 196.025L188.758 190.861Z" fill="#051821"/>
<path fill-rule="evenodd" clip-rule="evenodd" d="M188.758 190.861C186.731 189.499 186.941 185.749 186.941 185.749L187.093 185.808L201.94 191.907L201.999 196.025L188.758 190.861Z" stroke="#0067AB" stroke-width="1.15132"/>
<path fill-rule="evenodd" clip-rule="evenodd" d="M227.974 193.122L231.271 191.839V279.089H227.974V193.122Z" fill="#051821"/>
<path fill-rule="evenodd" clip-rule="evenodd" d="M227.974 193.122L231.271 191.839V279.089H227.974V193.122Z" stroke="#0067AB" stroke-width="1.15132"/>
<path fill-rule="evenodd" clip-rule="evenodd" d="M224.33 283.035V298.759H221.073V282.995L224.33 283.035Z" fill="#051821"/>
<path fill-rule="evenodd" clip-rule="evenodd" d="M224.33 283.035V298.759H221.073V282.995L224.33 283.035Z" stroke="#0067AB" stroke-width="1.15132"/>
<path fill-rule="evenodd" clip-rule="evenodd" d="M256.779 192.254L270.106 197.05V193.122L256.779 188.326V192.254Z" fill="#051821"/>
<path fill-rule="evenodd" clip-rule="evenodd" d="M256.779 192.254L270.106 197.05V193.122L256.779 188.326V192.254Z" stroke="#0067AB" stroke-width="1.15132"/>
<path fill-rule="evenodd" clip-rule="evenodd" d="M281.317 159.681L284.858 160.089V280.523L281.219 280.385L281.317 159.681Z" fill="#051821"/>
<path fill-rule="evenodd" clip-rule="evenodd" d="M281.317 159.681L284.858 160.089V280.523L281.219 280.385L281.317 159.681Z" stroke="#0067AB" stroke-width="1.15132"/>
<path fill-rule="evenodd" clip-rule="evenodd" d="M277.486 283.595V298.917L273.946 298.72V283.503L277.486 283.595Z" fill="#051821"/>
<path fill-rule="evenodd" clip-rule="evenodd" d="M277.486 283.595V298.917L273.946 298.72V283.503L277.486 283.595Z" stroke="#0067AB" stroke-width="1.15132"/>
<path fill-rule="evenodd" clip-rule="evenodd" d="M318.766 194.361V199.052L310.106 191.394V186.23L318.766 194.361Z" fill="#051821"/>
<path fill-rule="evenodd" clip-rule="evenodd" d="M318.766 194.361V199.052L310.106 191.394V186.23L318.766 194.361Z" stroke="#0067AB" stroke-width="1.15132"/>
<path fill-rule="evenodd" clip-rule="evenodd" d="M310.72 256.115L320.104 251.714V255.543L310.72 259.944V256.115Z" fill="#051821"/>
<path fill-rule="evenodd" clip-rule="evenodd" d="M310.72 256.115L320.104 251.714V255.543L310.72 259.944V256.115Z" stroke="#0067AB" stroke-width="1.15132"/>
<path fill-rule="evenodd" clip-rule="evenodd" d="M333.053 167.256L336.482 167.993V288.769L333.053 288.19V167.256Z" fill="#051821"/>
<path fill-rule="evenodd" clip-rule="evenodd" d="M333.053 167.256L336.482 167.993V288.769L333.053 288.19V167.256Z" stroke="#0067AB" stroke-width="1.15132"/>
<path fill-rule="evenodd" clip-rule="evenodd" d="M385.727 160.986L385.708 165.821C386.379 166.426 388.695 173.617 388.985 176.216V162.222L385.727 160.986Z" fill="#051821"/>
<path fill-rule="evenodd" clip-rule="evenodd" d="M385.727 160.986L385.708 165.821C386.379 166.426 388.695 173.617 388.985 176.216V162.222L385.727 160.986Z" stroke="#0067AB" stroke-width="1.15132"/>
<path fill-rule="evenodd" clip-rule="evenodd" d="M392.623 182.116L395.9 183.366V302.978L392.61 301.879L392.623 182.116Z" fill="#051821"/>
<path fill-rule="evenodd" clip-rule="evenodd" d="M392.623 182.116L395.9 183.366V302.978L392.61 301.879L392.623 182.116Z" stroke="#0067AB" stroke-width="1.15132"/>
<path fill-rule="evenodd" clip-rule="evenodd" d="M420.188 269.177L420.004 295.401L423.61 332.414L426.868 334.249L420.188 269.177Z" fill="#051821"/>
<path fill-rule="evenodd" clip-rule="evenodd" d="M420.188 269.177L420.004 295.401L423.61 332.414L426.868 334.249L420.188 269.177Z" stroke="#0067AB" stroke-width="1.15132"/>
<path fill-rule="evenodd" clip-rule="evenodd" d="M100.176 390.187L102.078 388.733C104.151 387.147 104.309 385.516 103.473 384.43C102.17 382.733 100.867 382.864 99.0378 384.279L86.5995 393.792C84.7634 395.193 84.3027 396.417 85.5992 398.114C86.7706 399.654 88.0474 399.476 89.6334 398.259L92.6015 395.989L95.8262 400.207L93.0029 402.371C89.5413 405.016 85.1583 405.141 81.9335 400.924C78.5509 396.509 79.8078 392.312 83.2695 389.654L95.9117 379.976C99.38 377.325 103.763 377.2 107.146 381.621C110.37 385.832 108.876 390.213 105.204 393.022L103.401 394.397L100.176 390.187Z" fill="#051821"/>
<path fill-rule="evenodd" clip-rule="evenodd" d="M100.176 390.187L102.078 388.733C104.151 387.147 104.309 385.516 103.473 384.43C102.17 382.733 100.867 382.864 99.0378 384.279L86.5995 393.792C84.7634 395.193 84.3027 396.417 85.5992 398.114C86.7706 399.654 88.0474 399.476 89.6334 398.259L92.6015 395.989L95.8262 400.207L93.0029 402.371C89.5413 405.016 85.1583 405.141 81.9335 400.924C78.5509 396.509 79.8078 392.312 83.2695 389.654L95.9117 379.976C99.38 377.325 103.763 377.2 107.146 381.621C110.37 385.832 108.876 390.213 105.204 393.022L103.401 394.397L100.176 390.187Z" stroke="#C4CDD3" stroke-width="1.15132"/>
<path fill-rule="evenodd" clip-rule="evenodd" d="M115.485 425.183C113.978 426.933 113.768 428.229 115.386 429.624C117.012 431.018 118.262 430.624 119.763 428.867L129.99 416.986C131.504 415.229 131.708 413.939 130.089 412.545C128.463 411.15 127.213 411.545 125.706 413.301L115.485 425.183ZM121.757 409.736C124.613 406.426 128.878 405.407 133.103 409.038C137.321 412.67 136.959 417.038 134.103 420.347L123.712 432.426C120.862 435.736 116.591 436.755 112.372 433.13C108.154 429.499 108.516 425.13 111.372 421.814L121.757 409.736Z" fill="#051821"/>
<path fill-rule="evenodd" clip-rule="evenodd" d="M115.485 425.183C113.978 426.933 113.768 428.229 115.386 429.624C117.012 431.018 118.262 430.624 119.763 428.867L129.99 416.986C131.504 415.229 131.708 413.939 130.089 412.545C128.463 411.15 127.213 411.545 125.706 413.301L115.485 425.183ZM121.757 409.736C124.613 406.426 128.878 405.407 133.103 409.038C137.321 412.67 136.959 417.038 134.103 420.347L123.712 432.426C120.862 435.736 116.591 436.755 112.372 433.13C108.154 429.499 108.516 425.13 111.372 421.814L121.757 409.736Z" stroke="#C4CDD3" stroke-width="1.15132"/>
<path fill-rule="evenodd" clip-rule="evenodd" d="M143.076 452.887L157.949 425.795L162.266 428.163L159.417 446.762L159.502 446.808L168.011 431.314L172.21 433.617L157.337 460.703L153.283 458.486L156.639 438.308L156.574 438.268L147.281 455.189L143.076 452.887Z" fill="#051821"/>
<path fill-rule="evenodd" clip-rule="evenodd" d="M143.076 452.887L157.949 425.795L162.266 428.163L159.417 446.762L159.502 446.808L168.011 431.314L172.21 433.617L157.337 460.703L153.283 458.486L156.639 438.308L156.574 438.268L147.281 455.189L143.076 452.887Z" stroke="#C4CDD3" stroke-width="1.15132"/>
<path fill-rule="evenodd" clip-rule="evenodd" d="M183.134 471.512L192.236 441.986L206.385 446.347L205.023 450.762L195.941 447.966L193.605 455.571L200.396 457.67L199.034 462.084L192.242 459.986L188.208 473.078L183.134 471.512Z" fill="#051821"/>
<path fill-rule="evenodd" clip-rule="evenodd" d="M183.134 471.512L192.236 441.986L206.385 446.347L205.023 450.762L195.941 447.966L193.605 455.571L200.396 457.67L199.034 462.084L192.242 459.986L188.208 473.078L183.134 471.512Z" stroke="#C4CDD3" stroke-width="1.15132"/>
<path fill-rule="evenodd" clip-rule="evenodd" d="M223.687 481.13L226.84 450.386L240.976 451.84L240.515 456.432L231.644 455.524L230.834 463.445L237.652 464.143L237.185 468.741L230.374 468.051L229.439 477.077L238.903 478.038L238.422 482.636L223.687 481.13Z" fill="#051821"/>
<path fill-rule="evenodd" clip-rule="evenodd" d="M223.687 481.13L226.84 450.386L240.976 451.84L240.515 456.432L231.644 455.524L230.834 463.445L237.652 464.143L237.185 468.741L230.374 468.051L229.439 477.077L238.903 478.038L238.422 482.636L223.687 481.13Z" stroke="#C4CDD3" stroke-width="1.15132"/>
<path fill-rule="evenodd" clip-rule="evenodd" d="M269.042 465.248L270.917 465.064C273.78 464.781 274.734 463.61 274.379 459.945C274.023 456.281 272.845 455.314 269.996 455.597L268.114 455.781L269.042 465.248ZM270.707 482.202L265.415 482.722L262.401 451.952L269.818 451.222C275.754 450.643 279.025 452.86 279.663 459.426C280.144 464.366 278.433 466.557 276.715 467.551L282.559 481.044L277.182 481.57L272.187 469.195C271.509 469.353 270.404 469.498 269.469 469.584L270.707 482.202Z" fill="#051821"/>
<path fill-rule="evenodd" clip-rule="evenodd" d="M269.042 465.248L270.917 465.064C273.78 464.781 274.734 463.61 274.379 459.945C274.023 456.281 272.845 455.314 269.996 455.597L268.114 455.781L269.042 465.248ZM270.707 482.202L265.415 482.722L262.401 451.952L269.818 451.222C275.754 450.643 279.025 452.86 279.663 459.426C280.144 464.366 278.433 466.557 276.715 467.551L282.559 481.044L277.182 481.57L272.187 469.195C271.509 469.353 270.404 469.498 269.469 469.584L270.707 482.202Z" stroke="#C4CDD3" stroke-width="1.15132"/>
<path fill-rule="evenodd" clip-rule="evenodd" d="M309.595 473.999L300.427 444.472L314.017 440.262L315.386 444.676L306.883 447.314L309.239 454.92L315.781 452.893L317.15 457.314L310.602 459.334L313.293 468.012L322.375 465.196L323.744 469.611L309.595 473.999Z" fill="#051821"/>
<path fill-rule="evenodd" clip-rule="evenodd" d="M309.595 473.999L300.427 444.472L314.017 440.262L315.386 444.676L306.883 447.314L309.239 454.92L315.781 452.893L317.15 457.314L310.602 459.334L313.293 468.012L322.375 465.196L323.744 469.611L309.595 473.999Z" stroke="#C4CDD3" stroke-width="1.15132"/>
<path fill-rule="evenodd" clip-rule="evenodd" d="M349.236 458.141L334.304 431.082L338.621 428.701L352.823 441.063L352.902 441.023L344.359 425.536L348.552 423.22L363.491 450.293L359.437 452.523L344.182 438.878L344.109 438.918L353.435 455.826L349.236 458.141Z" fill="#051821"/>
<path fill-rule="evenodd" clip-rule="evenodd" d="M349.236 458.141L334.304 431.082L338.621 428.701L352.823 441.063L352.902 441.023L344.359 425.536L348.552 423.22L363.491 450.293L359.437 452.523L344.182 438.878L344.109 438.918L353.435 455.826L349.236 458.141Z" stroke="#C4CDD3" stroke-width="1.15132"/>
<path fill-rule="evenodd" clip-rule="evenodd" d="M380.252 411.691L378.686 409.876C376.981 407.902 375.342 407.843 374.309 408.737C372.69 410.139 372.894 411.428 374.401 413.172L384.642 425.034C386.149 426.784 387.399 427.165 389.011 425.777C390.479 424.52 390.235 423.257 388.913 421.737L386.484 418.915L390.505 415.448L392.822 418.132C395.678 421.435 396.053 425.81 392.032 429.277C387.82 432.909 383.562 431.902 380.706 428.593L370.301 416.547C367.452 413.244 367.07 408.876 371.289 405.231C375.296 401.77 379.765 403.014 382.786 406.507L384.266 408.224L380.252 411.691Z" fill="#051821"/>
<path fill-rule="evenodd" clip-rule="evenodd" d="M380.252 411.691L378.686 409.876C376.981 407.902 375.342 407.843 374.309 408.737C372.69 410.139 372.894 411.428 374.401 413.172L384.642 425.034C386.149 426.784 387.399 427.165 389.011 425.777C390.479 424.52 390.235 423.257 388.913 421.737L386.484 418.915L390.505 415.448L392.822 418.132C395.678 421.435 396.053 425.81 392.032 429.277C387.82 432.909 383.562 431.902 380.706 428.593L370.301 416.547C367.452 413.244 367.07 408.876 371.289 405.231C375.296 401.77 379.765 403.014 382.786 406.507L384.266 408.224L380.252 411.691Z" stroke="#C4CDD3" stroke-width="1.15132"/>
<path fill-rule="evenodd" clip-rule="evenodd" d="M415.837 403.898L391.375 385.003L400.069 373.766L403.728 376.595L398.285 383.635L404.584 388.503L408.769 383.082L412.422 385.918L408.243 391.326L415.423 396.878L421.227 389.352L424.893 392.188L415.837 403.898Z" fill="#051821"/>
<path fill-rule="evenodd" clip-rule="evenodd" d="M415.837 403.898L391.375 385.003L400.069 373.766L403.728 376.595L398.285 383.635L404.584 388.503L408.769 383.082L412.422 385.918L408.243 391.326L415.423 396.878L421.227 389.352L424.893 392.188L415.837 403.898Z" stroke="#C4CDD3" stroke-width="1.15132"/>
<path fill-rule="evenodd" clip-rule="evenodd" d="M98.9746 387.791L100.877 386.324C102.95 384.738 103.107 383.12 102.272 382.034C100.969 380.324 99.6788 380.462 97.8361 381.87L85.3978 391.396C83.5617 392.797 83.0944 394.014 84.3975 395.712C85.5689 397.245 86.8457 397.074 88.4383 395.857L91.3998 393.593L94.6245 397.797L91.8012 399.962C88.3396 402.62 83.9566 402.732 80.7318 398.528C77.3426 394.113 78.6061 389.903 82.0678 387.258L94.7166 377.574C98.1783 374.929 102.561 374.797 105.951 379.212C109.169 383.436 107.675 387.811 104.003 390.626L102.199 392.001L98.9746 387.791Z" fill="#FEFEFE"/>
<path fill-rule="evenodd" clip-rule="evenodd" d="M114.284 422.78C112.776 424.536 112.559 425.826 114.185 427.22C115.81 428.615 117.061 428.22 118.561 426.47L128.795 414.582C130.302 412.826 130.506 411.536 128.887 410.141C127.261 408.747 126.011 409.141 124.504 410.891L114.284 422.78ZM120.562 407.332C123.411 404.016 127.683 403.003 131.901 406.635C136.12 410.266 135.751 414.635 132.901 417.951L122.516 430.023C119.66 433.332 115.396 434.359 111.171 430.727C106.952 427.095 107.314 422.727 110.17 419.405L120.562 407.332Z" fill="#FEFEFE"/>
<path fill-rule="evenodd" clip-rule="evenodd" d="M141.874 450.484L156.747 423.391L161.064 425.76L158.221 444.365L158.3 444.411L166.81 428.911L171.015 431.214L156.135 458.306L152.081 456.089L155.444 435.911L155.372 435.859L146.079 452.793L141.874 450.484Z" fill="#FEFEFE"/>
<path fill-rule="evenodd" clip-rule="evenodd" d="M181.932 469.109L191.034 439.582L205.19 443.944L203.828 448.359L194.739 445.563L192.403 453.168L199.195 455.26L197.832 459.681L191.041 457.589L187.006 470.674L181.932 469.109Z" fill="#FEFEFE"/>
<path fill-rule="evenodd" clip-rule="evenodd" d="M222.492 478.734L225.645 447.99L239.781 449.438L239.313 454.036L230.449 453.122L229.639 461.043L236.451 461.747L235.983 466.345L229.172 465.648L228.238 474.674L237.695 475.641L237.221 480.234L222.492 478.734Z" fill="#FEFEFE"/>
<path fill-rule="evenodd" clip-rule="evenodd" d="M267.84 462.839L269.716 462.661C272.578 462.385 273.533 461.207 273.177 457.543C272.815 453.885 271.644 452.911 268.788 453.194L266.912 453.385L267.84 462.839ZM269.505 479.799L264.22 480.319L261.2 449.549L268.616 448.819C274.546 448.24 277.823 450.464 278.462 457.023C278.942 461.964 277.225 464.155 275.513 465.148L281.357 478.641L275.981 479.168L270.979 466.799C270.308 466.944 269.209 467.095 268.268 467.188L269.505 479.799Z" fill="#FEFEFE"/>
<path fill-rule="evenodd" clip-rule="evenodd" d="M307.789 471.897L298.628 442.371L312.218 438.154L313.587 442.582L305.078 445.213L307.434 452.825L313.975 450.792L315.351 455.213L308.803 457.233L311.501 465.911L320.576 463.088L321.938 467.516L307.789 471.897Z" fill="#FEFEFE"/>
<path fill-rule="evenodd" clip-rule="evenodd" d="M346.832 456.941L331.906 429.875L336.217 427.5L350.419 439.862L350.491 439.816L341.955 424.336L346.147 422.02L361.08 449.092L357.033 451.322L341.778 437.678L341.712 437.724L351.031 454.625L346.832 456.941Z" fill="#FEFEFE"/>
<path fill-rule="evenodd" clip-rule="evenodd" d="M377.546 410.489L375.98 408.68C374.275 406.7 372.643 406.641 371.603 407.536C369.984 408.937 370.188 410.22 371.702 411.976L381.935 423.825C383.442 425.575 384.693 425.976 386.312 424.582C387.773 423.318 387.529 422.055 386.22 420.529L383.785 417.72L387.799 414.246L390.122 416.937C392.979 420.239 393.354 424.608 389.333 428.075C385.114 431.713 380.856 430.693 378 427.391L367.595 415.345C364.746 412.036 364.371 407.667 368.582 404.042C372.603 400.568 377.065 401.812 380.086 405.305L381.567 407.029L377.546 410.489Z" fill="#FEFEFE"/>
<path fill-rule="evenodd" clip-rule="evenodd" d="M413.132 403.294L388.676 384.413L397.37 373.169L401.022 375.991L395.58 383.038L401.878 387.899L406.07 382.485L409.729 385.314L405.537 390.728L412.724 396.274L418.528 388.755L422.187 391.584L413.132 403.294Z" fill="#FEFEFE"/>
</svg>
