<svg width="500" height="500" viewBox="0 0 500 500" fill="none" xmlns="http://www.w3.org/2000/svg">
<path fill-rule="evenodd" clip-rule="evenodd" d="M22.8992 63.2581V436.944H63.2872C63.3928 340.71 65.5749 244.088 59.6533 148.98L106.216 436.944H164.166V63.2581H124.175C123.36 162.338 126.878 260.033 133.597 356.706L85.2134 63.2581H22.8992Z" fill="#1D4289"/>
<path fill-rule="evenodd" clip-rule="evenodd" d="M373.013 63L333.316 437H382.706L389.168 361.374H421.48L427.942 437H477.101L438.558 63H373.013ZM405.324 168.567L417.787 317.496H392.861L405.324 168.567Z" fill="#1D4289"/>
<path d="M195.302 63.258V436.742H267.54C279.381 436.742 319.7 426.394 319.7 374.538V299.944C319.7 292.085 319.766 267.445 298.236 252.968C311.689 252.968 319.7 226.869 319.7 203.153V123.139C319.7 91.9635 300.295 63.1732 261.309 63.258H195.302ZM239.845 111.008H261.771C271.814 111.008 275.157 122.096 275.157 130.624V217.607C275.157 232.486 270.265 233.61 260.155 233.61H239.845V111.008ZM239.845 274.391H261.771C271.814 274.391 275.157 285.48 275.157 294.008V371.698C275.157 381.821 270.11 389.508 260.155 389.508L239.845 389.766V274.391V274.391Z" fill="#1D4289"/>
</svg>
