<svg width="480" height="500" viewBox="0 0 480 500" fill="none" xmlns="http://www.w3.org/2000/svg">
<path d="M186.781 14H293.219C319.052 14 339.849 35.6634 339.849 62.5727V437.427C339.849 464.337 319.052 486 293.219 486H186.781C160.948 486 140.151 464.337 140.151 437.427V62.5727C140.151 35.6634 160.948 14 186.781 14Z" fill="white"/>
<path d="M266.782 100.518L266.93 102.115C270.141 104.092 271.82 105.688 275.103 107.893C283.715 113.595 294.3 123.707 292.986 158.451C295.466 166.054 296.562 180.879 298.751 185.592C303.205 194.944 306.269 201.026 307.583 209.769C307.583 209.769 308.898 223.454 310.575 224.442C319.478 226.571 316.926 227.483 318.166 229.156C319.551 230.98 324.733 230.904 324.733 235.922C326.559 238.431 327.946 240.94 328.894 243.677V62.9611C328.894 42.2818 312.837 25.5559 293.057 25.5559H258.825C264.299 27.6086 267.438 30.0415 269.263 33.8428C273.64 34.223 278.825 44.4866 270.722 59.768C274.297 62.3529 271.524 66.1542 268.969 70.4878C268.166 71.8563 267.364 74.3651 264.955 74.2131C261.744 81.1315 258.02 87.6698 255.176 88.05C254.374 89.1144 253.788 92.0794 255.029 93.4479C259.192 95.4246 264.226 98.0095 266.782 100.518V100.518Z" fill="#C80F2E"/>
<path d="M298.749 473.961L298.386 474.037C314.077 464.078 304.369 445.224 301.378 434.124L301.961 432.222C302.764 430.701 301.086 427.129 301.086 427.129C299.116 425.456 298.678 416.182 297.655 411.925C295.978 405.006 300.647 392.918 300.647 388.812C300.647 384.705 297.655 379.08 292.255 371.934C290.94 370.338 286.999 335.289 283.495 326.394C278.605 314.153 277.145 316.129 271.308 301.458C266.855 291.193 270.358 276.065 260.287 240.94L262.549 238.735C262.549 238.735 254.52 208.173 251.892 199.81C249.336 191.447 244.594 190.915 244.594 190.915L244.885 186.581C245.251 185.289 254.665 159.82 255.468 158.983C255.54 158.451 269.043 148.796 269.261 150.24C270.355 156.474 275.611 188.178 277.873 193.195C280.135 198.289 287.947 213.799 291.522 223.454C277.582 227.027 267.144 240.18 267.144 255.766C267.144 274.165 281.45 289.141 299.112 289.141C312.613 289.141 324.292 280.399 328.963 268.083L328.89 437.092C328.893 455.792 315.974 471.224 298.749 473.961V473.961Z" fill="#C80F2E"/>
<path d="M247.585 25.5559C235.908 30.2696 234.302 35.5154 233.865 52.3934C231.895 52.6215 227.806 50.6448 229.194 60.9084C229.194 60.9084 229.924 67.7508 232.551 66.6104C230.508 81.5117 232.132 85.2412 222.626 86.3014C220.583 86.5294 218.1 86.6815 215.036 86.8335L214.087 88.202C201.096 89.4945 194.661 88.6297 186.278 100.138C183.067 104.548 179.637 110.782 175.404 119.677C175.404 119.677 171.535 129.637 170.366 133.742C166.644 141.877 157.521 159.895 154.821 171.451C153.946 175.405 152.266 176.621 154.675 182.323C158.251 190.534 152.339 192.663 172.629 192.055V196.92C172.629 196.92 167.228 201.786 166.06 204.675C164.966 207.64 161.827 222.161 161.974 229.08C162.338 247.098 176.425 262.15 180.585 280.094L190 281.463C195.109 293.704 217.442 326.697 222.625 332.02C222.698 332.096 222.771 332.173 222.844 332.249C224.011 335.365 229.778 339.244 233.134 343.121C235.179 345.174 244.595 355.818 257.148 365.93C261.756 369.642 266.711 373.304 271.891 376.422C271.745 376.345 274.956 383.036 276.562 388.509C270.139 393.906 282.62 403.792 286.415 420.137C286.634 422.34 282.765 424.547 288.531 429.944C288.167 454.65 280.942 467.578 293.057 474.418H186.278C166.865 473.962 151.172 457.389 151.172 437.089V62.9611C151.172 42.5099 166.864 26.0121 186.278 25.5559H247.585Z" fill="#1D4289"/>
</svg>
